<svg xmlns="http://www.w3.org/2000/svg" viewBox="0 0 32 32">
  <!-- K vertical bar / quill shaft -->
  <path d="M4 3 Q6 2 8 3 L8 27 Q7 29 5 29 Q3 28 4 26 Z" fill="#2D6A4F"/>
  <!-- Quill nib -->
  <path d="M4 27 L6 31 L9 27 Z" fill="#1F4D3A"/>
  <!-- Feather / K upper arm — wide quill pen vane, light green -->
  <path d="M8 16 C9 12 12 8 17 5 C21 3 27 2 27 2 C23 5 18 9 15 13 C12 16 10 18 8 19 Z" fill="#52B788"/>
  <!-- Feather inner hollow (rachis detail) -->
  <path d="M8 17 C10 14 13 11 17 8 L16 9 C13 12 10 15 8 18 Z" fill="#2D6A4F" opacity="0.3"/>
  <!-- K lower arm / quill lower vane -->
  <path d="M8 19 L25 30 L20 30 L8 22 Z" fill="#2D6A4F"/>
</svg>
