<svg xmlns="http://www.w3.org/2000/svg" xmlns:xlink="http://www.w3.org/1999/xlink" width="170" zoomAndPan="magnify" viewBox="0 0 127.5 89.999999" height="120" preserveAspectRatio="xMidYMid meet" version="1.0"><defs><clipPath id="01375ffcf0"><path d="M 29.042969 26 L 63 26 L 63 80 L 29.042969 80 Z M 29.042969 26 " clip-rule="nonzero"/></clipPath><clipPath id="022b76e7dd"><path d="M 31 76 L 59 76 L 59 89.824219 L 31 89.824219 Z M 31 76 " clip-rule="nonzero"/></clipPath></defs><path fill="#e8a48d" d="M 47.648438 41.605469 C 47.648438 41.605469 41.167969 45.117188 39.164062 40.71875 C 37.875 37.898438 39.34375 33.984375 43.316406 31.90625 C 45.332031 30.863281 55.003906 26.789062 59.523438 24.6875 C 64.039062 22.585938 69.324219 25.929688 63.308594 30.953125 C 60.226562 33.527344 52.246094 39.386719 47.648438 41.605469 Z M 47.648438 41.605469 " fill-opacity="1" fill-rule="nonzero"/><path fill="#e8a48d" d="M 61.148438 60.234375 C 61.148438 60.234375 60.886719 63.183594 61.695312 66.773438 C 62.503906 70.363281 66.824219 72.046875 66.824219 72.046875 L 68.855469 66.5625 L 67.164062 57.347656 L 61.148438 60.246094 Z M 61.148438 60.234375 " fill-opacity="1" fill-rule="nonzero"/><path fill="#e8a48d" d="M 82.679688 9.496094 C 82.679688 9.496094 83.644531 8.332031 83.292969 7.785156 C 82.941406 7.238281 81.585938 8.164062 81.183594 8.621094 C 80.78125 9.078125 80.324219 8.933594 80.324219 8.933594 C 80.324219 8.933594 82.574219 7.355469 81.953125 6.0625 C 81.328125 4.769531 78.800781 8.085938 78.800781 8.085938 L 76.941406 8.085938 C 76.941406 8.085938 78.800781 6.480469 78.460938 5.527344 C 78.125 4.574219 75.457031 7.183594 75.457031 7.183594 L 76.757812 9.859375 L 81.339844 10.90625 C 81.339844 10.90625 82.03125 10.253906 82.679688 9.484375 Z M 82.679688 9.496094 " fill-opacity="1" fill-rule="nonzero"/><path fill="#f4ebe4" d="M 64.128906 72.292969 C 64.128906 72.292969 62.398438 75.152344 61.695312 79.238281 C 60.992188 83.324219 62.136719 86.390625 65.105469 87.917969 C 67.566406 89.183594 72.628906 88.910156 75.691406 88.625 C 79.386719 88.269531 84.347656 89.824219 87.9375 88.191406 C 92.367188 86.195312 92.847656 83.390625 92.484375 79.523438 C 92.027344 74.761719 90.515625 71.785156 90.515625 71.785156 L 64.128906 72.308594 Z M 64.128906 72.292969 " fill-opacity="1" fill-rule="nonzero"/><path fill="#e8a48d" d="M 93.015625 14.914062 C 93.015625 14.914062 97.753906 18.90625 94.957031 21.832031 C 93.160156 23.710938 90.242188 21.636719 87.183594 19.441406 C 83.578125 16.871094 75.898438 12.890625 73.230469 10.90625 C 71.445312 9.585938 71.652344 4.039062 77.433594 7.199219 C 80.390625 8.816406 89.878906 12 93.03125 14.914062 Z M 93.015625 14.914062 " fill-opacity="1" fill-rule="nonzero"/><path fill="#e8a48d" d="M 76.746094 10.476562 C 77.734375 8.59375 76.472656 6.3125 74.363281 6.0625 C 72.957031 5.894531 70.703125 5.65625 69.234375 5.632812 C 66.96875 5.605469 64.925781 6.910156 64.820312 7.222656 C 64.378906 8.503906 68.660156 7.054688 68.660156 7.054688 C 68.660156 7.054688 66.367188 7.890625 65.808594 8.332031 C 65.25 8.789062 64.507812 9.769531 65.105469 9.875 C 65.71875 9.980469 67.5 8.710938 68.503906 8.777344 C 68.503906 8.777344 63.53125 10.929688 65.289062 11.765625 C 65.289062 11.765625 64.847656 12.902344 66.238281 12.484375 C 67.632812 12.066406 69.363281 11.464844 69.597656 11.347656 C 69.597656 11.347656 72.394531 12.316406 74.910156 11.859375 C 77.421875 11.402344 76.367188 11.167969 76.730469 10.488281 Z M 76.746094 10.476562 " fill-opacity="1" fill-rule="nonzero"/><path fill="#483432" d="M 65.511719 11.820312 C 65.445312 11.820312 65.378906 11.792969 65.339844 11.726562 C 65.289062 11.636719 65.316406 11.519531 65.40625 11.464844 C 65.472656 11.425781 67.109375 10.394531 69.117188 9.898438 C 69.21875 9.875 69.324219 9.941406 69.351562 10.042969 C 69.375 10.148438 69.3125 10.253906 69.207031 10.277344 C 67.265625 10.761719 65.628906 11.792969 65.613281 11.804688 C 65.589844 11.832031 65.550781 11.832031 65.511719 11.832031 Z M 65.511719 11.820312 " fill-opacity="1" fill-rule="nonzero"/><path fill="#e8a48d" d="M 91.078125 37.480469 C 90.296875 37.546875 89.4375 37.050781 88.992188 36.386719 C 88.328125 35.367188 87.71875 33.644531 87.847656 31.125 C 87.992188 28.578125 88.695312 23.449219 89.839844 20.472656 C 90.984375 17.496094 91.792969 17.953125 92.769531 17.316406 C 96.363281 14.9375 97.496094 24.246094 95.4375 32.378906 C 94.394531 36.503906 92.859375 37.324219 91.078125 37.480469 Z M 91.078125 37.480469 " fill-opacity="1" fill-rule="nonzero"/><path fill="#f0d595" d="M 63.464844 72.671875 C 63.464844 72.671875 66.707031 66.015625 66.199219 58.628906 C 65.691406 51.238281 58.898438 46.59375 64.050781 40.902344 C 69.207031 35.195312 84.449219 36.253906 88.082031 39.21875 C 91.714844 42.167969 91.53125 47.558594 90.242188 55.886719 C 88.953125 64.226562 91.664062 72.882812 91.664062 72.882812 C 91.664062 72.882812 85.777344 72.542969 77.054688 74.121094 C 70.457031 75.308594 63.492188 72.683594 63.492188 72.683594 Z M 63.464844 72.671875 " fill-opacity="1" fill-rule="nonzero"/><path fill="#e8a48d" d="M 71.109375 38.578125 C 71.109375 38.578125 72.082031 36.28125 72.355469 31.398438 L 80.023438 31.398438 C 80.023438 31.398438 79.660156 35.757812 80.675781 38.289062 C 80.675781 38.289062 78.8125 40.980469 71.09375 38.578125 Z M 71.109375 38.578125 " fill-opacity="1" fill-rule="nonzero"/><path fill="#483432" d="M 83.746094 24.9375 C 83.746094 24.9375 84.164062 20.054688 80.101562 17.484375 C 76.027344 14.898438 69.859375 17.339844 69.117188 21.21875 C 68.375 25.082031 67.996094 27.339844 68.882812 28.933594 C 69.765625 30.523438 68.59375 35.183594 72.292969 35.484375 C 75.988281 35.785156 77.679688 36.582031 80.207031 32.925781 C 82.730469 29.269531 83.8125 28.238281 83.761719 24.949219 Z M 83.746094 24.9375 " fill-opacity="1" fill-rule="nonzero"/><path fill="#e8a48d" d="M 82.429688 38.804688 C 82.433594 38.90625 82.394531 39.003906 82.316406 39.105469 C 82.238281 39.207031 82.125 39.304688 81.96875 39.402344 C 81.8125 39.496094 81.621094 39.589844 81.394531 39.679688 C 81.167969 39.769531 80.910156 39.851562 80.621094 39.929688 C 80.332031 40.007812 80.015625 40.078125 79.675781 40.140625 C 79.332031 40.207031 78.972656 40.261719 78.59375 40.308594 C 78.214844 40.359375 77.824219 40.394531 77.417969 40.425781 C 77.015625 40.457031 76.609375 40.476562 76.195312 40.484375 C 75.785156 40.496094 75.375 40.496094 74.972656 40.484375 C 74.566406 40.476562 74.175781 40.457031 73.792969 40.425781 C 73.410156 40.398438 73.046875 40.359375 72.703125 40.3125 C 72.359375 40.265625 72.042969 40.210938 71.75 40.148438 C 71.457031 40.082031 71.195312 40.011719 70.964844 39.933594 C 70.734375 39.855469 70.539062 39.773438 70.378906 39.683594 C 70.21875 39.597656 70.097656 39.503906 70.015625 39.40625 C 69.929688 39.308594 69.886719 39.210938 69.886719 39.113281 C 69.882812 39.011719 69.921875 38.910156 70 38.8125 C 70.078125 38.710938 70.195312 38.613281 70.347656 38.515625 C 70.503906 38.417969 70.695312 38.328125 70.921875 38.238281 C 71.148438 38.148438 71.40625 38.066406 71.695312 37.988281 C 71.988281 37.910156 72.300781 37.839844 72.644531 37.773438 C 72.984375 37.710938 73.34375 37.652344 73.722656 37.605469 C 74.105469 37.558594 74.496094 37.519531 74.898438 37.492188 C 75.300781 37.460938 75.710938 37.441406 76.121094 37.429688 C 76.535156 37.421875 76.941406 37.421875 77.347656 37.429688 C 77.75 37.441406 78.144531 37.460938 78.523438 37.488281 C 78.90625 37.519531 79.269531 37.554688 79.613281 37.601562 C 79.957031 37.652344 80.273438 37.707031 80.566406 37.769531 C 80.859375 37.832031 81.121094 37.90625 81.355469 37.980469 C 81.585938 38.058594 81.78125 38.144531 81.941406 38.230469 C 82.097656 38.320312 82.222656 38.414062 82.304688 38.507812 C 82.386719 38.605469 82.429688 38.703125 82.429688 38.804688 Z M 82.429688 38.804688 " fill-opacity="1" fill-rule="nonzero"/><path fill="#f0d595" d="M 81.261719 37.050781 C 81.261719 37.050781 84.269531 35.472656 85.152344 33.644531 C 86.039062 31.816406 87.535156 29.140625 88.003906 27.585938 C 88.003906 27.585938 91.089844 27.261719 93.472656 29.832031 C 95.855469 32.417969 94.878906 35.472656 94.878906 35.472656 C 94.878906 35.472656 91.832031 42.492188 91.0625 48.132812 C 91.0625 48.132812 88.171875 41.476562 81.261719 37.050781 Z M 81.261719 37.050781 " fill-opacity="1" fill-rule="nonzero"/><path fill="#483432" d="M 90.414062 44.960938 C 90.320312 44.960938 90.230469 44.882812 90.21875 44.792969 C 89.320312 37.011719 86.285156 36.28125 86.261719 36.28125 C 86.15625 36.253906 86.089844 36.164062 86.105469 36.058594 C 86.128906 35.953125 86.222656 35.890625 86.324219 35.902344 C 86.457031 35.929688 89.65625 36.632812 90.59375 44.753906 C 90.59375 44.855469 90.53125 44.960938 90.425781 44.960938 C 90.425781 44.960938 90.414062 44.960938 90.398438 44.960938 Z M 90.414062 44.960938 " fill-opacity="1" fill-rule="nonzero"/><path fill="#483432" d="M 72.226562 64.878906 C 72.1875 64.878906 72.148438 64.878906 72.109375 64.839844 C 72.019531 64.777344 72.003906 64.65625 72.070312 64.566406 C 72.121094 64.488281 77.8125 56.617188 82.328125 51.253906 C 82.394531 51.175781 82.523438 51.160156 82.601562 51.226562 C 82.679688 51.292969 82.691406 51.421875 82.628906 51.5 C 78.125 56.851562 72.449219 64.710938 72.394531 64.789062 C 72.355469 64.839844 72.304688 64.867188 72.238281 64.867188 Z M 72.226562 64.878906 " fill-opacity="1" fill-rule="nonzero"/><path fill="#483432" d="M 72.878906 61.917969 C 72.839844 61.917969 72.800781 61.917969 72.773438 61.890625 C 72.683594 61.839844 72.65625 61.707031 72.722656 61.617188 C 72.761719 61.550781 76.875 55.246094 80.9375 51.710938 C 81.015625 51.644531 81.144531 51.644531 81.210938 51.722656 C 81.273438 51.800781 81.273438 51.929688 81.195312 51.996094 C 77.171875 55.507812 73.085938 61.761719 73.046875 61.824219 C 73.007812 61.878906 72.941406 61.917969 72.890625 61.917969 Z M 72.878906 61.917969 " fill-opacity="1" fill-rule="nonzero"/><path fill="#f4ebe4" d="M 69.546875 28.75 C 69.546875 28.75 71.132812 25.65625 75.300781 26.921875 C 79.464844 28.1875 80.53125 31.242188 79.074219 34.308594 C 79.074219 34.308594 80.480469 33.617188 80.703125 32.640625 C 81.054688 31.046875 80.6875 28.199219 78.671875 26.75 C 76.652344 25.304688 73.292969 24.273438 71.652344 25.460938 C 70.015625 26.660156 68.347656 27.808594 68.359375 28.605469 C 68.375 29.402344 69.195312 30.003906 69.195312 30.003906 C 69.195312 30.003906 69.246094 29.191406 69.546875 28.75 Z M 69.546875 28.75 " fill-opacity="1" fill-rule="nonzero"/><path fill="#483432" d="M 90.074219 21.296875 C 89.929688 21.296875 89.851562 21.296875 89.839844 21.296875 C 89.734375 21.296875 89.65625 21.191406 89.671875 21.085938 C 89.671875 20.980469 89.773438 20.902344 89.878906 20.917969 C 89.90625 20.917969 91.246094 21.035156 92.484375 20.1875 C 92.574219 20.121094 92.691406 20.148438 92.757812 20.238281 C 92.820312 20.328125 92.796875 20.445312 92.703125 20.511719 C 91.648438 21.230469 90.554688 21.320312 90.074219 21.320312 Z M 90.074219 21.296875 " fill-opacity="1" fill-rule="nonzero"/><path fill="#483432" d="M 69.988281 35.25 C 69.921875 35.25 69.871094 35.222656 69.832031 35.171875 C 67.644531 31.984375 69.6875 28.75 69.714844 28.722656 C 69.765625 28.632812 69.898438 28.605469 69.988281 28.671875 C 70.078125 28.734375 70.105469 28.851562 70.039062 28.945312 C 70.027344 28.972656 68.125 32 70.15625 34.960938 C 70.222656 35.054688 70.195312 35.171875 70.105469 35.234375 C 70.066406 35.261719 70.039062 35.277344 70 35.277344 Z M 69.988281 35.25 " fill-opacity="1" fill-rule="nonzero"/><path fill="#483432" d="M 83.175781 26.671875 C 83.136719 26.671875 83.109375 26.671875 83.082031 26.648438 C 82.992188 26.59375 82.953125 26.476562 83.019531 26.386719 C 83.019531 26.359375 84.269531 24.167969 83.734375 21.988281 C 83.214844 19.832031 81.378906 19.140625 81.367188 19.128906 C 81.261719 19.089844 81.210938 18.984375 81.25 18.878906 C 81.289062 18.777344 81.390625 18.722656 81.496094 18.761719 C 81.574219 18.789062 83.539062 19.535156 84.113281 21.894531 C 84.683594 24.234375 83.410156 26.476562 83.34375 26.582031 C 83.304688 26.648438 83.238281 26.671875 83.175781 26.671875 Z M 83.175781 26.671875 " fill-opacity="1" fill-rule="nonzero"/><path fill="#f4ebe4" d="M 80.429688 30.355469 C 80.390625 30.355469 80.351562 30.355469 80.324219 30.328125 C 80.234375 30.277344 80.207031 30.144531 80.273438 30.054688 C 80.285156 30.027344 81.9375 27.417969 81.535156 24.273438 C 81.523438 24.167969 81.601562 24.0625 81.703125 24.050781 C 81.808594 24.035156 81.914062 24.113281 81.925781 24.21875 C 82.355469 27.507812 80.675781 30.144531 80.609375 30.261719 C 80.570312 30.316406 80.507812 30.355469 80.453125 30.355469 Z M 80.429688 30.355469 " fill-opacity="1" fill-rule="nonzero"/><path fill="#f4ebe4" d="M 70.3125 31.59375 C 70.210938 31.59375 70.117188 31.503906 70.117188 31.398438 C 70.15625 27.992188 71.707031 26.542969 71.769531 26.476562 C 71.847656 26.398438 71.964844 26.414062 72.042969 26.476562 C 72.121094 26.554688 72.109375 26.671875 72.042969 26.75 C 72.03125 26.765625 70.546875 28.175781 70.523438 31.386719 C 70.523438 31.488281 70.429688 31.582031 70.328125 31.582031 Z M 70.3125 31.59375 " fill-opacity="1" fill-rule="nonzero"/><path fill="#e8a48d" d="M 59.25 25.066406 C 59.25 25.066406 61.695312 22.039062 67.007812 17.117188 C 72.238281 12.261719 71.964844 10.5 74.480469 9.71875 C 77.003906 8.933594 81.429688 13.972656 81.429688 13.972656 C 81.429688 13.972656 79.046875 15.355469 77.914062 16.164062 C 76.941406 16.871094 75.15625 17.144531 73.542969 19.257812 C 70.339844 23.449219 64.15625 30.160156 64.15625 30.160156 C 64.15625 30.160156 59.652344 27.925781 59.25 25.066406 Z M 59.25 25.066406 " fill-opacity="1" fill-rule="nonzero"/><path fill="#e8a48d" d="M 71.109375 12.757812 C 71.109375 12.757812 72.355469 9.769531 73.269531 8.910156 C 74.179688 8.046875 74.921875 6.625 75.691406 6.726562 C 76.457031 6.832031 74.464844 11.585938 74.464844 11.585938 C 74.464844 11.585938 72.382812 14.441406 71.109375 12.757812 Z M 71.109375 12.757812 " fill-opacity="1" fill-rule="nonzero"/><path fill="#e8a48d" d="M 52.492188 24.257812 C 52.492188 24.257812 52.167969 26.710938 52.21875 28.019531 C 52.21875 28.019531 49.550781 30.121094 45.617188 29.257812 C 42.15625 28.5 42.222656 27.144531 42.222656 27.144531 C 42.222656 27.144531 42.691406 22.808594 42.832031 20.980469 L 52.492188 24.273438 Z M 52.492188 24.257812 " fill-opacity="1" fill-rule="nonzero"/><path fill="#e8a48d" d="M 50.746094 4.210938 C 45.984375 3.804688 41.792969 7.355469 41.386719 12.144531 L 41.816406 16.480469 C 42.402344 25.863281 49.8125 25.800781 49.8125 25.800781 C 54.679688 26.203125 57.554688 22.574219 57.960938 17.796875 L 58.390625 12.65625 C 59 4.601562 50.761719 4.210938 50.761719 4.210938 Z M 50.746094 4.210938 " fill-opacity="1" fill-rule="nonzero"/><path fill="#483432" d="M 57.125 16.441406 C 57.132812 16.621094 57.078125 16.777344 56.96875 16.910156 C 56.855469 17.039062 56.714844 17.109375 56.550781 17.117188 C 56.386719 17.121094 56.242188 17.0625 56.121094 16.9375 C 56 16.816406 55.9375 16.664062 55.929688 16.484375 C 55.921875 16.304688 55.976562 16.148438 56.089844 16.015625 C 56.203125 15.886719 56.339844 15.816406 56.503906 15.8125 C 56.671875 15.804688 56.8125 15.863281 56.933594 15.988281 C 57.054688 16.109375 57.121094 16.261719 57.125 16.441406 Z M 57.125 16.441406 " fill-opacity="1" fill-rule="nonzero"/><path fill="#483432" d="M 55.265625 21.515625 C 54.785156 21.515625 54.199219 21.359375 53.664062 20.773438 C 53.585938 20.695312 53.597656 20.578125 53.664062 20.5 C 53.742188 20.421875 53.859375 20.433594 53.9375 20.5 C 54.914062 21.570312 56.070312 20.941406 56.125 20.917969 C 56.214844 20.863281 56.332031 20.902344 56.382812 20.996094 C 56.4375 21.085938 56.398438 21.203125 56.304688 21.257812 C 56.304688 21.257812 55.851562 21.503906 55.253906 21.503906 Z M 55.265625 21.515625 " fill-opacity="1" fill-rule="nonzero"/><path fill="#e8a48d" d="M 57.476562 19.832031 C 57.476562 19.832031 59.027344 19.769531 59.066406 18.761719 C 59.105469 17.757812 57.621094 17.601562 57.621094 17.601562 L 57.492188 19.832031 Z M 57.476562 19.832031 " fill-opacity="1" fill-rule="nonzero"/><path fill="#483432" d="M 58.570312 10.449219 C 57.660156 10.449219 56.4375 10.1875 55.03125 9.222656 C 54.941406 9.15625 54.914062 9.039062 54.980469 8.949219 C 55.042969 8.855469 55.160156 8.828125 55.253906 8.894531 C 58.023438 10.800781 60.03125 9.78125 60.109375 9.742188 C 60.199219 9.691406 60.316406 9.730469 60.367188 9.820312 C 60.421875 9.914062 60.382812 10.03125 60.289062 10.082031 C 60.238281 10.109375 59.613281 10.433594 58.570312 10.433594 Z M 58.570312 10.449219 " fill-opacity="1" fill-rule="nonzero"/><path fill="#483432" d="M 53.664062 8.621094 C 53.664062 8.621094 59.796875 11.726562 60.746094 6.453125 C 61.695312 1.179688 53.519531 4.351562 53.519531 4.351562 C 53.519531 4.351562 52.363281 0.175781 46.203125 4.496094 C 46.203125 4.496094 42.976562 2.132812 41.894531 5.214844 C 40.816406 8.292969 43.875 18.109375 48.066406 9.324219 C 48.066406 9.324219 50.761719 12.132812 53.652344 8.621094 Z M 53.664062 8.621094 " fill-opacity="1" fill-rule="nonzero"/><path fill="#483432" d="M 42.730469 21.910156 L 39.628906 13.6875 C 39.019531 12.378906 38.773438 10.945312 38.953125 9.507812 C 39.203125 7.617188 40.136719 6.585938 43.511719 6.324219 C 62.292969 4.808594 47.050781 21.515625 47.050781 21.515625 Z M 42.730469 21.910156 " fill-opacity="1" fill-rule="nonzero"/><path fill="#e8a48d" d="M 50.65625 13.605469 C 49.914062 13.410156 48.039062 13.789062 48.027344 16.269531 C 48.027344 18.738281 51.164062 18.789062 51.164062 18.789062 L 53.261719 15.707031 C 51.800781 13.960938 51.386719 13.816406 50.644531 13.621094 Z M 50.65625 13.605469 " fill-opacity="1" fill-rule="nonzero"/><path fill="#483432" d="M 51.488281 16.636719 C 51.386719 16.636719 51.308594 16.558594 51.292969 16.453125 C 51.203125 15.449219 50.332031 15.226562 50.332031 15.226562 C 50.226562 15.199219 50.160156 15.09375 50.1875 14.992188 C 50.214844 14.886719 50.316406 14.820312 50.421875 14.847656 C 50.8125 14.9375 51.59375 15.394531 51.683594 16.414062 C 51.683594 16.519531 51.621094 16.609375 51.515625 16.621094 C 51.515625 16.621094 51.515625 16.621094 51.503906 16.621094 Z M 51.488281 16.636719 " fill-opacity="1" fill-rule="nonzero"/><path fill="#f4ebe4" d="M 47.597656 5.371094 C 47.53125 5.371094 47.480469 5.34375 47.441406 5.292969 C 47.375 5.203125 47.402344 5.082031 47.492188 5.019531 C 49.109375 3.871094 50.421875 3.464844 51.398438 3.804688 C 52.285156 4.117188 52.53125 4.941406 52.542969 4.980469 C 52.570312 5.082031 52.519531 5.1875 52.414062 5.214844 C 52.308594 5.242188 52.207031 5.1875 52.179688 5.082031 C 52.179688 5.058594 51.972656 4.40625 51.269531 4.171875 C 50.433594 3.882812 49.210938 4.289062 47.726562 5.34375 C 47.6875 5.371094 47.648438 5.382812 47.609375 5.382812 Z M 47.597656 5.371094 " fill-opacity="1" fill-rule="nonzero"/><path fill="#483432" d="M 50.550781 25.996094 C 49.277344 25.996094 47.375 25.761719 45.566406 24.585938 C 45.476562 24.53125 45.449219 24.402344 45.515625 24.3125 C 45.566406 24.21875 45.695312 24.195312 45.789062 24.257812 C 48.652344 26.125 51.90625 25.5 51.945312 25.5 C 52.050781 25.472656 52.152344 25.550781 52.167969 25.65625 C 52.191406 25.761719 52.113281 25.863281 52.011719 25.878906 C 51.957031 25.878906 51.398438 25.996094 50.550781 25.996094 Z M 50.550781 25.996094 " fill-opacity="1" fill-rule="nonzero"/><g clip-path="url(#01375ffcf0)"><path fill="#5f75bc" d="M 62.125 34.308594 C 62.125 34.308594 59.652344 28.632812 49.210938 26.960938 C 41.011719 25.65625 35.804688 27.742188 34.382812 29.414062 C 32.964844 31.085938 30.035156 35.066406 31.078125 44.375 C 32.121094 53.679688 32.289062 59.75 30.675781 65.402344 C 29.058594 71.054688 30.207031 78 30.207031 78 C 30.207031 78 45.996094 79.851562 50.734375 79.484375 C 55.460938 79.121094 59.78125 77.644531 59.78125 77.644531 C 59.78125 77.644531 59.730469 58.941406 59.5625 55.3125 C 59.390625 51.695312 62.136719 34.285156 62.136719 34.285156 Z M 62.125 34.308594 " fill-opacity="1" fill-rule="nonzero"/></g><path fill="#e8a48d" d="M 73.671875 48.261719 C 73.671875 48.261719 74.699219 45.980469 75 45.457031 C 75.546875 44.53125 75.859375 42.414062 76.144531 41.828125 C 76.433594 41.242188 77.992188 41.996094 77.757812 43.445312 C 77.640625 44.125 77.539062 45.875 77.539062 45.875 C 77.539062 45.875 79.035156 46.488281 81.25 46.789062 C 83.472656 47.089844 87.667969 47.402344 87.691406 48.460938 C 87.71875 49.515625 82.5625 48.980469 82.5625 48.980469 C 82.5625 48.980469 89.332031 50.261719 88.71875 51.5 C 88.355469 52.246094 82.40625 50.953125 82.40625 50.953125 C 82.40625 50.953125 88.5 52.308594 87.898438 53.484375 C 87.300781 54.660156 81.132812 52.765625 81.132812 52.765625 C 81.132812 52.765625 86.324219 54.660156 85.648438 55.898438 C 84.972656 57.140625 80.804688 54.644531 79.984375 54.515625 C 79.164062 54.386719 75.261719 54.855469 74.0625 53.445312 C 72.863281 52.035156 73.191406 49.765625 73.644531 48.238281 Z M 73.671875 48.261719 " fill-opacity="1" fill-rule="nonzero"/><path fill="#e8a48d" d="M 63.570312 60.207031 C 63.570312 60.207031 57.894531 62.699219 56.527344 58.886719 C 55.640625 56.433594 57.152344 53.261719 60.601562 51.800781 C 62.359375 51.054688 70.730469 48.328125 74.660156 46.867188 C 76.730469 46.097656 82.785156 48.578125 77.40625 52.375 C 74.648438 54.320312 67.566406 58.667969 63.570312 60.207031 Z M 63.570312 60.207031 " fill-opacity="1" fill-rule="nonzero"/><path fill="#e8a48d" d="M 59.222656 39.046875 C 61.785156 38.890625 62.632812 41.421875 62.957031 42.402344 C 63.675781 44.53125 63.894531 48.417969 63.804688 51.773438 C 63.726562 55.117188 63.425781 58.144531 60.941406 59.972656 C 55.746094 63.824219 53.222656 53.746094 55.109375 44.699219 C 55.929688 40.746094 57.269531 39.164062 59.210938 39.046875 Z M 59.222656 39.046875 " fill-opacity="1" fill-rule="nonzero"/><path fill="#5f75bc" d="M 64.390625 48.5625 C 64.390625 48.5625 59.457031 50.992188 53.886719 48.941406 C 53.886719 48.941406 53.144531 40.652344 53.417969 38.5 C 54.160156 32.574219 60.746094 29.023438 62.90625 36.070312 C 62.90625 36.070312 64.351562 40.378906 64.390625 48.5625 Z M 64.390625 48.5625 " fill-opacity="1" fill-rule="nonzero"/><g clip-path="url(#022b76e7dd)"><path fill="#5f75bc" d="M 31.324219 76.824219 C 31.324219 76.824219 30.972656 80.4375 31.546875 87.433594 C 31.546875 87.433594 36.585938 89.617188 47.050781 88.960938 C 56.214844 88.386719 58.53125 88.363281 58.53125 88.363281 C 58.53125 88.363281 58.648438 78.273438 58.53125 77.226562 C 58.414062 76.183594 31.3125 76.824219 31.3125 76.824219 Z M 31.324219 76.824219 " fill-opacity="1" fill-rule="nonzero"/></g><path fill="#483432" d="M 49.054688 79.761719 C 48.222656 79.761719 47.335938 79.734375 46.414062 79.667969 C 39.382812 79.160156 31.714844 78.363281 31.636719 78.363281 C 31.535156 78.363281 31.457031 78.257812 31.46875 78.15625 C 31.480469 78.050781 31.574219 77.972656 31.675781 77.984375 C 31.753906 77.984375 39.421875 78.78125 46.4375 79.289062 C 53.417969 79.800781 58.089844 78.128906 58.128906 78.101562 C 58.234375 78.0625 58.335938 78.117188 58.375 78.21875 C 58.414062 78.324219 58.363281 78.429688 58.257812 78.46875 C 58.21875 78.480469 54.628906 79.773438 49.054688 79.773438 Z M 49.054688 79.761719 " fill-opacity="1" fill-rule="nonzero"/><path fill="#483432" d="M 39.578125 88.84375 C 39.5 88.84375 39.421875 88.792969 39.394531 88.703125 C 39.394531 88.675781 38.667969 86.117188 38.070312 84.316406 C 37.808594 84.121094 36.558594 83.179688 35.542969 82.359375 C 35.464844 82.292969 35.453125 82.175781 35.515625 82.082031 C 35.582031 82.003906 35.699219 81.992188 35.789062 82.058594 C 36.921875 82.972656 38.34375 84.042969 38.355469 84.042969 C 38.382812 84.066406 38.40625 84.09375 38.421875 84.132812 C 39.019531 85.949219 39.761719 88.570312 39.773438 88.597656 C 39.800781 88.703125 39.746094 88.804688 39.644531 88.832031 C 39.628906 88.832031 39.605469 88.832031 39.589844 88.832031 Z M 39.578125 88.84375 " fill-opacity="1" fill-rule="nonzero"/><path fill="#483432" d="M 53.859375 48.757812 C 53.769531 48.757812 53.675781 48.695312 53.664062 48.589844 C 53.664062 48.5625 53.324219 46.097656 53.351562 43.066406 C 53.390625 38.984375 54.042969 35.890625 55.277344 33.878906 C 55.332031 33.789062 55.449219 33.761719 55.539062 33.8125 C 55.628906 33.867188 55.65625 33.984375 55.601562 34.074219 C 52.726562 38.746094 54.042969 48.433594 54.054688 48.539062 C 54.066406 48.640625 53.988281 48.746094 53.886719 48.757812 C 53.886719 48.757812 53.871094 48.757812 53.859375 48.757812 Z M 53.859375 48.757812 " fill-opacity="1" fill-rule="nonzero"/><path fill="#483432" d="M 43.628906 63.234375 C 43.574219 63.234375 43.535156 63.222656 43.496094 63.183594 C 37.367188 57.308594 33.667969 49.125 33.628906 49.035156 C 33.589844 48.941406 33.628906 48.824219 33.722656 48.773438 C 33.8125 48.71875 33.929688 48.773438 33.980469 48.863281 C 34.019531 48.941406 37.691406 57.074219 43.757812 62.882812 C 43.835938 62.960938 43.835938 63.078125 43.757812 63.15625 C 43.71875 63.195312 43.667969 63.222656 43.613281 63.222656 Z M 43.628906 63.234375 " fill-opacity="1" fill-rule="nonzero"/><path fill="#483432" d="M 39.058594 62.21875 C 39.007812 62.21875 38.941406 62.191406 38.902344 62.140625 C 37.378906 60.234375 36.15625 57.636719 35.414062 55.78125 C 34.605469 53.785156 34.148438 52.207031 34.136719 52.191406 C 34.109375 52.085938 34.164062 51.984375 34.265625 51.957031 C 34.371094 51.929688 34.476562 51.984375 34.5 52.085938 C 34.515625 52.152344 36.324219 58.3125 39.1875 61.902344 C 39.253906 61.980469 39.242188 62.113281 39.164062 62.179688 C 39.125 62.203125 39.085938 62.21875 39.046875 62.21875 Z M 39.058594 62.21875 " fill-opacity="1" fill-rule="nonzero"/><path fill="#483432" d="M 63.636719 54.710938 C 63.636719 54.710938 63.636719 54.710938 63.621094 54.710938 C 63.519531 54.710938 63.441406 54.605469 63.453125 54.503906 C 63.621094 52.582031 63.636719 51.042969 63.636719 51.015625 C 63.636719 50.914062 63.726562 50.820312 63.832031 50.820312 C 63.933594 50.820312 64.027344 50.914062 64.027344 51.015625 C 64.027344 51.03125 64.027344 52.597656 63.84375 54.527344 C 63.84375 54.632812 63.753906 54.710938 63.648438 54.710938 Z M 63.636719 54.710938 " fill-opacity="1" fill-rule="nonzero"/><path fill="#483432" d="M 79.425781 14.914062 C 79.386719 14.914062 79.359375 14.914062 79.335938 14.886719 C 78.917969 14.636719 75.363281 12.757812 75.324219 12.746094 C 75.261719 12.707031 75.207031 12.628906 75.222656 12.550781 C 75.222656 12.550781 75.363281 11.285156 74.84375 10.449219 C 74.804688 10.382812 74.804688 10.316406 74.84375 10.253906 C 75.183594 9.625 75.964844 7.824219 75.597656 7.042969 C 75.574219 6.988281 75.546875 6.976562 75.546875 6.976562 C 75.066406 6.976562 73.554688 8.894531 71.835938 11.675781 C 71.785156 11.765625 71.667969 11.792969 71.578125 11.742188 C 71.484375 11.6875 71.460938 11.570312 71.511719 11.480469 C 74.035156 7.394531 75.117188 6.570312 75.585938 6.597656 C 75.753906 6.597656 75.898438 6.714844 75.976562 6.886719 C 76.433594 7.890625 75.496094 9.875 75.261719 10.34375 C 75.691406 11.128906 75.675781 12.105469 75.652344 12.472656 C 76.277344 12.796875 79.164062 14.339844 79.554688 14.558594 C 79.648438 14.613281 79.6875 14.730469 79.621094 14.820312 C 79.582031 14.886719 79.515625 14.914062 79.453125 14.914062 Z M 79.425781 14.914062 " fill-opacity="1" fill-rule="nonzero"/><path fill="#483432" d="M 77.484375 7.433594 C 77.460938 7.433594 77.421875 7.433594 77.394531 7.40625 C 77.121094 7.261719 76.300781 6.886719 76.300781 6.871094 C 76.210938 6.832031 76.160156 6.714844 76.210938 6.609375 C 76.25 6.519531 76.367188 6.46875 76.472656 6.519531 C 76.511719 6.53125 77.304688 6.910156 77.578125 7.054688 C 77.667969 7.105469 77.707031 7.222656 77.65625 7.316406 C 77.617188 7.382812 77.550781 7.421875 77.484375 7.421875 Z M 77.484375 7.433594 " fill-opacity="1" fill-rule="nonzero"/><path fill="#483432" d="M 82.457031 9.625 C 82.433594 9.625 82.40625 9.625 82.382812 9.613281 C 82.238281 9.546875 79.269531 8.292969 79.140625 8.242188 C 79.035156 8.203125 78.996094 8.085938 79.035156 7.996094 C 79.074219 7.890625 79.191406 7.851562 79.28125 7.890625 C 79.308594 7.902344 82.382812 9.207031 82.523438 9.261719 C 82.628906 9.300781 82.667969 9.417969 82.628906 9.507812 C 82.601562 9.585938 82.523438 9.625 82.445312 9.625 Z M 82.457031 9.625 " fill-opacity="1" fill-rule="nonzero"/><path fill="#483432" d="M 61.707031 60.988281 C 61.617188 60.988281 61.539062 60.925781 61.527344 60.847656 C 61.5 60.742188 61.566406 60.636719 61.667969 60.613281 C 61.695312 60.613281 63.699219 60.101562 65.835938 59.007812 C 65.925781 58.953125 66.042969 59.007812 66.097656 59.085938 C 66.148438 59.164062 66.097656 59.292969 66.019531 59.34375 C 63.84375 60.453125 61.785156 60.976562 61.773438 60.988281 C 61.761719 60.988281 61.746094 60.988281 61.722656 60.988281 Z M 61.707031 60.988281 " fill-opacity="1" fill-rule="nonzero"/><path fill="#483432" d="M 61.628906 26.921875 C 61.566406 26.921875 61.511719 26.894531 61.472656 26.84375 C 60.65625 25.679688 59.730469 25.09375 59.71875 25.09375 C 59.625 25.042969 59.601562 24.925781 59.652344 24.832031 C 59.703125 24.742188 59.820312 24.714844 59.914062 24.769531 C 59.953125 24.792969 60.914062 25.394531 61.785156 26.621094 C 61.851562 26.710938 61.824219 26.832031 61.734375 26.894531 C 61.695312 26.921875 61.65625 26.933594 61.617188 26.933594 Z M 61.628906 26.921875 " fill-opacity="1" fill-rule="nonzero"/></svg>