<svg xmlns="http://www.w3.org/2000/svg" xmlns:xlink="http://www.w3.org/1999/xlink" width="170" zoomAndPan="magnify" viewBox="0 0 127.5 89.999999" height="120" preserveAspectRatio="xMidYMid meet" version="1.0"><defs><clipPath id="4cfe3c71e8"><path d="M 28.035156 71 L 74 71 L 74 89.824219 L 28.035156 89.824219 Z M 28.035156 71 " clip-rule="nonzero"/></clipPath><clipPath id="bb31d0e5db"><path d="M 66 59 L 99 59 L 99 89.824219 L 66 89.824219 Z M 66 59 " clip-rule="nonzero"/></clipPath><clipPath id="122ff16444"><path d="M 28.035156 19 L 60 19 L 60 48 L 28.035156 48 Z M 28.035156 19 " clip-rule="nonzero"/></clipPath><clipPath id="7c84f58bf1"><path d="M 61 0.175781 L 94 0.175781 L 94 35 L 61 35 Z M 61 0.175781 " clip-rule="nonzero"/></clipPath><clipPath id="927d6d2021"><path d="M 32 76 L 35 76 L 35 89.824219 L 32 89.824219 Z M 32 76 " clip-rule="nonzero"/></clipPath><clipPath id="2dae619a31"><path d="M 61 78 L 62 78 L 62 89.824219 L 61 89.824219 Z M 61 78 " clip-rule="nonzero"/></clipPath></defs><path fill="#f6b593" d="M 60.964844 54.921875 C 61.148438 55.027344 61.316406 55.15625 61.492188 55.273438 C 61.519531 55.507812 61.351562 55.589844 61.179688 55.597656 C 60.675781 55.621094 60.191406 55.769531 59.683594 55.746094 C 59.554688 55.699219 59.429688 55.617188 59.285156 55.640625 C 57.859375 55.871094 56.496094 55.4375 55.109375 55.269531 C 54.480469 54.417969 54.0625 53.476562 53.941406 52.417969 C 54.003906 52.328125 54.066406 52.234375 54.128906 52.144531 C 54.246094 51.976562 54.363281 51.804688 54.484375 51.640625 C 54.554688 51.539062 54.636719 51.429688 54.78125 51.460938 C 54.925781 51.496094 60 54.371094 60.964844 54.921875 Z M 60.964844 54.921875 " fill-opacity="1" fill-rule="nonzero"/><path fill="#e48563" d="M 55.511719 55.371094 L 54.128906 52.144531 L 53.941406 52.351562 L 53.738281 52.984375 L 54.5625 55.273438 Z M 55.511719 55.371094 " fill-opacity="1" fill-rule="nonzero"/><path fill="#f6b593" d="M 31.617188 41.464844 C 31.519531 41.222656 31.488281 40.941406 31.277344 40.746094 C 30.570312 37.804688 30.894531 35.054688 32.796875 32.597656 C 33.585938 31.582031 33.710938 31.609375 34.359375 32.703125 C 35.246094 34.195312 36.542969 35.242188 38.089844 36 C 40.375 37.113281 42.789062 37.265625 45.253906 36.890625 C 46.210938 36.746094 46.910156 37.074219 47.488281 37.792969 C 47.855469 38.25 48.140625 38.765625 48.496094 39.226562 C 48.613281 39.378906 48.734375 39.585938 48.953125 39.539062 C 49.160156 39.492188 49.128906 39.25 49.167969 39.085938 C 49.304688 38.472656 49.539062 37.910156 49.929688 37.40625 C 50.890625 36.171875 52.617188 36.230469 53.480469 37.535156 C 54.074219 38.425781 54.09375 39.421875 53.902344 40.40625 C 53.644531 41.738281 53.035156 42.882812 51.730469 43.503906 C 51.402344 43.660156 51.390625 43.90625 51.457031 44.214844 C 51.691406 45.34375 51.953125 46.460938 52.429688 47.519531 C 52.402344 47.621094 52.335938 47.734375 52.359375 47.816406 C 52.816406 49.304688 53.21875 50.8125 53.8125 52.257812 C 53.839844 52.316406 53.898438 52.363281 53.941406 52.417969 C 54.226562 53.167969 54.453125 53.941406 54.839844 54.652344 C 54.945312 54.851562 55.042969 55.058594 55.21875 55.210938 C 55.835938 55.453125 56.5 55.4375 57.128906 55.605469 C 57.25 55.636719 57.375 55.644531 57.492188 55.675781 C 57.597656 55.699219 57.726562 55.714844 57.757812 55.824219 C 57.800781 55.972656 57.664062 56.042969 57.5625 56.097656 C 57.050781 56.382812 56.527344 56.644531 56.019531 56.933594 C 54.117188 58.003906 52.796875 59.609375 51.742188 61.46875 C 51.628906 61.671875 51.539062 61.882812 51.472656 62.105469 C 51.386719 62.410156 51.394531 62.671875 51.769531 62.773438 C 52.082031 62.859375 52.113281 63.046875 52.035156 63.34375 C 51.839844 64.058594 52.050781 64.261719 52.78125 64.085938 C 52.957031 64.046875 53.128906 63.996094 53.296875 64.089844 C 53.925781 64.449219 54.5 64.265625 55.035156 63.898438 C 55.429688 63.628906 55.765625 63.363281 56.242188 63.777344 C 56.441406 63.949219 56.753906 63.851562 57.007812 63.753906 C 57.507812 63.566406 57.976562 63.320312 58.425781 63.03125 C 59.257812 62.492188 60.136719 62.03125 61.058594 61.65625 C 61.707031 61.386719 62.363281 61.210938 63.070312 61.414062 C 64.152344 61.722656 65.273438 61.710938 66.382812 61.777344 C 67.03125 62.058594 67.648438 62.402344 68.257812 62.761719 C 69.445312 63.46875 70.195312 64.558594 70.8125 65.738281 C 71.632812 67.300781 72.054688 69 72.347656 70.730469 C 72.398438 71.007812 72.421875 71.296875 72.222656 71.542969 C 71.777344 71.898438 71.226562 71.996094 70.699219 72.140625 C 68.816406 72.65625 66.890625 72.96875 64.949219 73.183594 C 62.132812 73.496094 59.304688 73.644531 56.46875 73.75 C 54.078125 73.832031 51.683594 73.863281 49.292969 73.808594 C 43.886719 73.683594 38.496094 73.359375 33.183594 72.246094 C 32.46875 72.09375 31.765625 71.917969 31.066406 71.71875 C 30.792969 71.644531 30.511719 71.574219 30.332031 71.324219 C 30.503906 69.863281 30.785156 68.429688 31.421875 67.089844 C 32.304688 65.234375 33.824219 64.070312 35.65625 63.261719 C 36.351562 62.953125 37.058594 62.679688 37.761719 62.390625 C 38.414062 63.886719 39.46875 64.859375 41.160156 65.078125 C 42.308594 65.226562 43.367188 65.703125 44.429688 66.148438 C 43.953125 65.914062 43.457031 65.738281 42.960938 65.554688 C 42.777344 65.488281 42.566406 65.421875 42.621094 65.160156 C 42.667969 64.933594 42.796875 64.792969 43.070312 64.8125 C 43.449219 64.84375 43.605469 64.617188 43.617188 64.265625 C 43.621094 64.035156 43.625 63.804688 43.613281 63.574219 C 43.605469 63.40625 43.636719 63.226562 43.8125 63.179688 C 44.425781 63.007812 44.382812 62.546875 44.324219 62.074219 C 44.253906 61.476562 44.144531 60.882812 43.992188 60.300781 C 43.894531 59.929688 43.875 59.566406 44.140625 59.246094 C 43.382812 59.148438 43.863281 58.527344 43.65625 58.207031 C 43.648438 58.984375 43.863281 59.75 44.035156 60.519531 C 44.164062 61.070312 44.253906 61.628906 44.339844 62.1875 C 44.359375 62.328125 44.371094 62.472656 44.332031 62.609375 C 44.265625 62.835938 44.191406 63.0625 43.921875 63.117188 C 43.660156 63.171875 43.464844 63.042969 43.339844 62.832031 C 42.53125 61.5 41.714844 60.167969 41.675781 58.539062 C 41.699219 60.035156 42.386719 61.296875 43.140625 62.523438 C 43.46875 63.058594 43.660156 63.597656 43.621094 64.222656 C 43.605469 64.453125 43.546875 64.644531 43.335938 64.753906 C 43.109375 64.867188 42.925781 64.738281 42.75 64.617188 C 42.632812 64.535156 42.539062 64.429688 42.453125 64.316406 C 41.972656 63.679688 41.492188 63.046875 41.035156 62.394531 C 40.558594 61.710938 40.261719 60.96875 40.1875 60.191406 C 40.347656 61.359375 40.539062 61.78125 41.539062 63.125 C 41.875 63.582031 42.238281 64.015625 42.542969 64.492188 C 42.671875 64.691406 42.679688 64.898438 42.507812 65.078125 C 42.332031 65.269531 42.136719 65.238281 41.925781 65.140625 C 40.980469 64.703125 39.128906 62.472656 38.863281 61.40625 C 39 62.378906 39.652344 62.984375 40.222656 63.640625 C 40.410156 63.851562 40.644531 64.023438 40.804688 64.257812 C 41 64.546875 40.902344 64.773438 40.5625 64.839844 C 40.265625 64.898438 40.007812 64.785156 39.753906 64.648438 C 38.8125 64.140625 38.167969 63.371094 37.761719 62.386719 C 37.65625 61.664062 37.878906 61.039062 38.3125 60.457031 C 39.167969 59.316406 39.941406 58.09375 41.347656 57.511719 C 41.453125 57.46875 41.542969 57.363281 41.609375 57.261719 C 42.054688 56.5625 42.679688 56.398438 43.449219 56.609375 C 43.566406 56.640625 43.699219 56.621094 43.8125 56.660156 C 44.148438 56.777344 44.15625 56.570312 44.144531 56.339844 C 44.191406 56.160156 44.34375 56.101562 44.484375 56.023438 C 46.054688 55.171875 47.191406 53.875 48.136719 52.394531 C 49.226562 50.683594 49.792969 48.765625 50.175781 47.304688 C 49.996094 48.402344 49.101562 49.644531 48.03125 50.777344 C 46.910156 51.96875 45.644531 52.992188 44.226562 53.816406 C 44.011719 53.941406 43.824219 54.105469 43.605469 54.21875 C 43.503906 54.132812 43.40625 54.105469 43.269531 54.164062 C 41.078125 55.101562 39.328125 54.230469 37.691406 52.824219 C 35.667969 51.089844 34.4375 48.847656 33.515625 46.402344 C 32.941406 44.882812 32.367188 43.359375 31.710938 41.871094 C 32.0625 41.152344 32.726562 40.9375 33.433594 40.796875 C 33.640625 40.757812 33.855469 40.757812 34.054688 40.683594 C 34.15625 40.644531 34.257812 40.589844 34.253906 40.464844 C 34.25 40.3125 34.136719 40.257812 34.011719 40.226562 C 33.871094 40.195312 33.730469 40.214844 33.589844 40.242188 C 32.949219 40.378906 32.398438 40.671875 31.972656 41.179688 C 31.875 41.296875 31.808594 41.457031 31.617188 41.464844 Z M 31.617188 41.464844 " fill-opacity="1" fill-rule="nonzero"/><g clip-path="url(#4cfe3c71e8)"><path fill="#80b2ae" d="M 30.332031 71.324219 C 33.023438 72.164062 35.785156 72.613281 38.578125 72.9375 C 41.683594 73.296875 44.800781 73.496094 47.929688 73.59375 C 50.371094 73.671875 52.8125 73.6875 55.253906 73.640625 C 58.257812 73.574219 61.261719 73.453125 64.246094 73.109375 C 66.683594 72.832031 69.113281 72.5 71.460938 71.742188 C 71.730469 71.65625 71.984375 71.53125 72.246094 71.425781 C 72.558594 71.507812 72.550781 71.792969 72.589844 72.019531 C 72.871094 73.570312 73.027344 75.136719 73.144531 76.707031 C 73.425781 80.449219 73.375 84.199219 73.359375 87.949219 C 73.355469 88.574219 73.394531 89.21875 73.070312 89.800781 L 61.59375 89.804688 C 61.523438 89.578125 61.546875 89.347656 61.546875 89.117188 C 61.546875 86.675781 61.566406 84.234375 61.539062 81.792969 C 61.53125 80.910156 61.480469 80.03125 61.5 79.304688 C 61.507812 79.925781 61.519531 80.699219 61.53125 81.476562 C 61.566406 84.164062 61.546875 86.855469 61.542969 89.542969 C 61.542969 89.632812 61.523438 89.71875 61.5 89.804688 C 54.328125 89.808594 47.15625 89.8125 39.984375 89.816406 C 38.140625 89.816406 36.300781 89.804688 34.457031 89.800781 C 33.402344 87.855469 32.570312 85.828125 32.433594 83.597656 C 32.355469 82.28125 32.707031 81.003906 33.054688 79.742188 C 33.320312 78.769531 33.625 77.8125 33.847656 76.828125 C 33.484375 78.339844 32.972656 79.808594 32.632812 81.328125 C 32.273438 82.960938 32.394531 84.550781 32.871094 86.132812 C 33.222656 87.289062 33.726562 88.382812 34.242188 89.464844 C 34.296875 89.578125 34.386719 89.671875 34.367188 89.808594 C 32.664062 89.808594 30.960938 89.804688 29.261719 89.816406 C 28.949219 89.820312 28.8125 89.746094 28.835938 89.402344 C 28.960938 87.40625 29.066406 85.410156 29.191406 83.414062 C 29.269531 82.179688 29.367188 80.945312 29.460938 79.710938 C 29.671875 76.90625 29.890625 74.105469 30.332031 71.324219 Z M 30.332031 71.324219 " fill-opacity="1" fill-rule="nonzero"/></g><path fill="#d2d2d0" d="M 82.402344 58.660156 C 82.691406 58.714844 82.984375 58.847656 83.28125 58.671875 C 83.328125 58.632812 83.367188 58.585938 83.394531 58.53125 C 83.621094 57.75 83.816406 56.960938 84.03125 56.179688 C 84.230469 55.453125 84.238281 55.445312 84.972656 55.535156 C 88.101562 55.910156 91.175781 56.554688 94.15625 57.601562 C 95.136719 57.941406 96.050781 58.394531 96.824219 59.105469 C 96.859375 59.027344 96.910156 58.953125 96.925781 58.871094 C 97.148438 57.679688 97.320312 56.476562 97.488281 55.273438 C 97.726562 53.582031 97.917969 51.878906 97.960938 50.175781 C 98.023438 47.917969 98.113281 45.648438 97.777344 43.398438 C 97.582031 42.101562 97.308594 40.832031 96.804688 39.617188 C 96.046875 37.796875 94.742188 36.472656 93.042969 35.519531 C 92.59375 35.269531 91.691406 34.707031 91.328125 34.542969 C 90.308594 34.09375 89.261719 33.722656 88.1875 33.425781 C 87.496094 33.230469 86.820312 32.941406 86.078125 32.996094 C 85.605469 33.425781 85.226562 33.941406 84.808594 34.417969 C 83.257812 36.183594 81.53125 37.738281 79.546875 39 C 78.542969 39.640625 77.5 40.199219 76.335938 40.492188 C 75.449219 40.714844 74.722656 40.480469 74.121094 39.746094 C 73.421875 38.890625 73.011719 37.910156 72.695312 36.871094 C 72.371094 35.796875 72.257812 34.699219 72.234375 33.585938 C 70.425781 34.128906 68.644531 34.742188 66.929688 35.542969 C 64.410156 36.722656 62.503906 38.605469 60.875 40.792969 C 58.800781 43.582031 54.179688 51.128906 54.179688 51.128906 C 54.179688 51.128906 60.375 54.726562 61.535156 55.414062 C 61.820312 55.53125 62.105469 55.582031 62.378906 55.386719 C 62.496094 55.203125 62.445312 55.011719 62.421875 54.820312 C 62.28125 53.65625 62.269531 52.496094 62.460938 51.332031 C 62.847656 49.011719 63.804688 46.832031 64.183594 44.511719 C 64.011719 45.644531 63.683594 46.742188 63.371094 47.839844 C 62.789062 49.902344 62.183594 51.960938 62.40625 54.148438 C 62.449219 54.582031 62.425781 55.03125 62.667969 55.425781 C 62.914062 55.570312 63.183594 55.539062 63.449219 55.53125 C 64.976562 55.488281 66.492188 55.648438 67.992188 55.914062 C 72.804688 56.777344 77.589844 57.792969 82.402344 58.660156 Z M 82.402344 58.660156 " fill-opacity="1" fill-rule="nonzero"/><g clip-path="url(#bb31d0e5db)"><path fill="#d2d2d0" d="M 98.6875 85.632812 C 98.246094 82.988281 97.527344 80.40625 96.863281 77.816406 C 96.0625 74.699219 95.5 71.550781 95.445312 68.328125 C 95.425781 67.128906 95.449219 65.929688 95.507812 64.726562 C 95.585938 63.035156 95.664062 61.339844 95.765625 59.648438 C 95.03125 59.523438 94.3125 59.730469 93.585938 59.746094 C 93.359375 59.84375 93.304688 60.054688 93.238281 60.253906 C 92.828125 61.445312 92.394531 62.628906 91.890625 63.78125 C 91.214844 65.328125 90.464844 66.832031 89.167969 67.984375 C 88.660156 68.4375 88.097656 68.707031 87.40625 68.746094 C 85.453125 68.867188 83.601562 68.398438 81.777344 67.808594 C 78.039062 66.601562 74.484375 64.953125 70.953125 63.253906 C 69.722656 62.664062 68.515625 62.023438 67.234375 61.546875 C 66.914062 61.546875 66.609375 61.589844 66.398438 61.875 C 66.664062 62.113281 67.011719 62.210938 67.320312 62.378906 C 68.09375 62.808594 68.878906 63.234375 69.445312 63.925781 C 71.214844 66.109375 71.984375 68.675781 72.246094 71.425781 C 72.609375 72.371094 72.625 73.382812 72.753906 74.367188 C 73.023438 76.394531 73.128906 78.441406 73.167969 80.480469 C 73.222656 83.585938 73.3125 86.699219 73.070312 89.800781 C 73.210938 89.808594 73.355469 89.824219 73.496094 89.824219 C 81.769531 89.824219 90.046875 89.820312 98.324219 89.820312 C 98.375 89.820312 98.429688 89.816406 98.480469 89.820312 C 98.78125 89.84375 98.925781 89.734375 98.957031 89.40625 C 99.089844 88.132812 98.894531 86.875 98.6875 85.632812 Z M 98.6875 85.632812 " fill-opacity="1" fill-rule="nonzero"/></g><g clip-path="url(#122ff16444)"><path fill="#3e2a28" d="M 52.355469 47.769531 C 52.101562 47.777344 51.453125 45.03125 51.242188 43.933594 C 51.191406 43.660156 51.25 43.550781 51.5 43.46875 C 53.226562 42.886719 54.410156 40.082031 53.613281 38.09375 C 53.316406 37.351562 52.824219 36.773438 51.980469 36.660156 C 51.074219 36.539062 50.40625 36.957031 49.902344 37.679688 C 49.546875 38.183594 49.394531 38.765625 49.265625 39.355469 C 49.230469 39.523438 49.257812 39.753906 49.058594 39.808594 C 48.847656 39.867188 48.710938 39.675781 48.574219 39.542969 C 48.292969 39.265625 48.089844 38.933594 47.886719 38.597656 C 47.65625 38.21875 47.40625 37.855469 47.078125 37.550781 C 46.585938 37.089844 46.046875 36.910156 45.335938 37.023438 C 42.183594 37.511719 39.183594 37.140625 36.515625 35.230469 C 35.40625 34.433594 34.484375 33.457031 33.925781 32.191406 C 33.769531 31.839844 33.648438 31.882812 33.421875 32.117188 C 31.570312 34.007812 30.960938 36.3125 31.113281 38.890625 C 31.148438 39.511719 31.386719 40.113281 31.277344 40.746094 C 31.164062 40.636719 31.039062 40.535156 30.941406 40.410156 C 29.949219 39.148438 29.09375 37.773438 28.4375 36.335938 C 27.464844 34.21875 28.339844 31.921875 30.363281 30.289062 C 32.390625 28.652344 34.554688 27.207031 36.660156 25.683594 C 38.300781 24.496094 40.078125 23.601562 42.117188 23.328125 C 43.78125 23.101562 45.398438 23.34375 46.996094 23.886719 C 47.105469 23.308594 47.226562 22.757812 47.453125 22.234375 C 48.707031 19.378906 52.199219 18.878906 54.183594 21.277344 C 54.335938 21.460938 54.511719 21.585938 54.71875 21.699219 C 55.984375 22.40625 56.996094 23.375 57.714844 24.636719 C 58.117188 25.34375 58.519531 26.050781 58.898438 26.761719 C 60.296875 29.402344 58.988281 32.097656 56.0625 32.578125 C 55.535156 32.664062 55.527344 32.800781 55.746094 33.21875 C 56.449219 34.574219 57.023438 35.980469 57.375 37.472656 C 58.109375 40.613281 57.128906 43.15625 54.660156 45.15625 C 53.804688 45.847656 52.796875 46.699219 52.355469 47.769531 Z M 52.355469 47.769531 " fill-opacity="1" fill-rule="nonzero"/></g><path fill="#f6b593" d="M 86.074219 33.070312 C 85.734375 33.71875 85.195312 34.21875 84.710938 34.742188 C 82.558594 37.070312 80.203125 39.136719 77.214844 40.351562 C 75.476562 41.058594 74.582031 40.816406 73.578125 39.226562 C 72.574219 37.636719 72.15625 35.859375 72.128906 33.988281 C 72.125 33.839844 72.164062 33.710938 72.234375 33.585938 C 73.515625 33.363281 73.453125 32.40625 73.40625 31.457031 C 74.496094 31.011719 75.480469 30.402344 76.382812 29.652344 C 77.71875 28.546875 78.734375 27.203125 79.40625 25.613281 C 79.742188 24.816406 80.125 24.035156 80.289062 23.132812 C 79.972656 24.285156 79.492188 25.285156 78.671875 26.136719 C 77.296875 27.566406 75.6875 28.625 73.851562 29.339844 C 73.507812 29.472656 73.464844 29.761719 73.289062 29.980469 C 73.246094 29.542969 73.027344 29.46875 72.601562 29.53125 C 70.441406 29.851562 69.042969 28.601562 67.78125 27.113281 C 66.292969 25.359375 65.558594 23.238281 64.914062 21.085938 C 64.523438 19.769531 64.203125 18.433594 63.855469 17.109375 C 64.578125 16.617188 65.363281 16.347656 66.246094 16.429688 C 66.300781 16.433594 66.355469 16.429688 66.40625 16.421875 C 66.546875 16.398438 66.710938 16.378906 66.714844 16.195312 C 66.714844 16.011719 66.550781 15.984375 66.40625 15.972656 C 65.609375 15.90625 64.910156 16.128906 64.308594 16.667969 C 64.171875 16.792969 64.085938 16.996094 63.855469 16.996094 L 63.726562 16.789062 C 62.988281 13.457031 63.90625 10.636719 66.351562 8.289062 C 66.769531 7.886719 66.980469 7.941406 67.289062 8.484375 C 68.863281 11.238281 71.148438 13.105469 74.175781 14.066406 C 75.332031 14.4375 76.53125 14.582031 77.734375 14.601562 C 78.34375 14.613281 78.695312 14.859375 78.921875 15.378906 C 79.070312 15.722656 79.214844 16.066406 79.429688 16.371094 C 79.519531 16.5 79.585938 16.691406 79.773438 16.660156 C 79.925781 16.632812 79.949219 16.449219 79.988281 16.320312 C 80.125 15.894531 80.324219 15.5 80.585938 15.140625 C 81.40625 13.992188 83.382812 13.910156 84.046875 15.5 C 84.710938 17.082031 84.292969 18.4375 83.289062 19.695312 C 82.851562 20.238281 82.3125 20.675781 81.621094 20.871094 C 81.316406 20.957031 81.261719 21.136719 81.292969 21.429688 C 81.550781 23.828125 81.988281 26.191406 82.488281 28.546875 C 82.695312 29.519531 82.914062 30.484375 83.320312 31.398438 C 83.519531 31.847656 83.832031 32.140625 84.296875 32.304688 C 84.714844 32.449219 85.128906 32.605469 85.550781 32.75 C 85.746094 32.816406 85.96875 32.851562 86.074219 33.070312 Z M 86.074219 33.070312 " fill-opacity="1" fill-rule="nonzero"/><g clip-path="url(#7c84f58bf1)"><path fill="#3e2a28" d="M 86.074219 33.070312 C 85.488281 32.867188 84.910156 32.644531 84.316406 32.464844 C 83.683594 32.273438 83.3125 31.847656 83.089844 31.246094 C 82.597656 29.929688 82.3125 28.558594 82.058594 27.183594 C 81.691406 25.234375 81.332031 23.285156 81.125 21.3125 C 81.085938 20.941406 81.167969 20.835938 81.507812 20.742188 C 83.433594 20.195312 84.691406 17.800781 84.058594 15.898438 C 83.804688 15.132812 83.367188 14.523438 82.492188 14.421875 C 81.597656 14.320312 80.96875 14.757812 80.515625 15.496094 C 80.28125 15.875 80.132812 16.292969 80.011719 16.71875 C 79.917969 17.042969 79.761719 17.023438 79.570312 16.8125 C 79.265625 16.480469 79.0625 16.085938 78.910156 15.671875 C 78.660156 14.996094 78.25 14.734375 77.480469 14.707031 C 72.882812 14.546875 69.410156 12.460938 67.132812 8.449219 C 66.910156 8.058594 66.773438 8.089844 66.488281 8.355469 C 64.253906 10.417969 63.339844 12.957031 63.695312 15.96875 C 63.726562 16.234375 63.882812 16.507812 63.730469 16.785156 C 61.675781 14.546875 60.8125 11.96875 61.605469 8.96875 C 62.007812 7.453125 62.96875 6.308594 64.234375 5.410156 C 64.519531 5.203125 64.800781 4.996094 65.023438 4.707031 C 67.832031 1.054688 71.535156 -0.351562 76.066406 0.347656 C 77.296875 0.539062 78.492188 0.859375 79.628906 1.378906 C 81.660156 2.3125 83.171875 3.777344 84.066406 5.824219 C 85.738281 9.648438 86.332031 13.589844 85.222656 17.6875 C 84.898438 18.878906 84.355469 19.96875 83.574219 20.929688 C 83.324219 21.234375 83.363281 21.398438 83.605469 21.667969 C 84.519531 22.691406 85.605469 23.460938 86.859375 24.007812 C 87.863281 24.445312 88.890625 24.835938 89.835938 25.402344 C 91.824219 26.589844 92.960938 28.328125 93.238281 30.628906 C 93.25 30.753906 93.253906 30.875 93.25 31 C 93.246094 31.074219 93.191406 31.132812 93.113281 31.132812 C 93.03125 31.132812 92.992188 31.070312 92.984375 30.996094 C 92.960938 30.820312 92.941406 30.644531 92.914062 30.46875 C 92.617188 28.476562 91.597656 26.949219 89.914062 25.855469 C 88.996094 25.257812 87.996094 24.828125 86.925781 24.496094 C 87.121094 24.644531 87.308594 24.804688 87.511719 24.941406 C 90.832031 27.230469 92.4375 30.367188 92.226562 34.40625 C 92.179688 34.59375 92.132812 34.777344 92.082031 34.984375 C 91.277344 34.671875 90.484375 34.347656 89.679688 34.058594 C 88.503906 33.636719 87.316406 33.253906 86.074219 33.070312 Z M 86.074219 33.070312 " fill-opacity="1" fill-rule="nonzero"/></g><path fill="#e48563" d="M 43.605469 54.21875 C 43.613281 53.980469 43.796875 53.910156 43.96875 53.8125 C 45.960938 52.675781 47.648438 51.195312 49.035156 49.371094 C 49.589844 48.640625 49.917969 47.804688 50.109375 46.914062 C 50.148438 46.730469 50.164062 46.539062 50.332031 46.355469 C 50.492188 46.578125 50.449219 46.808594 50.394531 47.015625 C 49.792969 49.3125 49.042969 51.550781 47.554688 53.460938 C 46.621094 54.664062 45.550781 55.695312 44.144531 56.339844 C 43.964844 55.632812 43.785156 54.925781 43.605469 54.21875 Z M 43.605469 54.21875 " fill-opacity="1" fill-rule="nonzero"/><path fill="#e48563" d="M 72.875 29.511719 C 72.875 29.511719 77.058594 27.925781 78.992188 25.59375 C 79.5625 24.929688 79.890625 24.121094 80.113281 23.273438 C 80.15625 23.105469 80.175781 22.929688 80.324219 22.769531 C 80.496094 22.964844 80.4375 23.167969 80.382812 23.359375 C 79.449219 26.71875 77.621094 29.40625 74.503906 31.105469 C 74.171875 31.289062 73.820312 31.488281 73.40625 31.457031 C 73.386719 30.863281 72.875 29.511719 72.875 29.511719 Z M 72.875 29.511719 " fill-opacity="1" fill-rule="nonzero"/><g clip-path="url(#927d6d2021)"><path fill="#4a8a84" d="M 33 86.007812 C 32.707031 84.972656 32.480469 83.910156 32.582031 82.828125 C 32.714844 81.457031 33.0625 80.128906 33.472656 78.8125 C 33.679688 78.140625 33.839844 77.453125 34.015625 76.769531 C 34.050781 76.636719 34.082031 76.460938 33.90625 76.40625 C 33.773438 76.367188 33.746094 76.507812 33.726562 76.609375 C 33.503906 77.773438 33.09375 78.882812 32.792969 80.023438 C 32.480469 81.21875 32.183594 82.429688 32.257812 83.667969 C 32.332031 84.90625 32.628906 86.113281 33.109375 87.253906 C 33.480469 88.125 33.734375 89.0625 34.367188 89.808594 L 34.414062 89.816406 L 34.457031 89.800781 C 34.460938 89.488281 34.324219 89.21875 34.183594 88.953125 C 33.683594 88.015625 33.292969 87.027344 33 86.007812 Z M 33 86.007812 " fill-opacity="1" fill-rule="nonzero"/></g><g clip-path="url(#2dae619a31)"><path fill="#4a8a84" d="M 61.601562 79.070312 C 61.597656 78.976562 61.632812 78.84375 61.46875 78.832031 C 61.328125 78.9375 61.382812 79.089844 61.382812 79.21875 C 61.382812 82.578125 61.386719 85.9375 61.390625 89.296875 C 61.390625 89.476562 61.390625 89.652344 61.5 89.804688 L 61.546875 89.8125 L 61.59375 89.804688 C 61.691406 89.667969 61.703125 89.511719 61.703125 89.347656 C 61.707031 85.921875 61.722656 82.496094 61.601562 79.070312 Z M 61.601562 79.070312 " fill-opacity="1" fill-rule="nonzero"/></g><path fill="#3e2a28" d="M 31.617188 41.464844 C 32.09375 40.636719 32.832031 40.203125 33.753906 40.078125 C 34.042969 40.035156 34.410156 39.992188 34.449219 40.433594 C 34.488281 40.851562 34.140625 40.855469 33.867188 40.871094 C 33.011719 40.917969 32.289062 41.238281 31.710938 41.871094 C 31.578125 41.761719 31.597656 41.613281 31.617188 41.464844 Z M 31.617188 41.464844 " fill-opacity="1" fill-rule="nonzero"/><path fill="#3e2a28" d="M 63.855469 16.996094 C 64.484375 16.105469 65.363281 15.761719 66.425781 15.808594 C 66.679688 15.820312 66.949219 15.851562 66.929688 16.203125 C 66.910156 16.546875 66.664062 16.574219 66.394531 16.554688 C 65.558594 16.496094 64.769531 16.628906 64.085938 17.148438 C 63.984375 17.222656 63.925781 17.152344 63.855469 17.105469 C 63.855469 17.070312 63.855469 17.035156 63.855469 16.996094 Z M 63.855469 16.996094 " fill-opacity="1" fill-rule="nonzero"/><path fill="#e48563" d="M 55.109375 55.269531 C 55.734375 55.0625 56.308594 55.417969 56.914062 55.425781 C 57.648438 55.4375 58.367188 55.710938 59.113281 55.503906 C 59.285156 55.460938 59.589844 55.328125 59.675781 55.691406 C 59.160156 56.03125 58.527344 55.996094 57.972656 56.234375 C 55.941406 57.097656 54.203125 58.328125 52.910156 60.136719 C 52.496094 60.714844 52.105469 61.304688 51.8125 61.953125 C 51.742188 62.101562 51.585938 62.285156 51.820312 62.414062 C 52.003906 62.511719 52.160156 62.386719 52.277344 62.246094 C 52.675781 61.769531 53.011719 61.246094 53.398438 60.761719 C 54.214844 59.738281 55.207031 58.921875 56.300781 58.21875 C 56.675781 57.976562 57.023438 57.703125 57.386719 57.449219 C 57.535156 57.347656 57.722656 57.234375 57.863281 57.40625 C 58.035156 57.613281 57.839844 57.773438 57.6875 57.882812 C 56.921875 58.425781 56.125 58.921875 55.402344 59.527344 C 54.207031 60.523438 53.234375 61.710938 52.445312 63.046875 C 52.320312 63.261719 52.066406 63.558594 52.324219 63.757812 C 52.640625 64.007812 52.921875 63.726562 53.128906 63.476562 C 53.648438 62.851562 54.199219 62.25 54.722656 61.625 C 55.832031 60.296875 57.273438 59.394531 58.707031 58.476562 C 58.855469 58.378906 59.050781 58.300781 59.171875 58.507812 C 59.269531 58.675781 59.125 58.808594 59.003906 58.910156 C 58.789062 59.09375 58.550781 59.253906 58.304688 59.390625 C 56.46875 60.410156 55.101562 61.9375 53.796875 63.535156 C 53.707031 63.644531 53.589844 63.761719 53.699219 63.910156 C 53.808594 64.0625 53.984375 64.046875 54.136719 64 C 54.847656 63.78125 55.445312 63.378906 55.980469 62.875 C 56.625 62.269531 57.203125 61.597656 57.90625 61.046875 C 58.59375 60.511719 59.371094 60.117188 60.128906 59.695312 C 60.296875 59.601562 60.546875 59.433594 60.679688 59.707031 C 60.804688 59.960938 60.558594 60.089844 60.367188 60.175781 C 59.101562 60.738281 58.039062 61.582031 57.035156 62.519531 C 56.945312 62.605469 56.84375 62.683594 56.777344 62.785156 C 56.621094 63.019531 56.191406 63.21875 56.414062 63.507812 C 56.613281 63.773438 56.980469 63.507812 57.238281 63.386719 C 57.878906 63.089844 58.464844 62.679688 59.074219 62.320312 C 59.761719 61.914062 60.484375 61.582031 61.230469 61.292969 C 61.832031 61.066406 62.4375 61.046875 63.058594 61.15625 C 63.84375 61.296875 64.621094 61.480469 65.421875 61.519531 C 66.25 61.558594 66.996094 61.335938 67.652344 60.824219 C 67.75 60.746094 67.847656 60.671875 67.953125 60.601562 C 68.097656 60.503906 68.257812 60.363281 68.410156 60.574219 C 68.542969 60.761719 68.410156 60.914062 68.273438 61.027344 C 67.957031 61.289062 67.648438 61.554688 67.230469 61.640625 L 66.398438 61.875 C 65.117188 61.953125 63.867188 61.75 62.625 61.476562 C 62.179688 61.375 61.777344 61.527344 61.386719 61.671875 C 60.40625 62.035156 59.480469 62.507812 58.605469 63.085938 C 58.089844 63.425781 57.550781 63.730469 56.953125 63.917969 C 56.566406 64.042969 56.175781 64.070312 55.886719 63.71875 C 55.714844 63.507812 55.625 63.660156 55.5 63.75 C 55.027344 64.085938 54.566406 64.457031 53.929688 64.421875 C 53.914062 64.421875 53.894531 64.425781 53.878906 64.421875 C 53.375 64.261719 52.882812 64.195312 52.335938 64.277344 C 51.867188 64.347656 51.660156 63.90625 51.875 63.363281 C 51.988281 63.070312 52.015625 62.953125 51.648438 62.875 C 51.199219 62.785156 51.214844 62.417969 51.335938 62.074219 C 51.628906 61.207031 52.175781 60.492188 52.691406 59.753906 C 53.820312 58.140625 55.355469 57.050781 57.085938 56.191406 C 57.289062 56.089844 57.484375 55.984375 57.765625 55.835938 C 56.90625 55.707031 56.148438 55.589844 55.390625 55.476562 C 55.257812 55.457031 55.15625 55.402344 55.109375 55.269531 Z M 55.109375 55.269531 " fill-opacity="1" fill-rule="nonzero"/><path fill="#e48563" d="M 37.761719 62.386719 C 37.949219 62.460938 37.996094 62.640625 38.082031 62.792969 C 38.5 63.535156 39.054688 64.136719 39.816406 64.53125 C 40.019531 64.640625 40.222656 64.753906 40.464844 64.742188 C 40.59375 64.734375 40.722656 64.71875 40.785156 64.59375 C 40.863281 64.449219 40.738281 64.367188 40.660156 64.28125 C 40.265625 63.851562 39.863281 63.429688 39.476562 62.988281 C 38.976562 62.417969 38.679688 61.765625 38.742188 60.964844 C 38.824219 60.984375 38.882812 60.988281 38.882812 61 C 39.222656 62.847656 40.648438 63.863281 41.929688 64.988281 C 42.070312 65.113281 42.253906 65.214844 42.445312 65.011719 C 42.628906 64.8125 42.515625 64.664062 42.398438 64.5 C 41.8125 63.679688 41.21875 62.867188 40.65625 62.03125 C 40.179688 61.328125 40.054688 60.519531 40.003906 59.683594 C 40.265625 59.679688 40.292969 59.855469 40.296875 59.972656 C 40.335938 61.378906 41.15625 62.40625 41.960938 63.445312 C 42.230469 63.792969 42.492188 64.148438 42.78125 64.480469 C 42.902344 64.625 43.074219 64.769531 43.289062 64.664062 C 43.488281 64.570312 43.519531 64.375 43.515625 64.167969 C 43.511719 63.679688 43.417969 63.234375 43.148438 62.808594 C 42.320312 61.5 41.65625 60.125 41.511719 58.550781 C 41.5 58.398438 41.449219 58.238281 41.570312 58.09375 C 41.777344 58.132812 41.792969 58.308594 41.792969 58.453125 C 41.800781 59.898438 42.457031 61.105469 43.164062 62.296875 C 43.226562 62.402344 43.296875 62.507812 43.355469 62.613281 C 43.492188 62.847656 43.628906 63.136719 43.957031 62.996094 C 44.226562 62.878906 44.265625 62.566406 44.230469 62.304688 C 44.121094 61.484375 43.945312 60.675781 43.753906 59.871094 C 43.613281 59.289062 43.507812 58.699219 43.515625 58.09375 C 43.519531 57.949219 43.527344 57.757812 43.695312 57.761719 C 43.894531 57.765625 43.828125 57.976562 43.828125 58.101562 C 43.839844 58.449219 43.832031 58.796875 43.832031 59.128906 C 44.144531 59.203125 44.109375 58.886719 44.296875 58.855469 C 44.425781 58.976562 44.378906 59.136719 44.292969 59.222656 C 43.898438 59.628906 44.070312 60.074219 44.175781 60.519531 C 44.324219 61.152344 44.480469 61.789062 44.46875 62.445312 C 44.460938 62.824219 44.375 63.160156 43.9375 63.25 C 43.75 63.289062 43.726562 63.402344 43.726562 63.558594 C 43.730469 63.769531 43.734375 63.980469 43.730469 64.195312 C 43.730469 64.648438 43.566406 64.972656 43.046875 64.90625 C 42.808594 64.875 42.777344 65.027344 42.71875 65.164062 C 42.625 65.398438 42.847656 65.371094 42.957031 65.417969 C 43.496094 65.636719 44.0625 65.785156 44.578125 66.066406 C 44.683594 66.128906 44.832031 66.191406 44.75 66.339844 C 44.667969 66.488281 44.542969 66.398438 44.429688 66.339844 C 43.242188 65.730469 41.992188 65.351562 40.667969 65.132812 C 39.347656 64.914062 38.503906 64.015625 37.859375 62.902344 C 37.765625 62.742188 37.757812 62.566406 37.761719 62.390625 Z M 37.761719 62.386719 " fill-opacity="1" fill-rule="nonzero"/><path fill="#3e2a28" d="M 42.164062 38.265625 C 41.289062 38.347656 40.445312 38.398438 39.632812 38.6875 C 39.148438 38.859375 38.6875 39.078125 38.261719 39.375 C 37.980469 39.566406 37.683594 39.636719 37.480469 39.304688 C 37.296875 39.007812 37.53125 38.808594 37.765625 38.664062 C 39.101562 37.867188 40.515625 37.695312 42 38.160156 C 42.058594 38.179688 42.109375 38.230469 42.164062 38.265625 Z M 42.164062 38.265625 " fill-opacity="1" fill-rule="nonzero"/><path fill="#e48563" d="M 60.34375 63.871094 C 59.808594 64.195312 59.253906 64.195312 58.738281 64.292969 C 56.039062 64.808594 53.320312 65.238281 50.75 66.269531 C 50.621094 66.320312 50.441406 66.40625 50.382812 66.238281 C 50.320312 66.058594 50.527344 66.042969 50.652344 65.992188 C 52.542969 65.226562 54.523438 64.792969 56.519531 64.417969 C 57.554688 64.222656 58.589844 64.011719 59.628906 63.8125 C 59.84375 63.769531 60.066406 63.722656 60.34375 63.871094 Z M 60.34375 63.871094 " fill-opacity="1" fill-rule="nonzero"/><path fill="#e48563" d="M 37.398438 47.410156 C 37.378906 47.410156 37.363281 47.410156 37.34375 47.410156 C 36.234375 47.402344 35.890625 46.964844 36.097656 45.867188 C 36.273438 44.90625 36.363281 43.949219 36.074219 42.988281 C 35.992188 42.699219 35.863281 42.425781 35.699219 42.175781 C 35.636719 42.082031 35.507812 41.964844 35.648438 41.851562 C 35.820312 41.714844 35.898438 41.886719 35.96875 42 C 36.519531 42.914062 36.664062 43.910156 36.542969 44.953125 C 36.5 45.339844 36.410156 45.71875 36.386719 46.105469 C 36.335938 46.921875 36.449219 47.050781 37.261719 47.167969 C 37.4375 47.195312 37.613281 47.191406 37.785156 47.128906 C 37.925781 47.074219 38.097656 47.050781 38.109375 47.253906 C 38.117188 47.402344 37.949219 47.410156 37.824219 47.410156 C 37.683594 47.414062 37.539062 47.410156 37.398438 47.410156 Z M 37.398438 47.410156 " fill-opacity="1" fill-rule="nonzero"/><path fill="#e48563" d="M 50.667969 42 C 50.140625 41.171875 50.273438 39.535156 50.980469 38.660156 C 51.339844 38.210938 51.722656 37.785156 52.410156 37.925781 C 51.910156 38.183594 51.421875 38.441406 51.160156 38.964844 C 51.097656 39.09375 51.011719 39.210938 50.957031 39.335938 C 50.671875 39.964844 50.703125 40.027344 51.367188 40.054688 C 51.652344 40.0625 51.832031 40.210938 51.992188 40.402344 C 52.125 40.558594 52.351562 40.804688 52.167969 40.933594 C 51.9375 41.101562 51.914062 40.742188 51.820312 40.609375 C 51.617188 40.328125 51.363281 40.230469 51.039062 40.3125 C 50.703125 40.394531 50.644531 40.636719 50.628906 40.957031 C 50.613281 41.285156 50.847656 41.59375 50.667969 42 Z M 50.667969 42 " fill-opacity="1" fill-rule="nonzero"/><path fill="#e48563" d="M 38.339844 49.730469 C 38.1875 49.730469 38.105469 49.753906 38.050781 49.726562 C 37.859375 49.636719 37.472656 49.710938 37.519531 49.425781 C 37.5625 49.175781 37.84375 49.421875 38.015625 49.425781 C 39.363281 49.453125 40.382812 48.84375 41.210938 47.835938 C 41.296875 47.730469 41.332031 47.457031 41.53125 47.589844 C 41.695312 47.699219 41.53125 47.890625 41.445312 48.007812 C 40.664062 49.097656 39.585938 49.648438 38.339844 49.730469 Z M 38.339844 49.730469 " fill-opacity="1" fill-rule="nonzero"/><path fill="#3e2a28" d="M 40.25 42.761719 C 39.925781 42.769531 39.617188 42.703125 39.332031 42.546875 C 39.222656 42.488281 39.085938 42.425781 39.15625 42.277344 C 39.226562 42.113281 39.363281 42.203125 39.472656 42.25 C 40.113281 42.53125 40.710938 42.441406 41.273438 42.042969 C 41.507812 41.878906 41.679688 41.652344 41.816406 41.40625 C 41.875 41.296875 41.929688 41.140625 42.074219 41.210938 C 42.214844 41.28125 42.136719 41.425781 42.089844 41.542969 C 41.8125 42.230469 41.019531 42.753906 40.25 42.761719 Z M 40.25 42.761719 " fill-opacity="1" fill-rule="nonzero"/><path fill="#3e2a28" d="M 34.125 44.707031 C 33.800781 44.691406 33.507812 44.578125 33.238281 44.40625 C 33.148438 44.351562 33.050781 44.277344 33.132812 44.15625 C 33.1875 44.082031 33.285156 44.074219 33.371094 44.121094 C 34.210938 44.558594 34.855469 44.339844 35.339844 43.546875 C 35.390625 43.460938 35.476562 43.363281 35.59375 43.464844 C 35.691406 43.546875 35.640625 43.648438 35.597656 43.75 C 35.378906 44.277344 34.714844 44.714844 34.125 44.707031 Z M 34.125 44.707031 " fill-opacity="1" fill-rule="nonzero"/><path fill="#f6b593" d="M 67.230469 61.640625 C 67.570312 61.390625 67.914062 61.148438 68.246094 60.890625 C 68.339844 60.820312 68.457031 60.714844 68.320312 60.585938 C 68.207031 60.476562 68.128906 60.589844 68.058594 60.660156 C 67 61.695312 65.679688 61.925781 64.363281 61.507812 C 62.167969 60.816406 60.394531 61.632812 58.628906 62.734375 C 58.03125 63.109375 57.460938 63.535156 56.753906 63.710938 C 56.53125 63.769531 56.339844 63.808594 56.175781 63.613281 C 55.972656 63.378906 56.210938 63.265625 56.324219 63.132812 C 57.347656 61.914062 58.558594 60.925781 59.992188 60.21875 C 60.085938 60.171875 60.183594 60.128906 60.273438 60.074219 C 60.410156 59.984375 60.707031 59.953125 60.597656 59.746094 C 60.484375 59.53125 60.292969 59.761719 60.152344 59.832031 C 58.710938 60.542969 57.425781 61.46875 56.359375 62.683594 C 55.777344 63.34375 55.0625 63.816406 54.226562 64.121094 C 53.941406 64.226562 53.671875 64.226562 53.503906 63.996094 C 53.304688 63.726562 53.605469 63.558594 53.75 63.382812 C 54.664062 62.253906 55.628906 61.171875 56.765625 60.257812 C 57.402344 59.746094 58.128906 59.375 58.796875 58.910156 C 58.9375 58.8125 59.203125 58.714844 59.097656 58.542969 C 58.964844 58.324219 58.796875 58.570312 58.664062 58.65625 C 57.402344 59.46875 56.121094 60.265625 55.105469 61.398438 C 54.503906 62.070312 53.933594 62.769531 53.339844 63.445312 C 53.113281 63.707031 52.921875 64.023438 52.488281 64 C 52.121094 63.980469 51.953125 63.882812 52.105469 63.480469 C 52.402344 62.6875 52.929688 62.039062 53.425781 61.375 C 54.503906 59.9375 55.921875 58.886719 57.40625 57.914062 C 57.578125 57.804688 57.945312 57.691406 57.777344 57.464844 C 57.625 57.257812 57.429688 57.59375 57.277344 57.707031 C 56.183594 58.484375 55.011719 59.15625 54.09375 60.164062 C 53.472656 60.84375 52.914062 61.574219 52.394531 62.332031 C 52.191406 62.628906 51.933594 62.691406 51.671875 62.5625 C 51.332031 62.394531 51.574219 62.125 51.675781 61.925781 C 52.789062 59.675781 54.40625 57.917969 56.644531 56.722656 C 57.609375 56.210938 58.589844 55.808594 59.675781 55.691406 C 60.089844 55.554688 60.511719 55.472656 60.953125 55.484375 C 61.160156 55.488281 61.382812 55.515625 61.492188 55.273438 C 61.761719 55.4375 62.058594 55.371094 62.34375 55.371094 C 62.453125 55.292969 62.558594 55.292969 62.667969 55.371094 C 66.164062 55.222656 69.535156 56.035156 72.929688 56.6875 C 76.023438 57.28125 79.121094 57.871094 82.21875 58.457031 C 82.566406 58.523438 82.914062 58.730469 83.289062 58.558594 C 83.714844 58.789062 84.199219 58.816406 84.652344 58.941406 C 85.351562 59.132812 86.027344 59.378906 86.703125 59.636719 C 85.777344 59.234375 84.8125 58.960938 83.835938 58.730469 C 83.652344 58.6875 83.441406 58.714844 83.292969 58.554688 C 83.445312 57.503906 83.832031 56.511719 84.074219 55.484375 C 84.109375 55.324219 84.238281 55.28125 84.402344 55.300781 C 87.269531 55.648438 90.105469 56.167969 92.867188 57.023438 C 93.339844 57.167969 93.796875 57.347656 94.261719 57.511719 C 94.015625 58.292969 93.769531 59.070312 93.519531 59.851562 C 92.875 61.738281 92.195312 63.613281 91.28125 65.390625 C 90.722656 66.472656 90.015625 67.433594 89.105469 68.242188 C 88.421875 68.851562 87.589844 68.925781 86.726562 68.90625 C 84.117188 68.847656 81.707031 67.996094 79.3125 67.089844 C 76.300781 65.949219 73.378906 64.605469 70.492188 63.179688 C 69.414062 62.648438 68.316406 62.152344 67.230469 61.640625 Z M 67.230469 61.640625 " fill-opacity="1" fill-rule="nonzero"/><path fill="#a5a8a7" d="M 96.503906 58.648438 C 95.8125 58.164062 95.074219 57.761719 94.261719 57.511719 C 93.789062 58.167969 93.652344 58.953125 93.457031 59.710938 C 93.441406 59.761719 93.488281 59.808594 93.519531 59.851562 C 94.277344 59.867188 95.03125 59.847656 95.765625 59.648438 C 96.164062 59.554688 96.542969 59.425781 96.824219 59.105469 C 96.824219 58.875 96.660156 58.753906 96.503906 58.648438 Z M 96.503906 58.648438 " fill-opacity="1" fill-rule="nonzero"/><path fill="#a5a8a7" d="M 64.242188 44.0625 C 64.023438 44.023438 64.054688 44.3125 64.023438 44.472656 C 63.957031 44.796875 63.933594 45.132812 63.855469 45.457031 C 63.421875 47.234375 62.785156 48.960938 62.417969 50.757812 C 62.238281 51.640625 62.121094 52.53125 62.148438 53.429688 C 62.167969 54.078125 62.277344 54.722656 62.34375 55.371094 L 62.667969 55.371094 C 62.660156 55.140625 62.628906 54.914062 62.605469 54.6875 C 62.5 53.707031 62.449219 52.714844 62.59375 51.742188 C 62.835938 50.136719 63.324219 48.589844 63.753906 47.027344 C 63.980469 46.214844 64.167969 45.390625 64.347656 44.5625 C 64.382812 44.402344 64.484375 44.109375 64.242188 44.0625 Z M 64.242188 44.0625 " fill-opacity="1" fill-rule="nonzero"/><path fill="#a5a8a7" d="M 85.738281 44.785156 C 85.0625 47.480469 84.527344 50.207031 83.96875 52.929688 C 83.824219 53.617188 83.734375 54.316406 83.628906 55.011719 C 83.609375 55.140625 83.582031 55.328125 83.785156 55.347656 C 83.921875 55.363281 83.925781 55.230469 83.941406 55.121094 C 84.421875 51.972656 85.128906 48.871094 85.832031 45.765625 C 85.941406 45.285156 86.191406 44.800781 85.988281 44.152344 C 85.832031 44.421875 85.785156 44.597656 85.738281 44.785156 Z M 85.738281 44.785156 " fill-opacity="1" fill-rule="nonzero"/><path fill="#f6b593" d="M 34.429688 32.328125 C 37.371094 34.972656 40.820312 36.136719 44.542969 36.734375 C 41.675781 37.878906 35.730469 35.339844 34.429688 32.328125 Z M 34.429688 32.328125 " fill-opacity="1" fill-rule="nonzero"/><path fill="#3e2a28" d="M 74.097656 15.417969 C 72.730469 15.148438 71.523438 15.234375 70.378906 15.839844 C 70.15625 15.957031 69.957031 15.878906 69.828125 15.683594 C 69.714844 15.511719 69.765625 15.335938 69.933594 15.21875 C 70.746094 14.636719 73.003906 14.355469 74.097656 15.417969 Z M 74.097656 15.417969 " fill-opacity="1" fill-rule="nonzero"/><path fill="#e48563" d="M 68.402344 19.472656 C 68.5 20.183594 68.277344 20.867188 68.058594 21.527344 C 67.855469 22.140625 68.082031 22.425781 68.824219 22.617188 C 68.9375 22.648438 69.070312 22.628906 69.191406 22.636719 C 69.265625 22.644531 69.328125 22.679688 69.339844 22.761719 C 69.351562 22.871094 69.285156 22.910156 69.191406 22.941406 C 68.632812 23.125 67.773438 22.496094 67.761719 21.910156 C 67.75 21.441406 67.953125 21.019531 68.011719 20.566406 C 68.121094 19.671875 68.242188 18.78125 67.8125 17.925781 C 67.757812 17.8125 67.613281 17.65625 67.828125 17.578125 C 68.007812 17.507812 68.0625 17.691406 68.121094 17.8125 C 68.363281 18.335938 68.464844 18.882812 68.402344 19.472656 Z M 68.402344 19.472656 " fill-opacity="1" fill-rule="nonzero"/><path fill="#e48563" d="M 80.820312 19.195312 C 80.621094 18.546875 80.792969 17.9375 80.984375 17.355469 C 81.222656 16.625 81.609375 15.972656 82.347656 15.613281 C 82.472656 15.550781 82.601562 15.484375 82.75 15.519531 C 82.847656 15.539062 82.929688 15.585938 82.9375 15.679688 C 82.949219 15.789062 82.847656 15.800781 82.757812 15.820312 C 81.910156 15.988281 81.605469 16.648438 81.304688 17.398438 C 81.945312 17.359375 82.335938 17.625 82.511719 18.183594 C 82.554688 18.3125 82.632812 18.484375 82.453125 18.539062 C 82.300781 18.585938 82.269531 18.417969 82.234375 18.300781 C 82.164062 18.097656 82.078125 17.898438 81.882812 17.789062 C 81.515625 17.585938 81.125 17.804688 81.070312 18.226562 C 81.027344 18.523438 80.984375 18.820312 80.941406 19.113281 C 80.9375 19.136719 80.890625 19.152344 80.820312 19.195312 Z M 80.820312 19.195312 " fill-opacity="1" fill-rule="nonzero"/><path fill="#e48563" d="M 69.714844 25.074219 C 69.355469 25.078125 69.023438 24.96875 68.6875 24.863281 C 68.570312 24.828125 68.492188 24.75 68.550781 24.628906 C 68.59375 24.539062 68.695312 24.546875 68.785156 24.574219 C 70.148438 25.035156 71.265625 24.597656 72.238281 23.636719 C 72.308594 23.566406 72.402344 23.441406 72.5 23.539062 C 72.640625 23.679688 72.496094 23.796875 72.402344 23.890625 C 71.652344 24.617188 70.777344 25.054688 69.714844 25.074219 Z M 69.714844 25.074219 " fill-opacity="1" fill-rule="nonzero"/><path fill="#3e2a28" d="M 71.429688 18.046875 C 71.476562 17.792969 71.507812 17.488281 71.894531 17.488281 C 72.203125 17.488281 72.539062 17.996094 72.507812 18.425781 C 72.488281 18.714844 72.410156 19.007812 72.039062 19.015625 C 71.726562 19.023438 71.417969 18.527344 71.429688 18.046875 Z M 71.429688 18.046875 " fill-opacity="1" fill-rule="nonzero"/><path fill="#3e2a28" d="M 65.835938 19.015625 C 65.855469 18.785156 65.863281 18.480469 66.257812 18.472656 C 66.574219 18.46875 66.859375 18.9375 66.847656 19.410156 C 66.84375 19.695312 66.769531 19.949219 66.4375 19.980469 C 66.109375 20.015625 65.832031 19.582031 65.835938 19.015625 Z M 65.835938 19.015625 " fill-opacity="1" fill-rule="nonzero"/><path fill="#3e2a28" d="M 67.910156 9.085938 C 70.785156 11.558594 70.785156 11.558594 75.433594 14.121094 C 72.214844 13.515625 69.746094 11.78125 67.910156 9.085938 Z M 67.910156 9.085938 " fill-opacity="1" fill-rule="nonzero"/><path fill="#e48563" d="M 83.292969 58.550781 C 84.542969 58.652344 85.695312 59.09375 86.847656 59.546875 C 86.964844 59.59375 87.175781 59.640625 87.101562 59.824219 C 87.015625 60.039062 86.855469 59.851562 86.75 59.808594 C 85.792969 59.390625 84.800781 59.089844 83.78125 58.867188 C 83.597656 58.828125 83.332031 58.851562 83.289062 58.558594 Z M 83.292969 58.550781 " fill-opacity="1" fill-rule="nonzero"/></svg>