<svg xmlns="http://www.w3.org/2000/svg" xmlns:xlink="http://www.w3.org/1999/xlink" width="170" zoomAndPan="magnify" viewBox="0 0 127.5 89.999999" height="120" preserveAspectRatio="xMidYMid meet" version="1.0"><defs><clipPath id="657b0cb408"><path d="M 21 69 L 24 69 L 24 89.824219 L 21 89.824219 Z M 21 69 " clip-rule="nonzero"/></clipPath><clipPath id="54c878036f"><path d="M 22 49 L 24 49 L 24 89.824219 L 22 89.824219 Z M 22 49 " clip-rule="nonzero"/></clipPath><clipPath id="b4a41ab89b"><path d="M 15.925781 88.6875 L 29.84375 88.6875 L 29.84375 89.816406 L 15.925781 89.816406 Z M 15.925781 88.6875 " clip-rule="nonzero"/></clipPath><clipPath id="ca682a839b"><path d="M 103 69 L 106 69 L 106 89.824219 L 103 89.824219 Z M 103 69 " clip-rule="nonzero"/></clipPath><clipPath id="c0f2076cf8"><path d="M 103 49 L 105 49 L 105 89.824219 L 103 89.824219 Z M 103 49 " clip-rule="nonzero"/></clipPath><clipPath id="02d98206c8"><path d="M 97.417969 88.6875 L 111.277344 88.6875 L 111.277344 89.816406 L 97.417969 89.816406 Z M 97.417969 88.6875 " clip-rule="nonzero"/></clipPath><clipPath id="a6538d8f0e"><path d="M 14.378906 43.707031 L 112.992188 43.707031 L 112.992188 48.566406 L 14.378906 48.566406 Z M 14.378906 43.707031 " clip-rule="nonzero"/></clipPath><clipPath id="ac98fc88aa"><path d="M 14.378906 47.558594 L 112.992188 47.558594 L 112.992188 48.566406 L 14.378906 48.566406 Z M 14.378906 47.558594 " clip-rule="nonzero"/></clipPath><clipPath id="d984a44395"><path d="M 35 0.175781 L 47 0.175781 L 47 11 L 35 11 Z M 35 0.175781 " clip-rule="nonzero"/></clipPath></defs><path fill="#fcf6f2" d="M 108.285156 45.855469 C 107.808594 41.289062 106.960938 36.699219 106.269531 32.191406 C 105.300781 25.859375 104.5625 19.21875 101.011719 13.882812 C 97.046875 7.921875 90.082031 4.511719 83.042969 3.109375 C 76.148438 1.734375 69.027344 2.03125 62.039062 2.796875 C 56.730469 3.378906 51.402344 4.242188 46.433594 6.195312 C 41.464844 8.144531 36.839844 11.265625 33.832031 15.660156 C 30.371094 20.710938 29.304688 26.953125 27.253906 32.714844 C 25.511719 37.605469 23.011719 42.230469 19.875 46.375 C 19.175781 47.296875 18.027344 48.257812 17.527344 49.285156 C 17.039062 50.28125 16.960938 51.695312 16.769531 52.78125 C 16.25 55.699219 16.019531 58.695312 16.460938 61.640625 C 17.0625 65.613281 19.03125 69.527344 22.398438 71.746094 C 25.191406 73.585938 28.636719 74.105469 31.972656 74.453125 C 39.757812 75.261719 47.636719 75.367188 55.3125 76.90625 C 65.539062 78.960938 75.683594 83.554688 85.972656 81.855469 C 95.566406 80.265625 103.839844 72.894531 106.945312 63.714844 C 108.886719 57.96875 108.917969 51.929688 108.285156 45.855469 " fill-opacity="1" fill-rule="nonzero"/><path fill="#a9b881" d="M 69.59375 19.769531 C 69.527344 19.792969 69.457031 19.808594 69.386719 19.824219 C 69.242188 19.855469 69.085938 19.871094 68.917969 19.867188 C 67.375 19.835938 66.78125 18.265625 66.664062 16.980469 C 66.609375 16.386719 66.609375 15.738281 66.902344 15.203125 C 66.984375 15.050781 67.089844 14.914062 67.207031 14.792969 C 67.4375 14.480469 67.757812 14.246094 68.132812 14.183594 C 68.136719 14.183594 68.140625 14.179688 68.148438 14.179688 C 68.21875 14.167969 68.285156 14.160156 68.351562 14.15625 C 69.21875 14.070312 69.976562 14.347656 70.460938 15.132812 C 70.773438 15.648438 70.894531 16.308594 70.949219 16.894531 C 71.046875 18.023438 70.691406 19.394531 69.59375 19.769531 " fill-opacity="1" fill-rule="nonzero"/><path fill="#a9b881" d="M 68.050781 21.867188 C 68.046875 21.941406 68.035156 22.015625 68.019531 22.085938 C 67.917969 22.597656 67.609375 23.070312 67.125 23.375 C 66.496094 23.761719 65.605469 23.691406 64.925781 23.503906 C 63.683594 23.15625 62.039062 22.058594 62.222656 20.679688 C 62.230469 20.613281 62.246094 20.542969 62.265625 20.472656 C 62.304688 20.320312 62.371094 20.160156 62.460938 20 C 62.949219 19.140625 63.875 18.8125 64.820312 18.976562 C 65.144531 19.03125 65.460938 19.164062 65.769531 19.289062 C 65.894531 19.328125 66.015625 19.375 66.140625 19.425781 C 66.734375 19.675781 67.253906 20.019531 67.652344 20.53125 C 67.964844 20.933594 68.089844 21.410156 68.050781 21.867188 " fill-opacity="1" fill-rule="nonzero"/><path fill="#a9b881" d="M 77.847656 25.367188 C 77.289062 26.40625 76.070312 27.148438 74.945312 26.957031 C 74.878906 26.945312 74.808594 26.929688 74.742188 26.910156 C 74.441406 26.828125 74.152344 26.671875 73.886719 26.433594 C 73.421875 26.011719 73.257812 25.449219 73.273438 24.855469 C 73.238281 24.625 73.257812 24.386719 73.339844 24.167969 C 73.378906 24.0625 73.417969 23.960938 73.464844 23.855469 C 73.613281 23.402344 73.832031 22.972656 74.070312 22.628906 C 74.160156 22.5 74.257812 22.386719 74.367188 22.285156 C 74.902344 21.660156 75.613281 21.269531 76.5625 21.535156 C 76.816406 21.605469 77.039062 21.710938 77.234375 21.839844 C 77.292969 21.878906 77.347656 21.921875 77.402344 21.96875 C 78.359375 22.75 78.453125 24.234375 77.847656 25.367188 " fill-opacity="1" fill-rule="nonzero"/><path fill="#a9b881" d="M 75.941406 34.59375 C 75.925781 34.664062 75.90625 34.730469 75.882812 34.796875 C 75.785156 35.09375 75.617188 35.367188 75.390625 35.582031 C 74.921875 36.015625 74.285156 36.1875 73.65625 36.132812 C 73.144531 36.089844 72.695312 36.015625 72.246094 35.746094 C 71.519531 35.304688 71.179688 34.46875 71.246094 33.671875 C 71.25 33.601562 71.257812 33.535156 71.273438 33.464844 C 71.355469 32.964844 71.609375 32.496094 72.03125 32.167969 C 72.578125 31.75 73.296875 31.65625 73.949219 31.863281 C 74.285156 31.972656 74.574219 32.144531 74.84375 32.355469 C 74.953125 32.410156 75.0625 32.472656 75.171875 32.554688 C 75.410156 32.742188 75.582031 32.929688 75.742188 33.191406 C 75.992188 33.613281 76.046875 34.121094 75.941406 34.59375 " fill-opacity="1" fill-rule="nonzero"/><path fill="#a9b881" d="M 84.179688 32.265625 C 84.175781 32.335938 84.164062 32.40625 84.148438 32.472656 C 84.109375 32.652344 84.039062 32.828125 83.929688 32.992188 C 83.292969 33.980469 82.144531 34.171875 81.074219 33.917969 C 79.867188 33.632812 79.109375 32.394531 79.492188 31.257812 C 79.515625 31.191406 79.539062 31.125 79.570312 31.058594 C 79.601562 30.988281 79.636719 30.921875 79.679688 30.851562 C 80.0625 30.214844 80.796875 29.804688 81.539062 29.835938 C 81.769531 29.84375 82.007812 29.890625 82.234375 29.972656 C 82.488281 30.015625 82.722656 30.082031 82.980469 30.210938 C 83.1875 30.3125 83.398438 30.46875 83.558594 30.628906 C 83.984375 31.050781 84.238281 31.671875 84.179688 32.265625 " fill-opacity="1" fill-rule="nonzero"/><path fill="#a9b881" d="M 85.554688 13.519531 C 85.507812 13.628906 85.464844 13.753906 85.398438 13.859375 C 85.316406 14 85.199219 14.136719 85.09375 14.261719 C 85.078125 14.28125 85.0625 14.300781 85.039062 14.320312 C 84.921875 14.433594 84.792969 14.542969 84.644531 14.621094 C 84.566406 14.660156 84.492188 14.695312 84.410156 14.722656 C 84.332031 14.761719 84.253906 14.792969 84.171875 14.820312 C 84.164062 14.824219 84.15625 14.824219 84.144531 14.828125 C 83.988281 14.847656 83.832031 14.867188 83.671875 14.890625 C 83.492188 14.894531 83.386719 14.894531 83.148438 14.828125 C 83.09375 14.808594 83.035156 14.792969 82.980469 14.769531 C 82.917969 14.75 82.855469 14.722656 82.792969 14.695312 C 82.609375 14.609375 82.433594 14.492188 82.292969 14.347656 C 82.070312 14.109375 81.867188 13.820312 81.792969 13.5 C 81.714844 13.183594 81.703125 12.851562 81.773438 12.535156 C 81.78125 12.46875 81.796875 12.402344 81.816406 12.335938 C 81.871094 12.109375 81.976562 11.90625 82.136719 11.734375 C 82.261719 11.542969 82.425781 11.394531 82.632812 11.28125 C 82.855469 11.121094 83.074219 11.015625 83.339844 10.925781 C 83.640625 10.828125 84.0625 10.839844 84.363281 10.925781 C 84.523438 10.96875 84.679688 11.039062 84.820312 11.125 C 84.945312 11.199219 85.023438 11.25 85.085938 11.300781 C 85.136719 11.347656 85.179688 11.394531 85.222656 11.453125 C 85.253906 11.496094 85.289062 11.542969 85.335938 11.601562 C 85.492188 11.800781 85.601562 11.957031 85.664062 12.226562 C 85.699219 12.367188 85.726562 12.59375 85.730469 12.738281 C 85.746094 13.070312 85.671875 13.246094 85.554688 13.519531 " fill-opacity="1" fill-rule="nonzero"/><path fill="#a9b881" d="M 79.976562 14.488281 L 79.933594 14.527344 C 79.890625 14.5625 79.84375 14.597656 79.796875 14.625 C 79.222656 15 78.457031 15.042969 77.804688 14.820312 C 77.097656 14.582031 76.507812 14.070312 76.050781 13.484375 C 75.183594 12.367188 74.683594 9.914062 75.78125 8.988281 C 75.835938 8.941406 75.890625 8.898438 75.953125 8.863281 C 76.292969 8.652344 76.761719 8.566406 77.371094 8.660156 C 78.332031 8.808594 79.113281 9.503906 79.707031 10.269531 C 80.1875 10.898438 80.59375 11.613281 80.695312 12.394531 C 80.699219 12.425781 80.703125 12.460938 80.707031 12.492188 C 80.777344 13.230469 80.542969 14.015625 79.976562 14.488281 " fill-opacity="1" fill-rule="nonzero"/><path fill="#a9b881" d="M 97.378906 17.757812 C 97.382812 17.828125 97.382812 17.898438 97.378906 17.96875 C 97.371094 18.097656 97.355469 18.21875 97.324219 18.332031 C 97.324219 18.335938 97.324219 18.339844 97.320312 18.34375 C 97.175781 18.898438 96.691406 19.417969 96.121094 19.542969 C 96.117188 19.542969 96.109375 19.546875 96.105469 19.546875 C 96.011719 19.566406 95.925781 19.578125 95.835938 19.585938 C 95.660156 19.621094 95.480469 19.648438 95.300781 19.632812 C 95.109375 19.617188 94.878906 19.597656 94.6875 19.527344 C 94.503906 19.464844 94.300781 19.394531 94.140625 19.273438 C 93.9375 19.167969 93.777344 19.019531 93.65625 18.832031 C 93.550781 18.726562 93.476562 18.601562 93.433594 18.453125 C 93.355469 18.320312 93.316406 18.179688 93.316406 18.023438 C 93.308594 17.988281 93.300781 17.953125 93.296875 17.917969 C 93.285156 17.84375 93.285156 17.777344 93.292969 17.707031 C 93.296875 17.65625 93.304688 17.613281 93.316406 17.566406 C 93.328125 17.339844 93.398438 17.125 93.523438 16.929688 C 93.613281 16.8125 93.703125 16.699219 93.792969 16.582031 C 94.007812 16.367188 94.273438 16.25 94.550781 16.140625 C 94.679688 16.089844 94.804688 16.082031 94.941406 16.0625 C 95.066406 16.046875 95.195312 16.019531 95.320312 16.027344 C 95.769531 16.054688 96.054688 16.144531 96.457031 16.332031 C 96.605469 16.402344 96.738281 16.507812 96.851562 16.636719 C 96.863281 16.644531 96.871094 16.65625 96.882812 16.664062 C 96.972656 16.78125 97.0625 16.894531 97.152344 17.011719 C 97.289062 17.222656 97.359375 17.488281 97.378906 17.757812 " fill-opacity="1" fill-rule="nonzero"/><path fill="#a9b881" d="M 96.050781 25.921875 C 95.902344 26.425781 95.5625 26.851562 95.101562 27.089844 C 95.035156 27.121094 94.972656 27.152344 94.90625 27.171875 C 94.851562 27.195312 94.796875 27.214844 94.742188 27.230469 C 94.40625 27.320312 94.074219 27.320312 93.738281 27.230469 C 93.421875 27.140625 93.148438 26.980469 92.910156 26.75 C 92.78125 26.589844 92.632812 26.433594 92.539062 26.25 C 92.464844 26.105469 92.386719 25.914062 92.332031 25.757812 C 92.324219 25.738281 92.320312 25.71875 92.3125 25.699219 C 92.300781 25.660156 92.296875 25.613281 92.289062 25.566406 L 92.28125 25.542969 C 92.25 25.453125 92.234375 25.359375 92.238281 25.265625 C 92.21875 25.171875 92.207031 25.078125 92.203125 24.988281 C 92.222656 24.820312 92.246094 24.65625 92.269531 24.488281 C 92.300781 24.355469 92.40625 24.125 92.472656 24.003906 C 92.554688 23.851562 92.667969 23.714844 92.792969 23.597656 C 92.929688 23.457031 93.015625 23.390625 93.105469 23.335938 C 93.164062 23.304688 93.222656 23.28125 93.296875 23.25 C 93.332031 23.234375 93.371094 23.21875 93.417969 23.199219 C 93.679688 23.089844 93.847656 23.035156 94.167969 23.035156 C 94.558594 23.035156 94.617188 23.078125 94.910156 23.203125 C 95.164062 23.308594 95.328125 23.398438 95.539062 23.613281 C 95.816406 23.894531 95.902344 24.101562 96.035156 24.464844 C 96.058594 24.523438 96.070312 24.582031 96.082031 24.640625 C 96.15625 25.09375 96.1875 25.46875 96.050781 25.921875 " fill-opacity="1" fill-rule="nonzero"/><path fill="#a9b881" d="M 102.371094 25.386719 C 102.382812 25.574219 102.339844 25.777344 102.269531 25.96875 C 102.230469 26.144531 102.164062 26.320312 102.074219 26.476562 C 101.25 27.894531 98.320312 28.824219 97.289062 27.289062 C 97.253906 27.238281 97.222656 27.1875 97.195312 27.128906 C 97.125 27.003906 97.066406 26.859375 97.023438 26.703125 C 96.492188 24.785156 98.960938 23.40625 100.597656 23.617188 C 101.09375 23.679688 101.480469 23.796875 101.851562 24.136719 C 102.019531 24.289062 102.144531 24.480469 102.222656 24.683594 C 102.253906 24.75 102.277344 24.820312 102.292969 24.890625 C 102.339844 25.054688 102.363281 25.222656 102.371094 25.386719 " fill-opacity="1" fill-rule="nonzero"/><path fill="#a9b881" d="M 98.03125 35.601562 C 97.085938 36.179688 96 36.613281 94.886719 36.320312 C 94.289062 36.164062 93.808594 35.675781 93.644531 35.085938 C 93.609375 34.960938 93.589844 34.839844 93.585938 34.726562 C 93.582031 34.648438 93.582031 34.574219 93.589844 34.503906 C 93.625 34.089844 93.820312 33.714844 94.101562 33.363281 C 94.609375 32.734375 95.433594 32.464844 96.210938 32.398438 C 96.335938 32.386719 96.464844 32.382812 96.59375 32.386719 C 97.367188 32.136719 98.222656 32.496094 98.667969 33.183594 C 98.746094 33.304688 98.804688 33.433594 98.847656 33.566406 C 98.867188 33.632812 98.882812 33.703125 98.890625 33.773438 C 99.003906 34.472656 98.644531 35.230469 98.03125 35.601562 " fill-opacity="1" fill-rule="nonzero"/><path fill="#a9b881" d="M 96.84375 14.796875 C 96.320312 15.09375 95.703125 15.304688 95.097656 15.269531 C 94.636719 15.242188 94.21875 15.078125 93.902344 14.789062 C 93.851562 14.742188 93.804688 14.695312 93.757812 14.640625 C 93.644531 14.507812 93.546875 14.351562 93.472656 14.179688 C 93.199219 13.53125 93.332031 12.75 93.839844 12.246094 C 94.390625 11.703125 95.101562 11.289062 95.859375 11.117188 C 96.070312 11.066406 96.28125 11.058594 96.480469 11.074219 C 96.933594 11.070312 97.359375 11.296875 97.6875 11.59375 C 97.816406 11.710938 97.910156 11.84375 97.984375 11.992188 C 98.015625 12.050781 98.042969 12.117188 98.066406 12.179688 C 98.144531 12.390625 98.179688 12.617188 98.207031 12.84375 C 98.308594 13.746094 97.542969 14.394531 96.84375 14.796875 " fill-opacity="1" fill-rule="nonzero"/><path fill="#7a9136" d="M 83.351562 62.792969 C 83.335938 62.921875 83.128906 62.925781 83.144531 62.792969 C 83.617188 58.75 83.148438 54.691406 82.304688 50.730469 C 81.574219 47.304688 80.632812 43.910156 79.636719 40.554688 C 79.160156 38.945312 78.628906 37.347656 77.945312 35.8125 C 77.9375 35.808594 77.929688 35.804688 77.917969 35.796875 C 77.867188 35.746094 77.792969 35.714844 77.730469 35.671875 C 77.46875 35.488281 77.15625 35.355469 76.863281 35.214844 C 76.5625 35.074219 76.257812 34.941406 75.945312 34.820312 C 75.925781 34.808594 75.90625 34.800781 75.882812 34.796875 C 75.289062 34.558594 74.675781 34.367188 74.054688 34.214844 C 73.125 33.992188 72.167969 33.898438 71.246094 33.671875 C 71.25 33.601562 71.257812 33.535156 71.273438 33.464844 C 72.265625 33.710938 73.296875 33.804688 74.289062 34.0625 C 74.851562 34.207031 75.402344 34.382812 75.941406 34.59375 C 76.574219 34.835938 77.1875 35.125 77.78125 35.449219 C 77.105469 33.988281 76.277344 32.605469 75.410156 31.25 C 75.0625 30.703125 74.242188 29.4375 74.242188 29.410156 C 73.109375 27.613281 72.015625 25.796875 71.074219 23.890625 C 71.007812 23.835938 70.941406 23.789062 70.863281 23.746094 C 69.972656 23.09375 69.019531 22.535156 68.019531 22.085938 C 66.199219 21.257812 64.234375 20.777344 62.222656 20.679688 C 62.230469 20.613281 62.246094 20.542969 62.265625 20.472656 C 64.265625 20.574219 66.230469 21.050781 68.050781 21.867188 C 69.046875 22.316406 70 22.867188 70.894531 23.511719 C 70.753906 23.226562 70.621094 22.941406 70.492188 22.648438 C 70.082031 21.722656 69.710938 20.78125 69.386719 19.824219 C 68.769531 17.992188 68.335938 16.109375 68.148438 14.179688 C 68.21875 14.167969 68.285156 14.160156 68.351562 14.15625 C 68.457031 15.195312 68.628906 16.226562 68.867188 17.246094 C 69.066406 18.097656 69.308594 18.941406 69.59375 19.769531 C 70.125 21.355469 70.792969 22.898438 71.546875 24.382812 C 72.371094 26.007812 73.328125 27.550781 74.300781 29.082031 C 74.421875 28.359375 74.5625 27.628906 74.742188 26.910156 C 75.207031 25.046875 75.921875 23.253906 77.234375 21.839844 C 77.292969 21.878906 77.347656 21.921875 77.402344 21.96875 C 76.105469 23.355469 75.402344 25.121094 74.945312 26.957031 C 74.746094 27.75 74.597656 28.550781 74.464844 29.34375 C 75.203125 30.507812 75.945312 31.667969 76.648438 32.855469 C 77.1875 33.773438 77.664062 34.71875 78.085938 35.679688 C 78.089844 35.683594 78.089844 35.6875 78.09375 35.691406 C 79 37.75 79.679688 39.890625 80.292969 42.078125 C 82.171875 48.792969 84.179688 55.75 83.351562 62.792969 " fill-opacity="1" fill-rule="nonzero"/><path fill="#7a9136" d="M 98.847656 33.566406 C 98.867188 33.632812 98.882812 33.703125 98.890625 33.773438 C 97.082031 33.835938 95.246094 34.042969 93.585938 34.726562 C 92.921875 34.996094 92.289062 35.347656 91.691406 35.796875 C 91.671875 35.8125 91.652344 35.816406 91.632812 35.8125 C 90.597656 38.5 89.980469 41.359375 89.648438 44.207031 C 88.964844 50.082031 89.230469 56.066406 89.335938 61.96875 C 89.339844 62.101562 89.132812 62.101562 89.128906 61.96875 C 89.0625 58.433594 88.992188 54.898438 89.035156 51.363281 C 89.109375 45.628906 89.589844 39.75 91.96875 34.449219 C 92.789062 32.617188 93.832031 30.878906 95.105469 29.324219 C 95.101562 29.316406 95.097656 29.304688 95.097656 29.292969 C 95.082031 28.589844 95.027344 27.875 94.90625 27.171875 C 94.828125 26.734375 94.722656 26.300781 94.578125 25.882812 C 94.269531 24.960938 93.660156 24.140625 93.105469 23.335938 C 93.164062 23.304688 93.222656 23.28125 93.296875 23.25 C 93.859375 24.0625 94.464844 24.890625 94.78125 25.828125 C 94.917969 26.238281 95.023438 26.660156 95.101562 27.089844 C 95.222656 27.75 95.28125 28.425781 95.300781 29.089844 C 95.558594 28.78125 95.824219 28.480469 96.101562 28.191406 C 96.445312 27.835938 96.808594 27.476562 97.195312 27.128906 C 98.613281 25.851562 100.316406 24.753906 102.222656 24.683594 C 102.253906 24.75 102.277344 24.820312 102.292969 24.890625 C 100.425781 24.9375 98.71875 25.988281 97.289062 27.289062 C 96.527344 27.980469 95.847656 28.738281 95.257812 29.460938 C 93.761719 31.285156 92.617188 33.332031 91.75 35.5 C 92.328125 35.085938 92.945312 34.761719 93.589844 34.503906 C 95.238281 33.839844 97.054688 33.628906 98.847656 33.566406 " fill-opacity="1" fill-rule="nonzero"/><path fill="#7a9136" d="M 97.378906 17.757812 C 97.382812 17.828125 97.382812 17.898438 97.378906 17.96875 C 96.023438 17.714844 94.640625 17.703125 93.296875 17.917969 C 92.085938 18.105469 90.90625 18.480469 89.796875 19.035156 C 87.699219 21.835938 86.21875 25.097656 85.535156 28.550781 C 88.050781 38.699219 87.976562 49.378906 86.84375 59.746094 C 86.828125 59.878906 86.621094 59.878906 86.632812 59.746094 C 87.035156 56.085938 87.308594 52.414062 87.378906 48.734375 C 87.476562 43.742188 87.191406 38.699219 86.375 33.757812 C 86.347656 33.761719 86.320312 33.753906 86.296875 33.730469 C 85.683594 33.128906 84.9375 32.753906 84.148438 32.472656 C 83.730469 32.324219 83.300781 32.203125 82.875 32.09375 C 81.75 31.796875 80.625 31.523438 79.492188 31.257812 C 79.515625 31.191406 79.539062 31.125 79.570312 31.058594 C 80.804688 31.347656 82.035156 31.640625 83.253906 31.976562 C 83.566406 32.0625 83.875 32.160156 84.179688 32.265625 C 84.96875 32.542969 85.707031 32.914062 86.328125 33.484375 C 86.054688 31.867188 85.726562 30.261719 85.335938 28.675781 C 85.316406 28.652344 85.308594 28.621094 85.316406 28.585938 C 85.359375 28.371094 85.152344 27.941406 85.09375 27.722656 C 85.019531 27.4375 84.941406 27.148438 84.863281 26.863281 C 84.703125 26.292969 84.535156 25.722656 84.359375 25.152344 C 84 24 83.605469 22.855469 83.171875 21.730469 C 82.464844 19.875 81.652344 18.0625 80.738281 16.300781 C 80.441406 15.734375 80.125 15.175781 79.796875 14.625 C 79.125 13.5 78.386719 12.40625 77.632812 11.335938 C 77.054688 10.523438 76.445312 9.730469 75.78125 8.988281 C 75.835938 8.941406 75.890625 8.898438 75.953125 8.863281 C 76.511719 9.492188 77.03125 10.15625 77.527344 10.835938 C 78.386719 12.023438 79.230469 13.226562 79.976562 14.488281 C 80.140625 14.761719 80.296875 15.035156 80.449219 15.3125 C 80.734375 15.835938 81.011719 16.367188 81.28125 16.902344 C 81.410156 17.160156 81.539062 17.417969 81.660156 17.679688 C 81.742188 17.839844 82.019531 18.230469 82.007812 18.40625 C 82.117188 17.167969 82.351562 15.882812 82.792969 14.695312 C 83.273438 13.386719 84.003906 12.191406 85.085938 11.300781 C 85.136719 11.347656 85.179688 11.394531 85.222656 11.453125 C 84.167969 12.324219 83.453125 13.492188 82.980469 14.769531 C 82.507812 16.058594 82.273438 17.457031 82.183594 18.78125 C 82.183594 18.785156 82.179688 18.789062 82.179688 18.792969 C 82.644531 19.824219 83.078125 20.863281 83.480469 21.921875 C 84.246094 23.949219 84.886719 26.007812 85.417969 28.085938 C 86.125 24.828125 87.539062 21.753906 89.507812 19.078125 C 89.472656 19.03125 89.46875 18.964844 89.535156 18.929688 C 89.578125 18.910156 89.621094 18.886719 89.664062 18.867188 C 90.847656 17.296875 92.222656 15.875 93.757812 14.640625 C 93.953125 14.480469 94.152344 14.324219 94.355469 14.171875 C 94.363281 14.160156 94.371094 14.152344 94.386719 14.140625 C 94.445312 14.101562 94.503906 14.0625 94.558594 14.023438 C 94.664062 13.945312 94.765625 13.867188 94.871094 13.792969 C 94.886719 13.78125 94.902344 13.777344 94.921875 13.777344 C 95.898438 13.109375 96.917969 12.511719 97.984375 11.992188 C 98.015625 12.050781 98.042969 12.117188 98.066406 12.179688 C 96.878906 12.765625 95.742188 13.445312 94.65625 14.207031 C 94.402344 14.394531 94.148438 14.589844 93.902344 14.789062 C 92.476562 15.929688 91.191406 17.234375 90.078125 18.667969 C 91.105469 18.195312 92.1875 17.875 93.292969 17.707031 C 94.640625 17.496094 96.023438 17.511719 97.378906 17.757812 " fill-opacity="1" fill-rule="nonzero"/><path fill="#ffc799" d="M 93.210938 65.09375 C 93.183594 68.894531 92.707031 71.796875 85.761719 71.796875 C 78.820312 71.796875 78.34375 68.894531 78.316406 65.09375 C 78.316406 64.664062 78.316406 64.226562 78.316406 63.777344 C 78.316406 63.316406 78.355469 62.863281 78.421875 62.421875 C 78.625 61.164062 79.09375 60.007812 79.769531 59.019531 L 91.757812 59.019531 C 92.429688 60.007812 92.902344 61.164062 93.101562 62.421875 C 93.171875 62.863281 93.210938 63.316406 93.210938 63.777344 C 93.210938 64.226562 93.210938 64.664062 93.210938 65.09375 " fill-opacity="1" fill-rule="nonzero"/><path fill="#ffffff" d="M 93.210938 65.09375 L 78.316406 65.09375 C 78.316406 64.664062 78.316406 64.226562 78.316406 63.777344 C 78.316406 63.316406 78.355469 62.863281 78.421875 62.421875 L 93.101562 62.421875 C 93.171875 62.863281 93.210938 63.316406 93.210938 63.777344 C 93.210938 64.226562 93.210938 64.664062 93.210938 65.09375 " fill-opacity="1" fill-rule="nonzero"/><path fill="#ffc799" d="M 92.28125 62.421875 L 92.28125 65.09375 L 92.070312 65.09375 L 92.070312 62.421875 L 92.28125 62.421875 " fill-opacity="1" fill-rule="nonzero"/><path fill="#ffc799" d="M 89.75 62.421875 L 89.75 65.09375 L 89.542969 65.09375 L 89.542969 62.421875 L 89.75 62.421875 " fill-opacity="1" fill-rule="nonzero"/><path fill="#ffc799" d="M 87.222656 62.421875 L 87.222656 65.09375 L 87.015625 65.09375 L 87.015625 62.421875 L 87.222656 62.421875 " fill-opacity="1" fill-rule="nonzero"/><path fill="#ffc799" d="M 84.691406 62.421875 L 84.691406 65.09375 L 84.484375 65.09375 L 84.484375 62.421875 L 84.691406 62.421875 " fill-opacity="1" fill-rule="nonzero"/><path fill="#ffc799" d="M 82.164062 62.421875 L 82.164062 65.09375 L 81.957031 65.09375 L 81.957031 62.421875 L 82.164062 62.421875 " fill-opacity="1" fill-rule="nonzero"/><path fill="#ffc799" d="M 79.636719 62.421875 L 79.636719 65.09375 L 79.429688 65.09375 L 79.429688 62.421875 L 79.636719 62.421875 " fill-opacity="1" fill-rule="nonzero"/><path fill="#ff9d87" d="M 62.238281 70.089844 L 62.875 78.585938 L 62.808594 84.523438 L 62.089844 85.386719 L 60.785156 84.449219 C 60.785156 84.449219 58.765625 72.902344 59.054688 70.535156 C 59.339844 68.167969 59.839844 66.5 59.984375 66.367188 C 60.128906 66.238281 62.238281 70.089844 62.238281 70.089844 " fill-opacity="1" fill-rule="nonzero"/><path fill="#e66b3e" d="M 63.78125 88.5625 C 63.71875 88.714844 62.988281 88.984375 61.804688 88.984375 C 60.625 88.984375 60.121094 88.714844 60.136719 88.347656 C 60.140625 88.324219 60.144531 88.292969 60.144531 88.25 C 60.148438 88.226562 60.152344 88.203125 60.152344 88.175781 C 60.160156 88.128906 60.164062 88.070312 60.175781 88 C 60.175781 87.992188 60.175781 87.984375 60.175781 87.972656 C 60.285156 87.089844 60.589844 85.070312 60.65625 84.789062 C 60.738281 84.449219 60.65625 84.273438 61.402344 84.039062 C 62.144531 83.804688 62.808594 84.519531 62.808594 84.519531 C 62.808594 84.519531 63.5 86.808594 63.726562 87.953125 C 63.726562 87.953125 63.726562 87.953125 63.726562 87.957031 C 63.742188 88.027344 63.753906 88.101562 63.765625 88.164062 C 63.765625 88.175781 63.769531 88.191406 63.769531 88.207031 C 63.796875 88.386719 63.804688 88.511719 63.78125 88.5625 " fill-opacity="1" fill-rule="nonzero"/><path fill="#ff9d87" d="M 50.515625 85.109375 C 50.472656 84.992188 50.441406 84.839844 50.410156 84.675781 C 50.296875 83.960938 50.511719 80.238281 50.511719 80.238281 L 47.796875 80.238281 L 48.148438 83.75 C 48.101562 83.832031 48.046875 83.914062 47.988281 83.988281 C 47.6875 84.378906 47.253906 84.71875 46.871094 84.984375 C 46.816406 85.023438 46.761719 85.058594 46.707031 85.097656 C 46.679688 85.113281 46.652344 85.132812 46.628906 85.152344 C 46.453125 85.269531 46.277344 85.382812 46.09375 85.484375 C 46.035156 85.519531 45.976562 85.554688 45.917969 85.585938 C 45.753906 85.675781 45.589844 85.761719 45.421875 85.839844 C 44.957031 86.054688 43.390625 86.707031 43.230469 87.097656 C 43.101562 87.402344 43.3125 87.738281 43.640625 87.757812 C 43.898438 87.769531 44.175781 87.785156 44.359375 87.792969 C 46.351562 87.867188 50.710938 87.597656 50.710938 87.597656 C 51.078125 86.953125 50.738281 85.75 50.515625 85.109375 " fill-opacity="1" fill-rule="nonzero"/><path fill="#e66b3e" d="M 50.929688 87.136719 C 50.929688 87.167969 50.921875 87.203125 50.921875 87.234375 C 50.917969 87.289062 50.910156 87.335938 50.90625 87.382812 C 50.90625 87.40625 50.902344 87.425781 50.902344 87.449219 C 50.875 87.636719 50.847656 87.773438 50.8125 87.804688 C 50.703125 87.910156 43.265625 87.925781 43.191406 87.894531 C 43.167969 87.882812 43.136719 87.773438 43.121094 87.625 C 43.117188 87.585938 43.117188 87.542969 43.117188 87.496094 C 43.113281 87.472656 43.113281 87.445312 43.113281 87.417969 C 43.113281 87.363281 43.117188 87.304688 43.121094 87.25 C 43.140625 87.050781 43.195312 86.855469 43.300781 86.71875 C 43.578125 86.367188 44.808594 86 45.488281 85.707031 C 45.609375 85.664062 45.730469 85.589844 45.867188 85.5 C 45.921875 85.46875 45.972656 85.429688 46.03125 85.390625 C 46.089844 85.351562 46.144531 85.308594 46.203125 85.265625 C 46.257812 85.226562 46.3125 85.179688 46.367188 85.136719 C 46.445312 85.074219 46.527344 85.011719 46.601562 84.949219 C 46.65625 84.90625 46.707031 84.863281 46.757812 84.820312 C 46.78125 84.800781 46.804688 84.78125 46.828125 84.761719 C 46.882812 84.714844 46.933594 84.667969 46.984375 84.628906 C 47.285156 84.371094 47.554688 84.140625 47.714844 84.035156 C 47.792969 83.980469 47.890625 83.972656 47.984375 83.988281 C 48.421875 84.066406 48.957031 84.675781 48.957031 84.675781 C 48.957031 84.675781 49.984375 84.515625 50.414062 84.675781 C 50.503906 84.707031 50.570312 84.757812 50.589844 84.828125 C 50.703125 85.21875 50.882812 85.484375 50.933594 86.066406 C 50.957031 86.359375 50.953125 86.78125 50.929688 87.136719 " fill-opacity="1" fill-rule="nonzero"/><path fill="#464752" d="M 63.496094 73.199219 C 63.289062 68.65625 61.882812 46.359375 61.882812 46.359375 C 61.882812 46.359375 61.226562 42.488281 59.308594 41.6875 C 57.527344 40.945312 55.460938 41.582031 53.777344 42.300781 C 52.839844 42.699219 51.761719 43.171875 51.023438 43.886719 C 50.238281 44.644531 50.617188 45.445312 50.980469 46.328125 C 51.476562 47.539062 51.96875 48.753906 52.464844 49.964844 C 52.757812 50.675781 53.082031 51.300781 53.761719 51.585938 C 54.550781 59.179688 56.4375 66.601562 57.433594 74.171875 C 57.710938 76.269531 57.949219 78.371094 58.378906 80.441406 C 58.394531 80.511719 58.40625 80.578125 58.425781 80.648438 C 58.484375 80.925781 58.546875 81.203125 58.613281 81.476562 C 58.621094 81.523438 58.667969 81.550781 58.710938 81.554688 C 59.859375 81.605469 61.867188 81.605469 63.007812 81.457031 C 63.808594 81.351562 63.929688 80.902344 63.929688 80.167969 L 63.929688 79.957031 C 63.921875 77.699219 63.59375 75.449219 63.496094 73.199219 " fill-opacity="1" fill-rule="nonzero"/><path fill="#464752" d="M 54.707031 44.757812 C 54.671875 44.363281 54.582031 43.871094 54.199219 43.65625 C 53.667969 43.363281 52.871094 43.789062 52.355469 43.917969 C 51.417969 44.144531 50.464844 44.316406 49.503906 44.421875 C 48.597656 44.523438 47.6875 44.566406 46.777344 44.558594 C 46.203125 44.550781 45.367188 44.625 44.75 44.394531 C 44.761719 44.199219 44.765625 44 44.773438 43.804688 C 44.777344 43.671875 44.566406 43.671875 44.5625 43.804688 C 44.558594 43.96875 44.554688 44.136719 44.546875 44.300781 C 44.417969 44.226562 44.300781 44.136719 44.203125 44.019531 C 44.121094 43.917969 43.976562 44.0625 44.058594 44.167969 C 44.195312 44.335938 44.359375 44.445312 44.539062 44.527344 C 44.378906 49.253906 45.78125 68.582031 46.132812 73.554688 C 46.296875 75.890625 46.425781 78.234375 46.554688 80.578125 C 46.558594 80.65625 46.5625 80.730469 46.566406 80.804688 C 46.589844 81.214844 46.613281 81.621094 46.632812 82.03125 C 46.632812 82.085938 46.675781 82.125 46.726562 82.128906 C 46.738281 82.148438 46.753906 82.164062 46.78125 82.171875 C 48.101562 82.605469 49.707031 83.003906 51.105469 82.824219 C 51.457031 82.78125 52.128906 82.578125 52.292969 82.214844 C 52.347656 82.09375 52.351562 81.910156 52.347656 81.738281 C 52.347656 81.660156 52.347656 81.585938 52.34375 81.523438 C 52.34375 81.484375 52.34375 81.453125 52.34375 81.421875 C 52.34375 81.40625 52.339844 81.398438 52.339844 81.386719 C 52.585938 79.816406 52.816406 78.25 52.742188 76.65625 C 52.664062 75.023438 52.503906 73.433594 52.597656 71.796875 C 52.78125 68.625 53.007812 65.449219 53.351562 62.289062 C 53.371094 62.101562 53.394531 61.917969 53.414062 61.730469 C 53.699219 59.226562 53.871094 56.738281 54.109375 54.246094 C 54.183594 53.46875 54.265625 52.695312 54.359375 51.914062 C 54.550781 50.316406 54.691406 48.710938 54.734375 47.101562 C 54.75 46.328125 54.773438 45.535156 54.707031 44.757812 " fill-opacity="1" fill-rule="nonzero"/><path fill="#242630" d="M 53.933594 53.601562 C 53.691406 52.734375 53.464844 51.863281 53.207031 51.003906 C 53.074219 50.5625 52.914062 50.15625 52.464844 49.976562 C 52.402344 49.953125 52.328125 50.015625 52.332031 50.078125 C 52.472656 52.960938 52.558594 55.855469 52.773438 58.734375 C 52.863281 59.941406 53.039062 61.125 53.351562 62.289062 C 53.371094 62.101562 53.394531 61.917969 53.414062 61.730469 C 53.699219 59.226562 53.871094 56.738281 54.109375 54.246094 C 54.050781 54.03125 53.992188 53.816406 53.933594 53.601562 " fill-opacity="1" fill-rule="nonzero"/><path fill="#e6684b" d="M 34.453125 25.171875 L 36.984375 15.476562 L 40.800781 20.152344 L 38.132812 26.15625 L 34.453125 25.171875 " fill-opacity="1" fill-rule="nonzero"/><path fill="#464752" d="M 61.902344 39.71875 C 61.859375 40.039062 61.769531 40.355469 61.601562 40.664062 C 61.53125 40.792969 61.335938 40.675781 61.40625 40.546875 C 61.550781 40.285156 61.632812 40.003906 61.675781 39.71875 C 60.359375 39.710938 59.042969 40.191406 57.765625 40.441406 C 56.542969 40.675781 55.308594 40.859375 54.066406 40.984375 C 51.679688 41.226562 48.589844 41.261719 46.195312 41.078125 C 45.914062 41.058594 45.074219 41.085938 44.835938 40.902344 C 44.554688 40.679688 44.496094 40.15625 44.402344 39.847656 C 44.050781 38.707031 43.722656 37.558594 43.417969 36.410156 C 42.609375 33.355469 41.980469 30.246094 41.621094 27.109375 C 40.84375 24.386719 39.253906 20.316406 38.785156 17.511719 C 38.648438 16.6875 38.570312 15.855469 38.585938 15.023438 C 38.597656 14.4375 38.496094 13.636719 39.113281 13.351562 C 40.089844 12.902344 41.195312 12.636719 42.292969 12.472656 C 42.367188 12.460938 42.4375 12.453125 42.507812 12.441406 C 42.792969 12.402344 43.082031 12.367188 43.363281 12.34375 C 43.699219 12.253906 43.832031 11.855469 44.210938 11.773438 C 44.726562 11.664062 45.75 11.667969 46.273438 11.632812 C 47.050781 11.582031 47.828125 11.492188 48.597656 11.449219 C 48.667969 11.445312 48.734375 11.441406 48.808594 11.441406 C 50.117188 11.375 51.394531 11.460938 52.585938 12.070312 C 53.71875 12.652344 54.597656 13.621094 55.238281 14.703125 C 55.9375 15.878906 56.253906 17.210938 56.605469 18.53125 C 57.265625 21.035156 58.328125 25.003906 58.898438 27.519531 C 59.316406 29.378906 59.65625 31.300781 60.265625 33.113281 C 60.734375 34.511719 61.171875 35.925781 61.570312 37.347656 C 61.765625 38.050781 61.960938 38.789062 61.921875 39.503906 C 62.011719 39.546875 62.003906 39.699219 61.902344 39.71875 " fill-opacity="1" fill-rule="nonzero"/><path fill="#464752" d="M 41.5625 24.683594 C 41.394531 24.824219 41.15625 24.972656 40.9375 24.976562 C 40.84375 24.976562 40.753906 24.953125 40.667969 24.890625 C 40.300781 24.617188 39.8125 24.53125 39.367188 24.382812 C 39.234375 24.339844 39.105469 24.292969 38.984375 24.230469 C 38.453125 23.972656 37.929688 23.632812 37.40625 23.402344 C 36.515625 23.015625 35.550781 22.757812 34.578125 22.722656 C 34.519531 22.722656 34.472656 22.675781 34.472656 22.617188 C 34.46875 22.085938 34.660156 21.53125 34.816406 21.027344 C 34.992188 20.457031 35.167969 19.898438 35.316406 19.324219 C 35.53125 18.492188 35.824219 17.691406 36.128906 16.890625 C 36.125 16.890625 36.125 16.886719 36.125 16.886719 C 36.324219 16.117188 36.695312 15.378906 37.210938 14.773438 C 37.449219 14.492188 37.71875 14.238281 38.015625 14.015625 C 38.25 13.84375 38.632812 13.5 38.925781 13.46875 C 38.925781 13.46875 39.757812 13.386719 39.816406 13.390625 C 39.660156 13.441406 40.707031 16.457031 41.085938 17.496094 C 41.371094 18.28125 41.878906 19.175781 41.703125 20.035156 C 41.574219 20.671875 41.476562 22.101562 41.238281 23.101562 C 41.613281 23.589844 42.078125 24.261719 41.5625 24.683594 " fill-opacity="1" fill-rule="nonzero"/><path fill="#242630" d="M 59.375 36.613281 C 58.8125 34.871094 58.257812 33.140625 57.851562 31.351562 C 57.015625 27.667969 56.375 23.929688 55.65625 20.222656 C 55.628906 20.089844 55.429688 20.15625 55.457031 20.285156 C 56.164062 23.929688 56.800781 27.597656 57.609375 31.222656 C 57.992188 32.949219 58.503906 34.628906 59.054688 36.308594 C 59.632812 38.070312 60.164062 39.855469 60.214844 41.722656 C 60.21875 41.855469 60.429688 41.847656 60.425781 41.714844 C 60.378906 39.960938 59.910156 38.273438 59.375 36.613281 " fill-opacity="1" fill-rule="nonzero"/><path fill="#242630" d="M 48.808594 11.441406 C 48.746094 12.804688 48.597656 14.167969 48.359375 15.515625 C 48.191406 16.480469 47.976562 17.4375 47.714844 18.382812 C 47.589844 18.851562 47.527344 19.328125 47.3125 19.765625 C 47.21875 19.953125 47.089844 20.160156 46.875 20.210938 C 46.265625 20.355469 45.84375 19.648438 45.558594 19.234375 C 45.015625 18.449219 44.546875 17.617188 44.113281 16.765625 C 43.417969 15.398438 42.710938 13.96875 42.292969 12.472656 C 42.199219 12.128906 42.121094 11.785156 42.0625 11.433594 C 42.039062 11.304688 42.242188 11.246094 42.261719 11.378906 C 42.328125 11.738281 42.40625 12.09375 42.507812 12.441406 C 42.863281 13.695312 43.429688 14.890625 43.996094 16.0625 C 44.347656 16.78125 44.714844 17.484375 45.121094 18.167969 C 45.316406 18.496094 45.523438 18.816406 45.738281 19.132812 C 46.027344 19.550781 46.644531 20.539062 47.15625 19.546875 C 47.335938 19.195312 47.410156 18.710938 47.515625 18.324219 C 47.617188 17.949219 47.714844 17.570312 47.804688 17.1875 C 48 16.359375 48.15625 15.523438 48.285156 14.683594 C 48.445312 13.613281 48.546875 12.535156 48.597656 11.449219 C 48.667969 11.445312 48.734375 11.441406 48.808594 11.441406 " fill-opacity="1" fill-rule="nonzero"/><path fill="#ffffff" d="M 44.109375 13.808594 C 44.109375 13.808594 45.921875 18.910156 46.582031 18.910156 C 47.066406 18.910156 47.464844 12.816406 47.464844 12.816406 L 45.578125 13.394531 L 44.109375 13.808594 " fill-opacity="1" fill-rule="nonzero"/><path fill="#ff9d87" d="M 110.691406 43.351562 C 110.679688 43.285156 110.660156 43.214844 110.628906 43.152344 C 110.519531 42.890625 110.308594 42.667969 110.082031 42.5625 C 109.367188 42.238281 108.464844 42.160156 107.691406 42.066406 C 106.652344 41.941406 105.703125 41.582031 104.8125 41.03125 C 104.246094 40.675781 103.613281 39.867188 102.867188 40.011719 C 102.496094 40.085938 102.214844 40.328125 101.972656 40.601562 C 101.582031 41.042969 101.234375 41.53125 100.871094 41.992188 C 100.800781 42.082031 100.898438 42.207031 100.980469 42.171875 C 100.984375 42.289062 101.011719 42.414062 101.019531 42.515625 C 101.039062 42.890625 100.992188 43.363281 101.15625 43.714844 C 101.441406 44.320312 102.214844 44.296875 102.777344 44.296875 C 103.847656 44.300781 104.917969 44.300781 105.984375 44.304688 C 106.996094 44.304688 108.027344 44.363281 109.035156 44.28125 C 109.449219 44.25 110.5 44.234375 110.667969 43.769531 C 110.71875 43.636719 110.722656 43.492188 110.691406 43.351562 " fill-opacity="1" fill-rule="nonzero"/><path fill="#ff9d87" d="M 103.332031 42.542969 L 102.140625 43.957031 C 102.140625 43.957031 101.761719 43.964844 101.121094 43.976562 C 100.960938 43.980469 100.785156 43.984375 100.59375 43.988281 C 99.21875 44.011719 97.089844 44.039062 94.898438 44.03125 L 95.332031 40.910156 L 97.519531 41.105469 L 101.039062 41.488281 L 101.816406 41.574219 L 102.503906 41.648438 L 103.332031 42.542969 " fill-opacity="1" fill-rule="nonzero"/><path fill="#944426" d="M 98.183594 41.460938 C 98.179688 41.527344 98.179688 41.597656 98.175781 41.667969 C 98.117188 42.984375 97.984375 44.316406 97.984375 44.316406 L 48.882812 45.019531 L 50.414062 40.566406 L 50.484375 40.363281 L 52.089844 35.6875 C 52.089844 35.6875 53.792969 34.851562 56.066406 34.230469 C 56.144531 34.207031 56.21875 34.1875 56.296875 34.167969 C 57.707031 33.800781 59.3125 33.527344 60.863281 33.589844 C 61.074219 33.597656 61.277344 33.613281 61.476562 33.632812 C 61.539062 33.636719 61.59375 33.644531 61.652344 33.652344 C 65.328125 34.058594 67.386719 36.175781 70.058594 36.582031 C 72.910156 37.019531 77.089844 38.070312 78.761719 37.894531 C 78.832031 37.882812 78.902344 37.875 78.976562 37.867188 C 79.042969 37.859375 79.113281 37.851562 79.183594 37.84375 C 79.355469 37.820312 79.53125 37.800781 79.714844 37.773438 C 79.785156 37.765625 79.855469 37.757812 79.925781 37.75 C 81.460938 37.554688 83.382812 37.363281 85.519531 37.914062 C 88.234375 38.613281 90.113281 38.226562 92.480469 38.488281 C 94.847656 38.753906 97.496094 38.707031 97.984375 39.113281 C 98.199219 39.292969 98.226562 40.347656 98.183594 41.460938 " fill-opacity="1" fill-rule="nonzero"/><path fill="#6e270d" d="M 98.183594 41.460938 C 98.179688 41.527344 98.179688 41.597656 98.175781 41.667969 C 95.300781 41.652344 92.429688 41.636719 89.554688 41.621094 C 86.171875 41.605469 82.789062 41.605469 79.402344 41.570312 C 79.203125 41.570312 79.003906 41.566406 78.804688 41.5625 C 78.625 41.558594 78.410156 41.519531 78.238281 41.570312 C 78.199219 41.578125 78.167969 41.589844 78.128906 41.59375 C 78.085938 41.601562 78.03125 41.597656 78.042969 41.542969 C 77.777344 41.507812 77.492188 41.519531 77.222656 41.5 C 76.949219 41.484375 76.671875 41.464844 76.394531 41.4375 C 75.832031 41.386719 75.273438 41.308594 74.71875 41.207031 C 73 40.882812 71.351562 40.460938 69.585938 40.53125 C 67.902344 40.59375 66.234375 40.851562 64.550781 40.914062 C 62.921875 40.976562 61.292969 40.945312 59.667969 40.894531 C 56.582031 40.800781 53.496094 40.675781 50.414062 40.566406 C 50.035156 40.550781 49.660156 40.539062 49.28125 40.523438 C 49.148438 40.519531 49.152344 40.3125 49.285156 40.316406 C 49.683594 40.332031 50.085938 40.34375 50.484375 40.363281 C 53.953125 40.492188 57.421875 40.644531 60.890625 40.722656 C 62.519531 40.757812 64.148438 40.753906 65.773438 40.640625 C 67.445312 40.527344 69.113281 40.238281 70.792969 40.324219 C 72.410156 40.40625 73.957031 40.910156 75.546875 41.132812 C 76.414062 41.257812 77.285156 41.3125 78.160156 41.339844 C 78.800781 40.289062 79.082031 39.085938 78.976562 37.867188 C 79.042969 37.859375 79.113281 37.851562 79.183594 37.84375 C 79.289062 39.070312 79.019531 40.28125 78.398438 41.347656 C 79.144531 41.363281 79.890625 41.367188 80.636719 41.371094 C 86.484375 41.398438 92.332031 41.429688 98.183594 41.460938 " fill-opacity="1" fill-rule="nonzero"/><path fill="#e6684b" d="M 19.898438 40.023438 C 19.175781 40.144531 18.4375 40.40625 18.03125 41.046875 C 17.976562 41.136719 18.066406 41.214844 18.144531 41.199219 C 18.285156 41.789062 19.183594 41.414062 19.570312 41.3125 C 20.023438 41.191406 20.949219 41.027344 21 40.421875 C 21.054688 39.800781 20.285156 39.960938 19.898438 40.023438 " fill-opacity="1" fill-rule="nonzero"/><path fill="#464752" d="M 20.230469 39.363281 C 20.195312 39.476562 20.160156 39.589844 20.125 39.703125 C 19.847656 40.613281 19.4375 41.683594 20.207031 42.5 C 20.761719 43.085938 21.371094 43.882812 22.175781 44.070312 C 23.183594 44.304688 24.464844 43.804688 25.496094 43.921875 C 27.867188 44.1875 30.21875 44.035156 32.582031 43.929688 C 33.15625 43.902344 33.765625 43.878906 34.277344 43.628906 C 34.765625 43.390625 34.71875 43.089844 34.710938 42.636719 C 34.703125 42.09375 34.800781 41.453125 34.539062 40.941406 C 34.273438 40.421875 33.660156 39.914062 33.175781 39.554688 C 32.113281 38.761719 30.734375 38.480469 29.496094 37.96875 C 28.101562 37.398438 26.804688 36.5 25.28125 36.210938 C 24.75 36.109375 24.191406 36.085938 23.671875 36.238281 C 23.066406 36.417969 22.683594 36.828125 22.234375 37.199219 C 21.796875 37.5625 21.246094 37.839844 20.859375 38.242188 C 20.640625 38.46875 20.457031 38.722656 20.347656 39.007812 C 20.308594 39.105469 20.277344 39.203125 20.246094 39.304688 C 20.242188 39.324219 20.234375 39.34375 20.230469 39.363281 " fill-opacity="1" fill-rule="nonzero"/><path fill="#ff9d87" d="M 18.246094 41.734375 C 17.304688 42.84375 17.550781 44.960938 19.671875 44.71875 C 21.796875 44.476562 32.523438 40.382812 32.523438 40.382812 L 29.25 35.523438 C 29.25 35.523438 19.183594 40.625 18.246094 41.734375 " fill-opacity="1" fill-rule="nonzero"/><path fill="#ff9d87" d="M 18.726562 41.511719 C 18.476562 41.101562 18.132812 40.734375 17.632812 40.648438 C 16.933594 40.53125 16.484375 41.199219 15.890625 41.441406 C 15.433594 41.628906 15.445312 41.828125 15.351562 42.359375 C 15.253906 42.90625 15.78125 43.574219 16.117188 43.980469 C 16.789062 44.796875 17.621094 45.378906 18.320312 44.242188 C 18.496094 43.953125 18.574219 43.621094 18.671875 43.300781 C 18.773438 42.964844 18.960938 42.625 19.007812 42.28125 C 19.046875 41.96875 18.953125 41.671875 18.726562 41.511719 " fill-opacity="1" fill-rule="nonzero"/><path fill="#e6684b" d="M 18.894531 41.675781 C 18.851562 41.554688 18.648438 41.605469 18.695312 41.734375 C 18.863281 42.195312 18.984375 42.691406 18.863281 43.175781 C 18.839844 43.265625 18.804688 43.347656 18.761719 43.429688 C 18.761719 43.425781 18.761719 43.421875 18.761719 43.414062 C 18.398438 42.589844 17.957031 41.8125 17.441406 41.074219 C 17.363281 40.964844 17.183594 41.070312 17.261719 41.179688 C 17.777344 41.917969 18.214844 42.695312 18.578125 43.519531 C 18.601562 43.570312 18.648438 43.582031 18.6875 43.566406 C 18.503906 43.863281 18.230469 44.128906 17.996094 44.367188 C 17.898438 44.464844 18.046875 44.613281 18.140625 44.515625 C 18.480469 44.171875 18.972656 43.71875 19.09375 43.234375 C 19.21875 42.738281 19.066406 42.144531 18.894531 41.675781 " fill-opacity="1" fill-rule="nonzero"/><path fill="#e6684b" d="M 18.074219 43.824219 C 17.691406 43.117188 17.28125 42.421875 16.839844 41.75 C 16.769531 41.636719 16.585938 41.742188 16.660156 41.855469 C 17.101562 42.527344 17.511719 43.21875 17.890625 43.929688 C 17.957031 44.046875 18.136719 43.941406 18.074219 43.824219 " fill-opacity="1" fill-rule="nonzero"/><path fill="#e6684b" d="M 17.15625 44.109375 C 16.785156 43.460938 16.414062 42.8125 16.039062 42.167969 C 15.972656 42.050781 15.792969 42.15625 15.859375 42.269531 C 16.230469 42.917969 16.605469 43.566406 16.976562 44.214844 C 17.042969 44.328125 17.222656 44.226562 17.15625 44.109375 " fill-opacity="1" fill-rule="nonzero"/><path fill="#944426" d="M 20.273438 30.242188 C 19.996094 30.132812 19.699219 30.054688 19.398438 30.070312 C 19.261719 30.074219 19.136719 30.125 19.007812 30.132812 C 18.621094 30.160156 18.605469 30.015625 18.433594 29.804688 C 18.324219 29.671875 18.1875 29.609375 18.054688 29.625 C 18.230469 29.378906 18.421875 29.148438 18.601562 28.933594 C 18.6875 28.828125 18.542969 28.683594 18.457031 28.785156 C 18.175781 29.117188 17.882812 29.472656 17.664062 29.859375 C 17.164062 30.042969 16.832031 30.65625 16.832031 31.226562 C 16.832031 31.363281 16.886719 31.515625 16.84375 31.652344 C 16.804688 31.78125 16.679688 31.898438 16.621094 32.019531 C 16.523438 32.21875 16.460938 32.425781 16.464844 32.648438 C 16.46875 33.117188 17.132812 33.578125 16.964844 33.980469 C 16.679688 34.671875 16.78125 35.496094 17.183594 36.128906 C 17.355469 36.398438 17.519531 36.613281 17.851562 36.578125 C 18.054688 36.558594 18.238281 36.472656 18.402344 36.359375 C 18.730469 36.441406 19.070312 36.449219 19.402344 36.324219 C 20.003906 36.101562 20.246094 35.523438 20.730469 35.160156 C 20.957031 34.992188 20.953125 35.125 21.203125 35.042969 C 21.445312 34.964844 21.660156 34.675781 21.800781 34.472656 C 22.128906 34 22.378906 33.351562 22.398438 32.773438 C 22.449219 31.574219 21.292969 30.644531 20.273438 30.242188 " fill-opacity="1" fill-rule="nonzero"/><path fill="#944426" d="M 25.296875 26.707031 C 24.976562 26.503906 24.628906 26.339844 24.265625 26.222656 C 22.90625 25.785156 21.277344 26.046875 20.015625 26.675781 C 19.117188 27.125 18.167969 27.925781 17.796875 28.898438 C 17.414062 29.898438 17.480469 30.871094 17.914062 31.816406 C 17.96875 31.9375 18.304688 31.929688 18.25 31.808594 C 18.230469 31.769531 18.210938 31.730469 18.195312 31.6875 C 18.972656 30.839844 20.566406 31.976562 21.261719 32.453125 C 22.066406 33 22.839844 33.613281 23.753906 33.976562 C 24.546875 34.285156 25.515625 34.4375 26.230469 33.871094 C 26.882812 33.355469 27.121094 32.527344 27.183594 31.730469 C 27.3125 30.058594 27.125 28.140625 25.726562 27.015625 C 25.589844 26.902344 25.445312 26.800781 25.296875 26.707031 " fill-opacity="1" fill-rule="nonzero"/><path fill="#ff9d87" d="M 27.027344 34.476562 C 27.085938 34.359375 27.128906 34.210938 27.15625 34.042969 C 27.414062 32.527344 26.523438 29.101562 24.082031 27.890625 C 21.367188 26.542969 20.050781 27.726562 19.039062 28.316406 C 18.082031 28.871094 17.605469 30.917969 17.972656 31.804688 C 17.996094 31.855469 18.015625 31.902344 18.042969 31.945312 C 18.496094 32.664062 19.972656 35.058594 21.027344 36.503906 C 21.070312 36.558594 21.105469 36.609375 21.144531 36.660156 C 21.203125 36.738281 21.261719 36.816406 21.316406 36.886719 C 22.371094 38.25 22.6875 37.964844 23.398438 37.550781 C 24.105469 37.140625 26.460938 35.621094 27.027344 34.476562 " fill-opacity="1" fill-rule="nonzero"/><path fill="#ff9d87" d="M 24.46875 36.226562 C 24.574219 36.226562 27.8125 37.277344 27.851562 37.277344 C 27.890625 37.277344 29.914062 32.960938 29.914062 32.960938 L 25.8125 32.582031 L 24.46875 36.226562 " fill-opacity="1" fill-rule="nonzero"/><path fill="#e6684b" d="M 25.34375 34.878906 C 24.972656 35.03125 24.835938 35.445312 24.863281 35.820312 C 24.867188 35.878906 24.878906 35.941406 24.921875 35.976562 C 24.96875 36.015625 25.054688 36 25.0625 35.941406 C 25.019531 36.242188 25.109375 36.597656 25.449219 36.371094 C 25.785156 36.148438 25.992188 35.746094 25.972656 35.34375 C 25.957031 34.976562 25.726562 34.722656 25.34375 34.878906 " fill-opacity="1" fill-rule="nonzero"/><path fill="#464752" d="M 27.53125 36.546875 C 27.324219 36.003906 26.554688 35.71875 26.035156 35.621094 C 25.457031 35.511719 24.835938 35.578125 24.324219 35.886719 C 23.957031 36.105469 23.679688 36.445312 23.308594 36.671875 C 22.980469 36.871094 22.617188 37.007812 22.273438 37.179688 C 21.703125 37.472656 21.191406 37.863281 21.007812 38.5 C 20.96875 38.628906 21.171875 38.683594 21.210938 38.554688 C 21.285156 38.292969 21.417969 38.085938 21.582031 37.910156 C 22.097656 39.054688 23.925781 39.070312 24.964844 38.917969 C 25.632812 38.824219 26.289062 38.578125 26.808594 38.136719 C 27.230469 37.78125 27.757812 37.140625 27.53125 36.546875 " fill-opacity="1" fill-rule="nonzero"/><path fill="#ff9d87" d="M 38.199219 26.003906 C 37.898438 27.71875 35.335938 33.261719 35.335938 33.261719 L 33.265625 33.101562 C 33.265625 33.101562 34.109375 25.640625 34.449219 25.171875 C 34.863281 24.609375 36.128906 24.058594 36.796875 24.160156 C 37.335938 24.242188 38.199219 25.050781 38.199219 26.003906 " fill-opacity="1" fill-rule="nonzero"/><path fill="#de8b5b" d="M 52.664062 35.480469 C 52.535156 35.128906 52.191406 34.933594 51.859375 34.804688 C 50.726562 34.367188 49.328125 34.464844 48.140625 34.503906 C 47.605469 34.523438 47.027344 34.609375 46.453125 34.660156 C 44.957031 34.300781 43.484375 33.855469 42.015625 33.394531 C 39.074219 32.472656 35.871094 32.148438 32.800781 32.132812 C 32.082031 32.128906 31.363281 32.144531 30.652344 32.203125 C 30.082031 32.246094 29.492188 32.328125 29 32.640625 C 28.25 33.121094 27.871094 33.925781 27.515625 34.722656 C 27.339844 35.003906 27.1875 35.292969 27.0625 35.582031 C 26.488281 36.882812 26.65625 38.132812 27.566406 39.230469 C 28.085938 39.855469 28.710938 40.398438 29.300781 40.964844 C 29.929688 41.570312 30.542969 42.207031 31.207031 42.773438 C 32.273438 43.683594 33.601562 44.074219 34.96875 43.773438 C 39.574219 44.925781 44.503906 44.898438 49.214844 44.621094 C 50.082031 44.566406 50.691406 44.265625 51.03125 43.4375 C 51.472656 42.386719 51.710938 41.210938 51.957031 40.097656 C 52.21875 38.933594 52.429688 37.757812 52.617188 36.578125 C 52.671875 36.234375 52.792969 35.820312 52.664062 35.480469 " fill-opacity="1" fill-rule="nonzero"/><path fill="#ba5e29" d="M 45.910156 44.023438 C 44.746094 43.625 43.5625 43.28125 42.363281 43 C 41.78125 42.863281 41.191406 42.742188 40.601562 42.632812 C 40.03125 42.53125 39.402344 42.503906 38.855469 42.3125 C 38.359375 42.136719 37.832031 41.714844 37.496094 41.316406 C 37.292969 41.078125 37.1875 40.699219 36.828125 40.664062 C 36.414062 40.625 35.890625 41.007812 35.539062 41.171875 C 34.960938 41.4375 34.386719 41.703125 33.8125 41.972656 C 33.710938 42.015625 33.765625 42.140625 33.851562 42.15625 C 33.464844 42.691406 34.417969 43.324219 34.808594 43.601562 C 35.363281 43.992188 35.917969 44.480469 36.546875 44.746094 C 37.097656 44.976562 37.707031 44.976562 38.292969 45.019531 C 40.773438 45.195312 43.75 45.761719 45.9375 44.214844 C 46.011719 44.164062 46 44.054688 45.910156 44.023438 " fill-opacity="1" fill-rule="nonzero"/><path fill="#464752" d="M 34.089844 41.554688 C 32.558594 41.375 31.097656 42.003906 29.75 42.683594 C 29.789062 42.511719 29.839844 42.34375 29.898438 42.179688 C 29.945312 42.050781 29.742188 41.996094 29.699219 42.125 C 29.640625 42.285156 29.546875 42.542969 29.484375 42.816406 C 29.386719 42.867188 29.292969 42.917969 29.195312 42.964844 C 29.078125 43.027344 29.183594 43.207031 29.300781 43.148438 C 29.347656 43.125 29.390625 43.101562 29.4375 43.078125 C 29.382812 43.441406 29.414062 43.796875 29.65625 43.96875 C 30.1875 44.355469 31.1875 44.28125 31.800781 44.300781 C 32.800781 44.332031 33.804688 44.316406 34.804688 44.261719 C 35.316406 44.234375 35.988281 44.257812 36.199219 43.679688 C 36.648438 42.449219 35.046875 41.667969 34.089844 41.554688 " fill-opacity="1" fill-rule="nonzero"/><path fill="#ff9d87" d="M 20.933594 35.105469 C 20.777344 34.765625 20.191406 33.78125 19.703125 33.835938 C 19.652344 33.816406 19.5625 33.824219 19.5625 33.894531 C 19.570312 34.410156 19.570312 35.5 19.664062 35.992188 C 19.765625 36.539062 20.523438 36.363281 20.960938 36.058594 C 21.515625 35.675781 21.21875 35.730469 20.933594 35.105469 " fill-opacity="1" fill-rule="nonzero"/><path fill="#e6684b" d="M 22.011719 35.710938 C 22.058594 35.597656 21.890625 35.503906 21.839844 35.617188 C 21.691406 35.984375 21.375 36.273438 21.027344 36.503906 C 21.070312 36.558594 21.105469 36.609375 21.144531 36.660156 C 21.511719 36.414062 21.851562 36.097656 22.011719 35.710938 " fill-opacity="1" fill-rule="nonzero"/><path fill="#944426" d="M 23.992188 32.34375 C 23.378906 32.261719 23.058594 31.617188 22.675781 31.203125 C 22.035156 30.503906 21.15625 29.683594 20.148438 30.097656 C 19.277344 30.453125 18.535156 31.058594 17.972656 31.804688 C 17.605469 30.917969 17.90625 28.6875 18.863281 28.132812 C 19.3125 27.871094 20.734375 27.320312 20.8125 27.308594 C 20.988281 27.277344 21.171875 27.230469 21.351562 27.183594 C 21.800781 27.136719 23.632812 27.5 24.199219 27.730469 C 27.316406 28.980469 27.21875 32.710938 27.21875 32.710938 C 27.21875 32.710938 24.820312 32.457031 23.992188 32.34375 " fill-opacity="1" fill-rule="nonzero"/><path fill="#301c15" d="M 20.460938 33.273438 C 20.144531 33.21875 19.566406 33.460938 19.832031 33.859375 C 19.847656 33.882812 19.867188 33.90625 19.894531 33.914062 C 19.949219 33.929688 19.996094 33.878906 20.035156 33.839844 C 20.136719 33.722656 20.261719 33.628906 20.398438 33.554688 C 20.449219 33.527344 20.503906 33.503906 20.539062 33.457031 C 20.574219 33.414062 20.582031 33.339844 20.539062 33.300781 C 20.519531 33.285156 20.492188 33.277344 20.460938 33.273438 " fill-opacity="1" fill-rule="nonzero"/><path fill="#ff9d87" d="M 23.898438 30.554688 C 23.253906 30.296875 22.90625 30.796875 22.734375 31.328125 C 22.667969 31.304688 22.578125 31.34375 22.59375 31.433594 C 22.703125 32.097656 22.863281 33.042969 23.558594 33.363281 C 24.253906 33.6875 24.605469 32.828125 24.6875 32.289062 C 24.789062 31.617188 24.601562 30.839844 23.898438 30.554688 " fill-opacity="1" fill-rule="nonzero"/><path fill="#944426" d="M 20.683594 32.417969 C 20.675781 32.410156 20.667969 32.40625 20.660156 32.402344 C 20.410156 32.253906 20.101562 32.199219 19.816406 32.25 C 19.519531 32.304688 18.859375 32.621094 19.082031 33.023438 C 19.136719 33.121094 19.25 33.1875 19.363281 33.1875 C 19.515625 33.1875 19.640625 33.082031 19.761719 32.992188 C 19.988281 32.828125 20.242188 32.683594 20.519531 32.644531 C 20.574219 32.636719 20.625 32.632812 20.671875 32.605469 C 20.714844 32.582031 20.75 32.527344 20.734375 32.476562 C 20.726562 32.453125 20.703125 32.433594 20.683594 32.417969 " fill-opacity="1" fill-rule="nonzero"/><path fill="#944426" d="M 22.179688 24.433594 C 21.902344 24.199219 21.578125 24.078125 21.242188 24.046875 C 21.117188 23.886719 20.984375 23.746094 20.75 23.667969 C 20.375 23.546875 19.898438 23.535156 19.515625 23.640625 C 18.734375 23.859375 18.636719 24.511719 18.8125 25.195312 C 18.5 25.621094 18.457031 26.339844 18.796875 26.726562 C 19.074219 27.039062 19.511719 27.160156 19.914062 27.0625 C 20.242188 26.984375 20.546875 26.789062 20.859375 26.667969 C 21.234375 26.523438 21.617188 26.417969 22.003906 26.316406 C 22.390625 26.21875 22.816406 26.066406 22.882812 25.617188 C 22.953125 25.136719 22.511719 24.714844 22.179688 24.433594 " fill-opacity="1" fill-rule="nonzero"/><path fill="#6e270d" d="M 22.027344 26.164062 C 21.675781 26.175781 21.332031 26.21875 20.996094 26.292969 C 21.492188 25.738281 21.511719 24.96875 21.375 24.234375 C 21.351562 24.101562 21.148438 24.15625 21.171875 24.289062 C 21.222656 24.554688 21.253906 24.835938 21.238281 25.105469 C 21.140625 25 21.023438 24.902344 20.925781 24.800781 C 20.742188 24.613281 20.570312 24.414062 20.40625 24.207031 C 20.320312 24.101562 20.175781 24.25 20.257812 24.351562 C 20.40625 24.539062 20.558594 24.722656 20.722656 24.894531 C 20.875 25.050781 21.089844 25.199219 21.199219 25.390625 C 21.199219 25.390625 21.203125 25.394531 21.207031 25.398438 C 21.140625 25.757812 20.972656 26.089844 20.648438 26.339844 C 20.628906 26.355469 20.617188 26.371094 20.609375 26.390625 C 20.257812 26.496094 19.910156 26.632812 19.578125 26.800781 C 19.457031 26.863281 19.5625 27.042969 19.683594 26.984375 C 20.417969 26.605469 21.199219 26.402344 22.027344 26.371094 C 22.160156 26.367188 22.160156 26.160156 22.027344 26.164062 " fill-opacity="1" fill-rule="nonzero"/><path fill="#6e270d" d="M 17.898438 31.492188 C 17.753906 31.0625 17.714844 30.625 17.78125 30.175781 C 17.800781 30.046875 17.601562 29.992188 17.582031 30.121094 C 17.503906 30.609375 17.539062 31.082031 17.695312 31.546875 C 17.738281 31.675781 17.9375 31.621094 17.898438 31.492188 " fill-opacity="1" fill-rule="nonzero"/><path fill="#6e270d" d="M 22.082031 26.710938 C 22.039062 26.582031 21.839844 26.636719 21.878906 26.765625 C 22.046875 27.273438 22.21875 27.792969 22.242188 28.332031 C 22.269531 28.929688 22.066406 29.453125 21.832031 29.988281 C 21.777344 30.109375 21.957031 30.214844 22.011719 30.09375 C 22.230469 29.589844 22.441406 29.082031 22.457031 28.523438 C 22.46875 27.898438 22.273438 27.296875 22.082031 26.710938 " fill-opacity="1" fill-rule="nonzero"/><path fill="#6e270d" d="M 22.9375 27.632812 C 22.917969 27.5 22.714844 27.558594 22.734375 27.6875 C 22.871094 28.554688 22.691406 29.394531 22.222656 30.136719 C 22.148438 30.25 22.332031 30.355469 22.402344 30.242188 C 22.902344 29.449219 23.082031 28.558594 22.9375 27.632812 " fill-opacity="1" fill-rule="nonzero"/><path fill="#6e270d" d="M 24.996094 27.140625 C 24.917969 27.035156 24.734375 27.136719 24.816406 27.246094 C 25.835938 28.632812 25.648438 30.503906 24.839844 31.953125 C 24.773438 32.070312 24.953125 32.175781 25.019531 32.058594 C 25.863281 30.546875 26.058594 28.585938 24.996094 27.140625 " fill-opacity="1" fill-rule="nonzero"/><path fill="#9698b0" d="M 26.53125 49.730469 L 19.214844 49.730469 C 19.007812 49.730469 18.835938 49.5625 18.835938 49.351562 L 18.835938 48.554688 L 26.914062 48.554688 L 26.914062 49.351562 C 26.914062 49.5625 26.742188 49.730469 26.53125 49.730469 " fill-opacity="1" fill-rule="nonzero"/><g clip-path="url(#657b0cb408)"><path fill="#9698b0" d="M 22.875 89.644531 C 22.355469 89.644531 21.933594 89.222656 21.933594 88.707031 L 21.933594 70.371094 C 21.933594 69.855469 22.355469 69.4375 22.875 69.4375 C 23.394531 69.4375 23.816406 69.855469 23.816406 70.371094 L 23.816406 88.707031 C 23.816406 89.222656 23.394531 89.644531 22.875 89.644531 " fill-opacity="1" fill-rule="nonzero"/></g><g clip-path="url(#54c878036f)"><path fill="#9698b0" d="M 23.398438 89.261719 L 22.351562 89.261719 L 22.351562 49.144531 L 23.398438 49.144531 L 23.398438 89.261719 " fill-opacity="1" fill-rule="nonzero"/></g><g clip-path="url(#b4a41ab89b)"><path fill="#464752" d="M 16.773438 88.707031 L 28.976562 88.707031 C 29.421875 88.707031 29.785156 89.070312 29.785156 89.515625 L 29.785156 89.816406 L 15.964844 89.816406 L 15.964844 89.515625 C 15.964844 89.070312 16.324219 88.707031 16.773438 88.707031 " fill-opacity="1" fill-rule="nonzero"/></g><path fill="#9698b0" d="M 108.015625 49.730469 L 100.699219 49.730469 C 100.488281 49.730469 100.316406 49.5625 100.316406 49.351562 L 100.316406 48.554688 L 108.394531 48.554688 L 108.394531 49.351562 C 108.394531 49.5625 108.226562 49.730469 108.015625 49.730469 " fill-opacity="1" fill-rule="nonzero"/><g clip-path="url(#ca682a839b)"><path fill="#9698b0" d="M 104.355469 89.644531 C 103.835938 89.644531 103.417969 89.222656 103.417969 88.707031 L 103.417969 70.371094 C 103.417969 69.855469 103.835938 69.4375 104.355469 69.4375 C 104.875 69.4375 105.296875 69.855469 105.296875 70.371094 L 105.296875 88.707031 C 105.296875 89.222656 104.875 89.644531 104.355469 89.644531 " fill-opacity="1" fill-rule="nonzero"/></g><g clip-path="url(#c0f2076cf8)"><path fill="#9698b0" d="M 104.878906 89.261719 L 103.835938 89.261719 L 103.835938 49.144531 L 104.878906 49.144531 L 104.878906 89.261719 " fill-opacity="1" fill-rule="nonzero"/></g><g clip-path="url(#02d98206c8)"><path fill="#464752" d="M 98.253906 88.707031 L 110.457031 88.707031 C 110.90625 88.707031 111.269531 89.070312 111.269531 89.515625 L 111.269531 89.816406 L 97.445312 89.816406 L 97.445312 89.515625 C 97.445312 89.070312 97.808594 88.707031 98.253906 88.707031 " fill-opacity="1" fill-rule="nonzero"/></g><g clip-path="url(#a6538d8f0e)"><path fill="#e6d6cc" d="M 112.992188 44.441406 L 112.992188 47.875 C 112.992188 48.25 112.6875 48.554688 112.3125 48.554688 L 15.058594 48.554688 C 14.683594 48.554688 14.378906 48.25 14.378906 47.875 L 14.378906 44.441406 C 14.378906 44.070312 14.683594 43.765625 15.058594 43.765625 L 112.3125 43.765625 C 112.6875 43.765625 112.992188 44.070312 112.992188 44.441406 " fill-opacity="1" fill-rule="nonzero"/></g><path fill="#c9ae9d" d="M 40.390625 43.765625 L 40.390625 48.554688 L 40.179688 48.554688 L 40.179688 43.765625 L 40.390625 43.765625 " fill-opacity="1" fill-rule="nonzero"/><path fill="#c9ae9d" d="M 63.789062 43.765625 L 63.789062 48.554688 L 63.582031 48.554688 L 63.582031 43.765625 L 63.789062 43.765625 " fill-opacity="1" fill-rule="nonzero"/><path fill="#c9ae9d" d="M 87.191406 43.765625 L 87.191406 48.554688 L 86.980469 48.554688 L 86.980469 43.765625 L 87.191406 43.765625 " fill-opacity="1" fill-rule="nonzero"/><g clip-path="url(#ac98fc88aa)"><path fill="#301c15" d="M 112.992188 47.59375 L 112.992188 47.875 C 112.992188 48.25 112.6875 48.554688 112.3125 48.554688 L 15.058594 48.554688 C 14.683594 48.554688 14.378906 48.25 14.378906 47.875 L 14.378906 47.59375 L 112.992188 47.59375 " fill-opacity="1" fill-rule="nonzero"/></g><path fill="#9698b0" d="M 104.355469 54.796875 L 22.875 54.796875 L 22.875 53.757812 L 104.355469 53.757812 L 104.355469 54.796875 " fill-opacity="1" fill-rule="nonzero"/><path fill="#464752" d="M 23.460938 55.308594 L 22.289062 55.308594 C 22.191406 55.308594 22.109375 55.230469 22.109375 55.132812 L 22.109375 53.59375 C 22.109375 53.496094 22.191406 53.417969 22.289062 53.417969 L 23.460938 53.417969 C 23.558594 53.417969 23.640625 53.496094 23.640625 53.59375 L 23.640625 55.132812 C 23.640625 55.230469 23.558594 55.308594 23.460938 55.308594 " fill-opacity="1" fill-rule="nonzero"/><path fill="#464752" d="M 104.941406 55.308594 L 103.769531 55.308594 C 103.671875 55.308594 103.59375 55.230469 103.59375 55.132812 L 103.59375 53.59375 C 103.59375 53.496094 103.671875 53.417969 103.769531 53.417969 L 104.941406 53.417969 C 105.042969 53.417969 105.121094 53.496094 105.121094 53.59375 L 105.121094 55.132812 C 105.121094 55.230469 105.042969 55.308594 104.941406 55.308594 " fill-opacity="1" fill-rule="nonzero"/><path fill="#de8b5b" d="M 34.476562 38.8125 C 34.015625 38.210938 33.460938 37.6875 32.835938 37.261719 C 32.109375 36.761719 31.285156 36.398438 30.421875 36.210938 C 29.363281 35.980469 28.371094 36.304688 27.320312 36.324219 C 27.976562 35.964844 28.625 35.585938 29.253906 35.167969 C 29.363281 35.09375 29.261719 34.914062 29.148438 34.988281 C 27.910156 35.804688 29.664062 34.257812 28.339844 34.929688 C 27.128906 35.546875 22.6875 38.289062 21.621094 39.136719 C 21.574219 39.175781 21.585938 39.25 21.621094 39.285156 C 22.339844 40.03125 23.078125 40.757812 23.835938 41.464844 C 24.523438 42.101562 24.878906 42.976562 25.722656 43.414062 C 26.542969 43.835938 34.007812 41.710938 34.574219 41.523438 C 35.128906 41.335938 36.058594 40.863281 36.035156 40.128906 C 36.015625 39.441406 34.878906 39.335938 34.476562 38.8125 " fill-opacity="1" fill-rule="nonzero"/><path fill="#ba5e29" d="M 32.59375 33.601562 C 31.464844 33.714844 30.375 34.003906 29.347656 34.449219 C 29.921875 34.066406 30.523438 33.730469 31.144531 33.4375 C 31.269531 33.378906 31.160156 33.199219 31.039062 33.257812 C 30.484375 33.519531 29.945312 33.8125 29.429688 34.144531 C 29.195312 34.296875 28.96875 34.453125 28.75 34.621094 C 28.683594 34.667969 28.511719 34.824219 28.351562 34.957031 C 28.238281 35.019531 28.125 35.082031 28.015625 35.152344 C 27.964844 35.152344 27.929688 35.179688 27.914062 35.21875 C 27.773438 35.308594 27.636719 35.394531 27.5 35.488281 C 27.390625 35.566406 27.496094 35.746094 27.605469 35.667969 C 27.757812 35.5625 27.914062 35.460938 28.074219 35.363281 C 28.121094 35.359375 28.152344 35.335938 28.226562 35.296875 C 28.34375 35.238281 28.460938 35.160156 28.570312 35.070312 C 29.808594 34.386719 31.167969 33.953125 32.59375 33.808594 C 32.726562 33.796875 32.726562 33.585938 32.59375 33.601562 " fill-opacity="1" fill-rule="nonzero"/><path fill="#ba5e29" d="M 39.28125 38.515625 C 38.570312 39.125 37.828125 39.6875 37.054688 40.210938 C 36.945312 40.285156 37.046875 40.464844 37.160156 40.390625 C 37.949219 39.855469 38.703125 39.28125 39.429688 38.664062 C 39.53125 38.578125 39.382812 38.429688 39.28125 38.515625 " fill-opacity="1" fill-rule="nonzero"/><path fill="#e6684b" d="M 102.328125 42.578125 C 101.921875 42.679688 101.515625 42.695312 101.105469 42.625 C 100.972656 42.601562 100.917969 42.804688 101.050781 42.824219 C 101.5 42.902344 101.941406 42.886719 102.382812 42.777344 C 102.515625 42.746094 102.460938 42.542969 102.328125 42.578125 " fill-opacity="1" fill-rule="nonzero"/><path fill="#e6684b" d="M 110.691406 43.351562 C 110.199219 43.425781 109.695312 43.402344 109.144531 43.199219 C 109.019531 43.152344 109.074219 42.953125 109.199219 43 C 109.710938 43.1875 110.171875 43.210938 110.628906 43.152344 C 110.660156 43.214844 110.679688 43.285156 110.691406 43.351562 " fill-opacity="1" fill-rule="nonzero"/><path fill="#6e270d" d="M 80.289062 40.699219 C 80.308594 40.828125 80.109375 40.886719 80.089844 40.753906 C 79.949219 39.765625 79.773438 38.773438 79.714844 37.773438 C 79.785156 37.765625 79.855469 37.757812 79.925781 37.75 C 79.976562 38.738281 80.148438 39.71875 80.289062 40.699219 " fill-opacity="1" fill-rule="nonzero"/><path fill="#6e270d" d="M 61.652344 33.652344 C 61.46875 34.457031 60.839844 35.179688 59.914062 35.464844 C 59.417969 35.621094 58.890625 35.65625 58.375 35.652344 C 57.777344 35.652344 57.125 35.660156 56.535156 35.574219 C 56.257812 35.53125 56.175781 35.425781 56.132812 35.15625 C 56.085938 34.855469 56.074219 34.542969 56.066406 34.230469 C 56.144531 34.207031 56.21875 34.1875 56.296875 34.167969 C 56.304688 34.3125 56.308594 34.453125 56.3125 34.59375 C 56.320312 34.722656 56.277344 34.96875 56.335938 35.085938 C 56.503906 35.433594 56.84375 35.382812 57.136719 35.398438 C 57.925781 35.4375 58.746094 35.515625 59.53125 35.347656 C 60.367188 35.171875 61.15625 34.683594 61.425781 33.832031 C 61.445312 33.765625 61.464844 33.699219 61.476562 33.632812 C 61.539062 33.636719 61.59375 33.644531 61.652344 33.652344 " fill-opacity="1" fill-rule="nonzero"/><g clip-path="url(#d984a44395)"><path fill="#301c15" d="M 46.15625 8.960938 C 45.941406 7.433594 46.058594 5.882812 45.898438 4.347656 C 45.78125 3.261719 45.726562 2.03125 44.765625 1.332031 C 43.191406 0.1875 40.617188 0.664062 39.234375 1.960938 C 38.601562 2.023438 37.980469 2.171875 37.390625 2.425781 C 36.824219 2.675781 36.144531 3.082031 36.171875 3.789062 C 36.175781 3.890625 36.210938 3.972656 36.226562 4.070312 C 36.289062 4.449219 36.253906 4.660156 36.117188 5 C 36.007812 5.277344 35.929688 5.566406 35.980469 5.867188 C 36.085938 6.484375 36.59375 6.671875 37.140625 6.703125 C 36.890625 7.285156 37.007812 7.800781 37.59375 8.195312 C 38.074219 8.519531 38.636719 8.566406 39.152344 8.394531 C 39.351562 8.574219 39.617188 8.597656 39.871094 8.691406 C 40.375 8.871094 40.550781 9.179688 40.960938 9.464844 C 41.574219 9.890625 42.457031 9.789062 43.152344 9.949219 C 43.957031 10.128906 44.617188 10.050781 45.378906 9.722656 C 45.714844 9.574219 46.03125 9.382812 46.117188 9.0625 C 46.144531 9.039062 46.164062 9.003906 46.15625 8.960938 " fill-opacity="1" fill-rule="nonzero"/></g><path fill="#ff9d87" d="M 47.140625 13.453125 C 46.894531 13.761719 46.550781 13.992188 46.160156 14.085938 C 45.28125 14.289062 44.363281 14.503906 44 13.589844 L 43.347656 11.941406 L 43.144531 11.429688 L 45.429688 7.289062 C 45.429688 7.289062 47.398438 11.832031 47.398438 11.835938 C 47.644531 12.394531 47.5 13.003906 47.140625 13.453125 " fill-opacity="1" fill-rule="nonzero"/><path fill="#e6684b" d="M 45.917969 10.289062 C 45.808594 9.09375 44.917969 9.996094 44.492188 10.476562 C 44.082031 10.941406 43.734375 11.457031 43.347656 11.941406 L 44 13.589844 C 44.199219 13.488281 44.382812 13.367188 44.539062 13.253906 C 45.4375 12.578125 46.019531 11.421875 45.917969 10.289062 " fill-opacity="1" fill-rule="nonzero"/><path fill="#ff9d87" d="M 44.886719 3.472656 C 44.257812 2.632812 43.355469 1.960938 42.316406 1.726562 C 41.335938 1.507812 40.585938 1.738281 39.988281 2.417969 C 39.585938 2.535156 39.195312 2.675781 38.816406 2.859375 C 38.445312 3.042969 37.894531 3.242188 37.746094 3.660156 C 37.589844 4.097656 37.742188 4.738281 37.800781 5.191406 C 37.878906 5.800781 38 6.402344 38.167969 6.996094 C 38.1875 7.058594 38.203125 7.121094 38.222656 7.183594 C 38.269531 7.339844 38.324219 7.496094 38.375 7.648438 C 38.675781 8.523438 39.074219 9.363281 39.5625 10.148438 C 40.082031 10.988281 40.660156 11.941406 41.746094 12.480469 C 42.425781 12.816406 42.964844 12.949219 43.761719 12.644531 C 44.714844 12.28125 45.386719 11.042969 45.710938 9.929688 C 46.316406 7.871094 46.207031 5.242188 44.886719 3.472656 " fill-opacity="1" fill-rule="nonzero"/><path fill="#301c15" d="M 40.023438 8.832031 C 39.941406 8.75 39.871094 8.652344 39.820312 8.550781 C 39.785156 8.480469 39.753906 8.402344 39.761719 8.320312 C 39.800781 7.890625 40.363281 8.425781 40.449219 8.582031 C 40.488281 8.652344 40.515625 8.730469 40.511719 8.808594 C 40.511719 8.890625 40.464844 8.972656 40.390625 9 C 40.292969 9.039062 40.183594 8.980469 40.105469 8.910156 C 40.074219 8.886719 40.046875 8.859375 40.023438 8.832031 " fill-opacity="1" fill-rule="nonzero"/><path fill="#301c15" d="M 42.871094 8.019531 C 42.785156 7.929688 42.71875 7.832031 42.664062 7.726562 C 42.625 7.652344 42.597656 7.574219 42.605469 7.492188 C 42.644531 7.050781 43.21875 7.597656 43.308594 7.761719 C 43.347656 7.832031 43.378906 7.910156 43.375 7.992188 C 43.371094 8.078125 43.328125 8.160156 43.25 8.191406 C 43.148438 8.230469 43.039062 8.167969 42.957031 8.097656 C 42.925781 8.074219 42.898438 8.046875 42.871094 8.019531 " fill-opacity="1" fill-rule="nonzero"/><path fill="#e6684b" d="M 43.515625 10.082031 C 43.171875 10.53125 42.710938 10.808594 42.140625 10.691406 C 42 10.664062 41.941406 10.875 42.082031 10.90625 C 42.398438 10.972656 42.664062 10.976562 42.960938 10.828125 C 43.261719 10.679688 43.503906 10.457031 43.707031 10.191406 C 43.792969 10.078125 43.597656 9.96875 43.515625 10.082031 " fill-opacity="1" fill-rule="nonzero"/><path fill="#301c15" d="M 46.058594 6.027344 C 45.949219 5.277344 45.871094 4.410156 45.472656 3.742188 C 45.117188 3.148438 44.464844 2.703125 43.894531 2.328125 C 43.257812 1.914062 42.527344 1.558594 41.761719 1.457031 C 41.035156 1.355469 40.308594 1.710938 39.65625 1.988281 C 39.035156 2.25 38.429688 2.582031 37.957031 3.074219 C 36.96875 4.105469 37.203125 5.585938 37.546875 6.878906 C 37.402344 7.179688 37.332031 7.515625 37.53125 7.726562 C 37.914062 8.136719 38.585938 7.480469 38.777344 7.199219 C 39.074219 6.761719 39.25 6.257812 39.808594 6.105469 C 40.117188 6.015625 40.371094 5.976562 40.636719 5.765625 C 40.933594 5.527344 41.113281 5.210938 41.226562 4.867188 C 41.660156 4.691406 42.070312 4.601562 42.308594 4.746094 C 42.640625 4.941406 43.046875 4.898438 43.394531 5.0625 C 43.796875 5.25 44.160156 5.5 44.492188 5.792969 C 44.667969 6.238281 44.863281 6.675781 45.128906 7.050781 C 45.367188 7.382812 45.601562 7.65625 45.753906 8.046875 C 45.859375 8.316406 46.222656 9.105469 46.222656 9.105469 C 46.222656 9.105469 46.183594 6.910156 46.058594 6.027344 " fill-opacity="1" fill-rule="nonzero"/><path fill="#ff9d87" d="M 45.421875 6.316406 C 45.382812 5.800781 45.113281 4.671875 44.378906 4.75 C 43.867188 4.800781 43.792969 5.367188 43.816406 5.851562 C 43.777344 5.871094 43.75 5.914062 43.769531 5.96875 C 43.796875 6.046875 43.824219 6.125 43.851562 6.199219 C 43.859375 6.25 43.863281 6.300781 43.871094 6.34375 C 43.878906 6.382812 43.898438 6.40625 43.925781 6.414062 C 44.050781 6.785156 44.175781 7.152344 44.324219 7.507812 C 44.421875 7.734375 44.582031 8.089844 44.855469 8.148438 C 45.574219 8.296875 45.453125 6.675781 45.421875 6.316406 " fill-opacity="1" fill-rule="nonzero"/><path fill="#e6684b" d="M 42.777344 9.707031 C 42.617188 9.820312 42.441406 9.886719 42.25 9.933594 C 41.988281 9.996094 41.71875 10.050781 41.601562 9.738281 C 41.460938 9.359375 41.445312 8.882812 41.414062 8.484375 C 41.402344 8.34375 41.179688 8.34375 41.191406 8.484375 C 41.214844 8.816406 41.257812 9.148438 41.320312 9.476562 C 41.359375 9.683594 41.382812 9.941406 41.554688 10.089844 C 41.894531 10.378906 42.578125 10.117188 42.890625 9.898438 C 43.007812 9.820312 42.894531 9.628906 42.777344 9.707031 " fill-opacity="1" fill-rule="nonzero"/><path fill="#301c15" d="M 42.957031 6.265625 C 42.753906 6.25 42.546875 6.269531 42.394531 6.300781 C 42.171875 6.351562 41.953125 6.464844 41.816406 6.648438 C 41.703125 6.8125 41.6875 7.121094 41.929688 7.183594 C 42.054688 7.214844 42.175781 7.144531 42.289062 7.085938 C 42.566406 6.9375 42.867188 6.832031 43.175781 6.78125 C 43.25 6.765625 43.328125 6.757812 43.394531 6.722656 C 43.460938 6.6875 43.515625 6.621094 43.515625 6.546875 C 43.515625 6.476562 43.464844 6.414062 43.40625 6.382812 C 43.289062 6.3125 43.125 6.277344 42.957031 6.265625 " fill-opacity="1" fill-rule="nonzero"/><path fill="#301c15" d="M 38.636719 8.101562 C 38.617188 8.167969 38.625 8.242188 38.671875 8.292969 C 38.726562 8.347656 38.8125 8.355469 38.882812 8.335938 C 38.957031 8.316406 39.019531 8.269531 39.082031 8.226562 C 39.339844 8.050781 39.628906 7.917969 39.929688 7.832031 C 40.054688 7.796875 40.191406 7.761719 40.257812 7.652344 C 40.390625 7.441406 40.160156 7.226562 39.964844 7.191406 C 39.738281 7.152344 39.5 7.222656 39.308594 7.339844 C 39.175781 7.421875 39.011719 7.554688 38.878906 7.707031 C 38.765625 7.832031 38.671875 7.96875 38.636719 8.101562 " fill-opacity="1" fill-rule="nonzero"/><path fill="#54382e" d="M 41.914062 2.109375 C 41.679688 2.425781 41.25 2.824219 41.164062 3.226562 C 41.128906 3.394531 41.195312 3.542969 41.207031 3.707031 C 41.230469 4.019531 41.144531 4.316406 41.136719 4.625 C 41.132812 4.769531 41.355469 4.769531 41.359375 4.625 C 41.363281 4.40625 41.429688 4.203125 41.441406 3.984375 C 41.449219 3.820312 41.40625 3.679688 41.398438 3.515625 C 41.375 3.015625 41.820312 2.605469 42.105469 2.21875 C 42.191406 2.105469 41.996094 1.992188 41.914062 2.109375 " fill-opacity="1" fill-rule="nonzero"/><path fill="#54382e" d="M 40.898438 2.699219 C 40.679688 2.898438 40.511719 3.128906 40.4375 3.414062 C 40.304688 3.933594 40.578125 4.472656 40.171875 4.925781 C 39.890625 5.242188 39.453125 5.285156 39.164062 5.585938 C 38.957031 5.804688 38.816406 6.105469 38.75 6.394531 C 38.714844 6.53125 38.929688 6.589844 38.964844 6.453125 C 39.097656 5.898438 39.449219 5.648438 39.921875 5.386719 C 40.121094 5.277344 40.316406 5.128906 40.445312 4.941406 C 40.90625 4.265625 40.363281 3.480469 41.054688 2.855469 C 41.160156 2.761719 41.003906 2.605469 40.898438 2.699219 " fill-opacity="1" fill-rule="nonzero"/><path fill="#54382e" d="M 39.019531 4.925781 C 38.886719 5.128906 38.648438 5.210938 38.480469 5.382812 C 38.359375 5.507812 38.273438 5.65625 38.203125 5.8125 C 38.035156 6.179688 37.894531 6.597656 37.953125 7 C 37.972656 7.140625 38.1875 7.082031 38.167969 6.941406 C 38.109375 6.546875 38.324219 5.929688 38.574219 5.621094 C 38.761719 5.390625 39.046875 5.289062 39.210938 5.039062 C 39.289062 4.917969 39.097656 4.808594 39.019531 4.925781 " fill-opacity="1" fill-rule="nonzero"/><path fill="#ff9d87" d="M 44.453125 33.308594 C 43.425781 32.90625 42.3125 32.675781 41.230469 32.46875 C 40.503906 32.328125 38.722656 31.933594 37.992188 32.1875 C 37.453125 32.378906 37.410156 32.746094 38.472656 33.121094 C 38.699219 33.199219 39.148438 33.34375 39.363281 33.445312 C 39.363281 33.578125 39.417969 33.722656 39.558594 33.835938 C 40.332031 34.480469 41.675781 34.554688 42.621094 34.734375 C 43.460938 34.890625 44.503906 35.203125 45.121094 34.386719 C 45.535156 33.835938 45.066406 33.5625 44.59375 33.367188 C 44.546875 33.347656 44.5 33.328125 44.453125 33.308594 " fill-opacity="1" fill-rule="nonzero"/><path fill="#ff9d87" d="M 54.085938 27.691406 C 53.648438 27.179688 53 25.777344 52.3125 25.917969 C 50.40625 26.308594 43.085938 33.515625 43.085938 33.515625 L 44.871094 34.578125 C 44.871094 34.578125 51.777344 31.226562 54.074219 29.351562 C 54.699219 28.628906 54.441406 28.105469 54.085938 27.691406 " fill-opacity="1" fill-rule="nonzero"/><path fill="#ff9d87" d="M 51.253906 27.894531 L 52.304688 17.402344 L 57.546875 18.726562 C 57.546875 18.726562 55.738281 28.019531 53.875 29.507812 C 53.238281 30.019531 49.546875 30.289062 49.546875 30.289062 L 51.253906 27.894531 " fill-opacity="1" fill-rule="nonzero"/><path fill="#464752" d="M 57.753906 14.773438 C 57.132812 13.210938 55.828125 12.558594 54.324219 12.050781 C 52.925781 11.582031 51.410156 11.429688 49.941406 11.417969 C 49.757812 11.414062 49.574219 11.414062 49.390625 11.421875 C 49.390625 11.421875 51.53125 16.792969 51.53125 17.003906 C 51.53125 17.109375 51.546875 17.769531 51.609375 17.835938 C 51.65625 17.882812 51.742188 17.925781 51.855469 17.964844 C 51.847656 18.023438 51.84375 18.082031 51.839844 18.144531 C 51.816406 18.664062 51.714844 19.167969 51.648438 19.683594 C 51.601562 20.070312 51.601562 20.460938 51.523438 20.839844 C 51.484375 21.023438 51.363281 21.332031 51.480469 21.511719 C 51.671875 21.820312 52.332031 21.769531 52.640625 21.785156 C 53.578125 21.824219 54.507812 21.839844 55.445312 21.917969 C 55.871094 21.953125 56.332031 21.902344 56.753906 21.996094 C 57.046875 22.054688 57.347656 22.261719 57.648438 22.117188 C 58.15625 21.875 58.152344 20.796875 58.210938 20.339844 C 58.457031 18.484375 58.453125 16.539062 57.753906 14.773438 " fill-opacity="1" fill-rule="nonzero"/><path fill="#e6684b" d="M 41.480469 33.652344 C 40.867188 33.429688 40.167969 33.171875 39.507812 33.261719 C 39.375 33.28125 39.433594 33.480469 39.5625 33.464844 C 40.171875 33.378906 40.859375 33.648438 41.425781 33.851562 C 41.550781 33.898438 41.605469 33.699219 41.480469 33.652344 " fill-opacity="1" fill-rule="nonzero"/><path fill="#e6684b" d="M 41.351562 32.890625 C 40.273438 32.453125 39.140625 32.296875 37.984375 32.421875 C 37.851562 32.4375 37.851562 32.644531 37.984375 32.628906 C 39.121094 32.507812 40.234375 32.664062 41.296875 33.089844 C 41.417969 33.140625 41.472656 32.941406 41.351562 32.890625 " fill-opacity="1" fill-rule="nonzero"/><path fill="#ffffff" d="M 40.8125 21.449219 C 40.917969 21.371094 43.964844 20.707031 44.039062 20.796875 C 44.109375 20.890625 44.460938 22.636719 44.453125 22.75 C 44.445312 22.863281 41.308594 23.558594 41.257812 23.464844 C 41.207031 23.371094 40.707031 21.53125 40.8125 21.449219 " fill-opacity="1" fill-rule="nonzero"/><path fill="#242630" d="M 63.929688 79.957031 L 63.929688 80.167969 C 62.125 80.535156 60.273438 80.695312 58.425781 80.648438 C 58.40625 80.578125 58.394531 80.511719 58.378906 80.441406 C 60.246094 80.488281 62.109375 80.328125 63.929688 79.957031 " fill-opacity="1" fill-rule="nonzero"/><path fill="#242630" d="M 52.347656 81.738281 C 50.441406 82.132812 48.402344 81.664062 46.566406 80.804688 C 46.5625 80.730469 46.558594 80.65625 46.554688 80.578125 C 48.390625 81.453125 50.4375 81.933594 52.34375 81.523438 C 52.347656 81.585938 52.347656 81.660156 52.347656 81.738281 " fill-opacity="1" fill-rule="nonzero"/><path fill="#ffffff" d="M 46.765625 86.136719 C 46.6875 85.761719 46.46875 85.492188 46.203125 85.265625 C 46.257812 85.226562 46.3125 85.179688 46.367188 85.136719 C 46.652344 85.386719 46.882812 85.675781 46.964844 86.082031 C 46.992188 86.214844 46.792969 86.269531 46.765625 86.136719 " fill-opacity="1" fill-rule="nonzero"/><path fill="#ffffff" d="M 47.417969 85.660156 C 47.335938 85.269531 47.105469 84.996094 46.828125 84.761719 C 46.882812 84.714844 46.933594 84.667969 46.984375 84.628906 C 47.285156 84.882812 47.53125 85.183594 47.621094 85.605469 C 47.648438 85.734375 47.445312 85.789062 47.417969 85.660156 " fill-opacity="1" fill-rule="nonzero"/><path fill="#ffffff" d="M 62.558594 86.214844 C 62.09375 86.066406 61.625 86.070312 61.164062 86.226562 C 61.035156 86.269531 61.121094 86.460938 61.246094 86.417969 C 61.652344 86.28125 62.074219 86.277344 62.480469 86.40625 C 62.609375 86.445312 62.6875 86.253906 62.558594 86.214844 " fill-opacity="1" fill-rule="nonzero"/><path fill="#ffffff" d="M 62.511719 85.363281 C 62.046875 85.21875 61.578125 85.222656 61.113281 85.378906 C 60.988281 85.421875 61.074219 85.613281 61.199219 85.570312 C 61.605469 85.433594 62.023438 85.429688 62.433594 85.558594 C 62.5625 85.597656 62.640625 85.40625 62.511719 85.363281 " fill-opacity="1" fill-rule="nonzero"/><path fill="#464752" d="M 71.699219 88.8125 C 71.699219 88.8125 71.695312 88.8125 71.691406 88.8125 C 71.632812 88.804688 71.589844 88.753906 71.597656 88.699219 L 73.058594 72.402344 C 73.0625 72.34375 73.113281 72.304688 73.171875 72.308594 C 73.230469 72.3125 73.273438 72.363281 73.265625 72.421875 L 71.804688 88.714844 C 71.800781 88.769531 71.753906 88.8125 71.699219 88.8125 " fill-opacity="1" fill-rule="nonzero"/><path fill="#464752" d="M 95.246094 88.8125 C 95.191406 88.8125 95.148438 88.769531 95.140625 88.714844 L 93.679688 72.421875 C 93.675781 72.363281 93.71875 72.3125 93.773438 72.308594 C 93.832031 72.304688 93.882812 72.347656 93.886719 72.402344 L 94.199219 75.867188 L 95.351562 88.699219 C 95.355469 88.753906 95.3125 88.804688 95.253906 88.8125 C 95.253906 88.8125 95.25 88.8125 95.246094 88.8125 " fill-opacity="1" fill-rule="nonzero"/><path fill="#464752" d="M 94.09375 75.980469 L 72.851562 75.980469 C 72.796875 75.980469 72.75 75.933594 72.75 75.875 C 72.75 75.816406 72.796875 75.773438 72.851562 75.773438 L 94.09375 75.773438 C 94.152344 75.773438 94.199219 75.816406 94.199219 75.875 C 94.199219 75.933594 94.152344 75.980469 94.09375 75.980469 " fill-opacity="1" fill-rule="nonzero"/><path fill="#de8b5b" d="M 96.1875 71.855469 C 96.1875 72.105469 96.089844 72.332031 95.921875 72.492188 C 95.761719 72.65625 95.53125 72.757812 95.285156 72.757812 L 71.664062 72.757812 C 71.617188 72.757812 71.570312 72.753906 71.523438 72.746094 C 71.441406 72.734375 71.363281 72.710938 71.292969 72.675781 C 70.976562 72.535156 70.757812 72.222656 70.757812 71.855469 C 70.757812 71.605469 70.859375 71.382812 71.023438 71.21875 C 71.1875 71.058594 71.414062 70.957031 71.664062 70.957031 L 95.285156 70.957031 C 95.78125 70.957031 96.1875 71.359375 96.1875 71.855469 " fill-opacity="1" fill-rule="nonzero"/><path fill="#ba5e29" d="M 74.851562 70.957031 C 74.519531 71.265625 74.226562 71.628906 73.882812 71.921875 C 73.535156 72.210938 73.148438 72.125 72.722656 72.207031 C 72.359375 72.277344 71.84375 72.445312 71.523438 72.746094 C 71.441406 72.734375 71.363281 72.710938 71.292969 72.675781 C 71.707031 72.214844 72.492188 72 73.042969 71.957031 C 73.703125 71.902344 74.109375 71.402344 74.550781 70.957031 L 74.851562 70.957031 " fill-opacity="1" fill-rule="nonzero"/><path fill="#ba5e29" d="M 77.105469 70.957031 C 76.636719 71.523438 76.121094 72.0625 75.566406 72.546875 C 75.480469 72.617188 75.398438 72.6875 75.3125 72.757812 L 74.980469 72.757812 C 74.992188 72.75 75.003906 72.742188 75.011719 72.734375 C 75.609375 72.261719 76.152344 71.726562 76.65625 71.160156 C 76.71875 71.09375 76.777344 71.023438 76.835938 70.957031 L 77.105469 70.957031 " fill-opacity="1" fill-rule="nonzero"/><path fill="#ba5e29" d="M 82.921875 72.757812 L 82.625 72.757812 C 82.214844 72.390625 81.753906 72.105469 81.242188 71.953125 C 80.351562 71.679688 79.402344 71.773438 78.539062 72.105469 C 78.140625 72.261719 77.683594 72.476562 77.28125 72.757812 L 76.945312 72.757812 C 77.335938 72.445312 77.796875 72.203125 78.226562 72.015625 C 79.085938 71.636719 80.039062 71.476562 80.96875 71.667969 C 81.714844 71.824219 82.367188 72.226562 82.921875 72.757812 " fill-opacity="1" fill-rule="nonzero"/><path fill="#ba5e29" d="M 84.707031 75.972656 C 84.691406 75.941406 84.679688 75.910156 84.664062 75.875 L 84.890625 75.875 C 84.894531 75.890625 84.898438 75.902344 84.90625 75.917969 C 84.957031 76.042969 84.753906 76.097656 84.707031 75.972656 " fill-opacity="1" fill-rule="nonzero"/><path fill="#ba5e29" d="M 88.113281 70.957031 C 87.570312 71.527344 86.90625 72.007812 86.148438 72.128906 C 85.636719 72.207031 85.265625 71.949219 84.824219 71.738281 C 84.246094 71.46875 83.585938 71.738281 83.039062 71.390625 C 82.851562 71.273438 82.679688 71.125 82.523438 70.957031 L 82.839844 70.957031 C 82.9375 71.054688 83.039062 71.144531 83.148438 71.214844 C 83.445312 71.40625 83.738281 71.363281 84.070312 71.367188 C 84.382812 71.371094 84.644531 71.425781 84.925781 71.5625 C 85.160156 71.671875 85.378906 71.828125 85.632812 71.894531 C 86.03125 72.003906 86.410156 71.867188 86.765625 71.6875 C 87.136719 71.5 87.492188 71.253906 87.820312 70.957031 L 88.113281 70.957031 " fill-opacity="1" fill-rule="nonzero"/><path fill="#ba5e29" d="M 88.980469 70.957031 C 88.964844 70.96875 88.945312 70.980469 88.929688 70.996094 C 88.429688 71.429688 88.011719 71.933594 87.625 72.472656 C 87.558594 72.566406 87.488281 72.664062 87.421875 72.757812 L 87.171875 72.757812 C 87.257812 72.625 87.351562 72.496094 87.445312 72.367188 C 87.808594 71.859375 88.199219 71.375 88.664062 70.957031 L 88.980469 70.957031 " fill-opacity="1" fill-rule="nonzero"/><path fill="#ba5e29" d="M 93.707031 72.757812 L 93.453125 72.757812 C 93.425781 72.691406 93.398438 72.625 93.371094 72.558594 C 93.011719 71.730469 92.472656 71.089844 91.480469 71.464844 C 90.859375 71.699219 90.277344 72.054688 89.796875 72.511719 C 89.714844 72.585938 89.632812 72.667969 89.550781 72.757812 L 89.230469 72.757812 C 89.808594 72.09375 90.707031 71.558594 91.273438 71.324219 C 92.046875 71.003906 92.710938 71.070312 93.210938 71.796875 C 93.410156 72.085938 93.570312 72.417969 93.707031 72.757812 " fill-opacity="1" fill-rule="nonzero"/><path fill="#242630" d="M 40.546875 23.707031 C 40.410156 22.976562 40.289062 22.296875 39.980469 21.617188 C 39.679688 20.953125 39.445312 20.265625 39.152344 19.597656 C 38.878906 18.964844 38.835938 18.257812 38.53125 17.636719 C 38.484375 17.539062 38.34375 17.597656 38.335938 17.691406 C 38.285156 18.425781 38.484375 19.113281 38.679688 19.8125 C 38.894531 20.578125 39.035156 21.359375 39.152344 22.140625 C 39.265625 22.894531 39.332031 23.628906 39.367188 24.382812 C 39.8125 24.53125 40.300781 24.617188 40.667969 24.890625 C 40.753906 24.953125 40.84375 24.976562 40.9375 24.976562 C 40.816406 24.550781 40.625 24.128906 40.546875 23.707031 " fill-opacity="1" fill-rule="nonzero"/><path fill="#242630" d="M 38.210938 17.332031 C 37.917969 16.847656 37.5625 16.40625 37.238281 15.945312 C 37.160156 15.835938 36.980469 15.941406 37.054688 16.050781 C 37.382812 16.511719 37.738281 16.953125 38.03125 17.4375 C 38.101562 17.550781 38.28125 17.449219 38.210938 17.332031 " fill-opacity="1" fill-rule="nonzero"/><path fill="#242630" d="M 54.449219 14.953125 C 53.683594 15.933594 52.941406 16.921875 52.386719 18.042969 C 52.65625 16.722656 53.066406 15.433594 53.578125 14.1875 C 53.628906 14.0625 53.425781 14.007812 53.378906 14.132812 C 52.457031 16.378906 51.859375 18.765625 51.839844 21.199219 C 51.839844 21.335938 52.050781 21.335938 52.050781 21.199219 C 52.058594 20.164062 52.171875 19.140625 52.371094 18.132812 C 52.390625 18.214844 52.511719 18.261719 52.558594 18.167969 C 53.101562 17.054688 53.835938 16.070312 54.597656 15.101562 C 54.679688 14.996094 54.53125 14.847656 54.449219 14.953125 " fill-opacity="1" fill-rule="nonzero"/><path fill="#242630" d="M 57.410156 22.042969 C 57.253906 22.042969 57.105469 22.015625 56.960938 21.976562 C 56.828125 21.941406 56.773438 22.140625 56.902344 22.175781 C 57.070312 22.222656 57.238281 22.25 57.410156 22.253906 C 57.542969 22.253906 57.542969 22.046875 57.410156 22.042969 " fill-opacity="1" fill-rule="nonzero"/></svg>