<svg xmlns="http://www.w3.org/2000/svg" width="1024" height="1024" viewBox="0 0 1024 1024">
  <rect x="124" y="124" width="776" height="776" rx="120" ry="120" fill="#1ACB6C"/>
  <g transform="translate(190.00,196.48) scale(0.810302)">
    <path d="M552.0,779.5 L517.0,779.5 L489.0,774.5 L467.0,766.5 L440.0,750.5 L422.5,734.0 L407.5,712.0 L395.5,684.0 L391.5,666.0 L391.5,658.0 L388.0,655.5 L338.0,644.5 L247.0,617.5 L173.0,599.5 L138.0,636.5 L121.0,649.5 L94.0,664.5 L74.0,670.5 L49.0,671.5 L36.0,669.5 L25.0,665.5 L14.0,658.5 L6.5,651.0 L1.5,641.0 L-0.5,628.0 L2.5,614.0 L12.5,599.0 L28.0,585.5 L48.0,574.5 L85.0,563.5 L117.0,560.5 L154.0,561.5 L156.5,559.0 L181.5,508.0 L206.5,447.0 L287.5,216.0 L311.5,158.0 L331.5,118.0 L358.5,76.0 L373.5,58.0 L394.0,37.5 L411.0,24.5 L429.0,13.5 L454.0,3.5 L473.0,-0.5 L492.0,-0.5 L505.0,1.5 L527.0,10.5 L546.5,28.0 L555.5,42.0 L563.5,64.0 L565.5,75.0 L566.5,112.0 L560.5,142.0 L553.5,162.0 L537.5,191.0 L523.5,208.0 L511.0,219.5 L489.0,233.5 L466.0,241.5 L447.0,244.5 L435.0,242.5 L431.5,239.0 L432.5,234.0 L454.0,219.5 L472.5,201.0 L486.5,182.0 L505.5,147.0 L516.5,118.0 L520.5,102.0 L523.5,84.0 L523.5,59.0 L517.5,40.0 L508.0,29.5 L498.0,25.5 L487.0,25.5 L474.0,28.5 L458.0,37.5 L429.5,64.0 L412.5,86.0 L397.5,110.0 L370.5,164.0 L338.5,240.0 L262.5,441.0 L235.5,500.0 L203.5,556.0 L196.5,565.0 L198.0,566.5 L206.0,566.5 L261.0,575.5 L280.0,580.5 L291.0,581.5 L303.0,585.5 L314.0,586.5 L373.0,599.5 L390.0,601.5 L391.5,600.0 L392.5,583.0 L396.5,561.0 L409.5,512.0 L417.5,488.0 L436.5,444.0 L452.5,413.0 L480.5,369.0 L502.5,340.0 L527.5,311.0 L558.0,280.5 L600.0,246.5 L640.0,221.5 L659.0,212.5 L683.0,203.5 L708.0,198.5 L738.0,199.5 L749.0,202.5 L764.0,209.5 L778.5,222.0 L788.5,238.0 L793.5,253.0 L795.5,284.0 L792.5,303.0 L784.5,327.0 L768.5,355.0 L752.0,373.5 L734.0,387.5 L711.0,398.5 L692.0,402.5 L684.0,402.5 L676.5,399.0 L676.5,392.0 L691.0,381.5 L708.5,363.0 L722.5,343.0 L732.5,325.0 L741.5,304.0 L748.5,279.0 L749.5,251.0 L743.5,235.0 L738.0,228.5 L730.0,224.5 L707.0,224.5 L676.0,235.5 L649.0,250.5 L622.0,270.5 L581.5,310.0 L564.5,330.0 L527.5,382.0 L507.5,416.0 L484.5,462.0 L470.5,497.0 L457.5,540.0 L448.5,582.0 L445.5,610.0 L446.5,657.0 L452.5,685.0 L464.5,711.0 L482.0,730.5 L502.0,741.5 L531.0,748.5 L559.0,748.5 L589.0,743.5 L616.0,734.5 L651.0,717.5 L690.0,691.5 L724.0,662.5 L761.0,624.5 L768.0,624.5 L773.5,631.0 L771.5,637.0 L745.0,668.5 L706.0,706.5 L671.0,733.5 L645.0,749.5 L613.0,764.5 L582.0,774.5 L552.0,779.5 Z M67.5,647.0 L82.0,642.5 L100.0,631.5 L118.5,614.0 L133.5,595.0 L131.0,592.5 L122.0,591.5 L80.0,592.5 L59.0,597.5 L43.0,606.5 L36.5,613.0 L31.5,623.0 L31.5,632.0 L34.5,639.0 L39.0,643.5 L50.0,647.5 L67.5,647.0 Z" fill="#FFFFFF" fill-rule="evenodd"/>
  </g>
</svg>