<svg xmlns="http://www.w3.org/2000/svg" width="1539" height="346" viewBox="0 0 1539 346">
  <g transform="translate(12,12)">
    <path d="M217.0,312.5 L194.0,309.5 L186.0,306.5 L174.0,298.5 L163.5,286.0 L155.0,263.5 L78.0,242.5 L69.0,241.5 L51.0,259.5 L39.0,266.5 L29.0,269.5 L16.0,269.5 L10.0,267.5 L2.5,262.0 L-0.5,256.0 L-0.5,250.0 L2.5,243.0 L13.0,233.5 L31.0,226.5 L61.0,225.5 L63.5,223.0 L81.5,183.0 L115.5,83.0 L129.5,52.0 L142.5,31.0 L159.0,12.5 L171.0,4.5 L188.0,-0.5 L200.0,0.5 L210.0,4.5 L220.5,14.0 L224.5,21.0 L228.5,36.0 L228.5,46.0 L222.5,69.0 L216.5,79.0 L201.0,93.5 L182.0,100.5 L171.5,99.0 L170.5,97.0 L183.0,88.5 L196.5,72.0 L204.5,56.0 L209.5,36.0 L208.5,21.0 L203.0,13.5 L194.0,11.5 L182.0,17.5 L167.5,33.0 L149.5,66.0 L101.5,188.0 L87.5,215.0 L79.5,226.0 L138.0,238.5 L155.0,240.5 L164.5,202.0 L179.5,169.0 L198.5,141.0 L221.0,116.5 L247.0,96.5 L262.0,88.5 L279.0,82.5 L298.0,82.5 L309.0,87.5 L315.5,95.0 L318.5,102.0 L319.5,120.0 L314.5,136.0 L300.0,153.5 L283.0,162.5 L273.0,163.5 L271.5,162.0 L271.5,159.0 L290.5,139.0 L300.5,115.0 L300.5,102.0 L297.0,94.5 L294.0,92.5 L287.0,92.5 L277.0,94.5 L266.0,99.5 L248.0,112.5 L225.5,136.0 L205.5,166.0 L190.5,197.0 L180.5,232.0 L179.5,264.0 L185.5,283.0 L194.0,292.5 L201.0,296.5 L211.0,299.5 L226.0,299.5 L249.0,293.5 L266.0,284.5 L284.0,271.5 L307.0,249.5 L310.5,252.0 L310.5,255.0 L302.5,265.0 L286.0,281.5 L270.0,293.5 L248.0,305.5 L232.0,310.5 L217.0,312.5 Z M727.0,321.5 L674.0,321.5 L624.0,315.5 L571.0,304.5 L481.0,280.5 L464.0,296.5 L444.0,306.5 L429.0,307.5 L421.0,305.5 L415.0,301.5 L410.5,295.0 L410.5,282.0 L412.5,278.0 L423.0,268.5 L441.0,262.5 L470.0,262.5 L472.5,260.0 L498.5,201.0 L521.5,131.0 L532.5,90.0 L547.5,50.0 L556.5,33.0 L569.5,16.0 L590.0,2.5 L602.0,-0.5 L614.0,0.5 L625.0,4.5 L630.5,11.0 L627.0,13.5 L621.0,10.5 L602.0,11.5 L590.0,18.5 L576.5,36.0 L567.5,54.0 L555.5,88.0 L539.5,149.0 L523.5,197.0 L510.5,230.0 L491.5,264.0 L493.0,265.5 L516.0,269.5 L584.0,287.5 L638.0,298.5 L688.0,303.5 L722.0,303.5 L794.0,295.5 L865.0,281.5 L938.0,270.5 L998.0,264.5 L1044.0,262.5 L1090.0,262.5 L1141.0,265.5 L1209.0,272.5 L1348.0,291.5 L1416.0,292.5 L1445.0,288.5 L1464.0,282.5 L1486.0,268.5 L1500.0,253.5 L1502.5,256.0 L1492.5,272.0 L1479.0,284.5 L1468.0,291.5 L1438.0,302.5 L1404.0,307.5 L1336.0,307.5 L1137.0,284.5 L1101.0,282.5 L1029.0,282.5 L978.0,285.5 L924.0,291.5 L834.0,305.5 L790.0,314.5 L727.0,321.5 Z M871.0,252.5 L854.0,251.5 L839.0,247.5 L822.0,236.5 L811.5,223.0 L805.5,205.0 L805.5,175.0 L814.5,143.0 L827.5,117.0 L841.5,95.0 L857.5,75.0 L881.0,51.5 L918.0,25.5 L935.0,17.5 L958.0,11.5 L970.0,11.5 L983.0,15.5 L995.5,28.0 L999.5,41.0 L999.5,52.0 L998.5,61.0 L993.5,74.0 L981.0,92.5 L971.0,101.5 L960.0,107.5 L940.0,109.5 L932.0,106.5 L924.5,99.0 L922.5,93.0 L923.5,79.0 L929.5,68.0 L944.0,55.5 L947.0,54.5 L948.5,59.0 L933.5,73.0 L929.5,83.0 L929.5,91.0 L931.5,95.0 L940.0,100.5 L946.0,100.5 L962.0,93.5 L978.5,77.0 L987.5,61.0 L990.5,50.0 L990.5,40.0 L987.5,31.0 L979.0,23.5 L973.0,21.5 L959.0,21.5 L934.0,29.5 L917.0,39.5 L896.0,56.5 L877.5,76.0 L863.5,94.0 L847.5,120.0 L833.5,151.0 L826.5,175.0 L825.5,206.0 L828.5,217.0 L836.5,231.0 L849.0,239.5 L859.0,242.5 L881.0,242.5 L905.0,235.5 L925.0,224.5 L943.0,210.5 L975.5,175.0 L985.5,162.0 L982.5,155.0 L985.5,143.0 L992.0,135.5 L998.0,132.5 L1004.0,133.5 L1005.5,139.0 L995.5,156.0 L1004.0,161.5 L1013.0,164.5 L1016.5,169.0 L1016.5,176.0 L994.5,215.0 L993.5,223.0 L997.0,227.5 L1004.0,226.5 L1011.0,222.5 L1035.5,200.0 L1037.5,193.0 L1047.5,176.0 L1062.0,161.5 L1076.0,153.5 L1083.0,151.5 L1093.0,151.5 L1102.5,158.0 L1103.5,169.0 L1101.5,175.0 L1098.5,180.0 L1083.0,193.5 L1051.5,206.0 L1051.5,218.0 L1057.0,224.5 L1069.0,226.5 L1087.0,219.5 L1112.5,197.0 L1120.5,184.0 L1136.0,167.5 L1153.0,156.5 L1172.0,152.5 L1179.0,154.5 L1187.0,162.5 L1195.0,157.5 L1201.0,159.5 L1202.5,162.0 L1200.5,171.0 L1190.5,178.0 L1193.5,183.0 L1182.5,203.0 L1177.5,217.0 L1177.5,224.0 L1180.0,226.5 L1183.0,226.5 L1201.0,215.5 L1222.5,193.0 L1248.5,142.0 L1247.0,140.5 L1225.0,141.5 L1223.5,138.0 L1227.0,134.5 L1252.0,133.5 L1271.5,100.0 L1277.0,94.5 L1282.0,92.5 L1289.0,92.5 L1291.5,94.0 L1291.5,97.0 L1271.5,132.0 L1273.0,133.5 L1297.0,133.5 L1296.5,138.0 L1295.0,139.5 L1269.0,139.5 L1266.5,142.0 L1242.5,186.0 L1233.5,207.0 L1231.5,218.0 L1232.5,223.0 L1235.0,225.5 L1242.0,225.5 L1248.0,222.5 L1264.0,209.5 L1279.5,194.0 L1298.5,159.0 L1303.0,155.5 L1308.0,154.5 L1315.0,155.5 L1316.5,160.0 L1289.5,209.0 L1287.5,222.0 L1290.0,225.5 L1296.0,225.5 L1310.0,216.5 L1325.5,201.0 L1328.5,192.0 L1337.5,178.0 L1348.0,168.5 L1357.0,163.5 L1364.0,155.5 L1373.0,151.5 L1385.0,153.5 L1393.5,165.0 L1394.5,175.0 L1389.5,193.0 L1391.0,196.5 L1403.0,191.5 L1411.0,185.5 L1418.5,178.0 L1427.5,159.0 L1433.0,154.5 L1440.0,155.5 L1442.5,158.0 L1442.5,164.0 L1429.5,189.0 L1431.0,190.5 L1446.0,174.5 L1460.0,163.5 L1474.0,158.5 L1481.0,160.5 L1485.5,166.0 L1485.5,175.0 L1480.5,189.0 L1464.5,218.0 L1463.5,227.0 L1466.0,229.5 L1473.0,228.5 L1480.0,224.5 L1512.0,191.5 L1514.5,194.0 L1501.5,212.0 L1488.0,225.5 L1474.0,235.5 L1463.0,239.5 L1455.0,238.5 L1449.5,234.0 L1447.5,229.0 L1447.5,219.0 L1468.5,177.0 L1469.5,173.0 L1467.0,170.5 L1463.0,170.5 L1454.0,175.5 L1429.5,201.0 L1417.5,218.0 L1410.5,232.0 L1406.0,235.5 L1400.0,236.5 L1395.0,235.5 L1393.5,230.0 L1411.5,195.0 L1410.0,193.5 L1397.0,201.5 L1386.0,203.5 L1368.0,225.5 L1360.0,231.5 L1347.0,236.5 L1338.0,235.5 L1332.0,232.5 L1325.5,225.0 L1322.0,213.5 L1299.0,231.5 L1289.0,235.5 L1280.0,234.5 L1272.5,227.0 L1272.5,212.0 L1271.0,210.5 L1258.0,223.5 L1248.0,230.5 L1237.0,235.5 L1227.0,235.5 L1223.5,234.0 L1216.5,225.0 L1215.5,218.0 L1217.5,210.0 L1216.0,208.5 L1197.0,226.5 L1180.0,235.5 L1169.0,234.5 L1163.5,230.0 L1161.5,226.0 L1161.5,217.0 L1163.5,213.0 L1162.0,210.5 L1144.0,227.5 L1129.0,235.5 L1118.0,235.5 L1110.5,230.0 L1106.5,220.0 L1107.5,213.0 L1106.0,211.5 L1088.0,226.5 L1079.0,231.5 L1068.0,235.5 L1055.0,236.5 L1046.0,233.5 L1039.5,228.0 L1035.5,221.0 L1033.0,210.5 L1014.0,228.5 L1003.0,234.5 L990.0,236.5 L985.0,234.5 L978.5,225.0 L980.5,210.0 L1000.5,175.0 L999.0,170.5 L990.0,165.5 L964.5,198.0 L942.0,220.5 L929.0,230.5 L920.0,236.5 L896.0,247.5 L871.0,252.5 Z M642.0,286.5 L631.0,286.5 L628.0,284.5 L623.5,279.0 L620.5,270.0 L624.5,245.0 L638.5,212.0 L637.0,210.5 L612.0,231.5 L601.0,236.5 L589.0,237.5 L580.5,231.0 L578.5,226.0 L578.5,214.0 L581.5,205.0 L605.5,160.0 L611.0,156.5 L619.0,155.5 L623.5,158.0 L623.5,161.0 L597.5,208.0 L594.5,224.0 L598.0,228.5 L607.0,226.5 L627.0,212.5 L648.5,191.0 L675.5,136.0 L701.5,94.0 L715.0,79.5 L721.0,75.5 L731.0,72.5 L737.0,73.5 L744.5,81.0 L745.5,95.0 L742.5,106.0 L734.5,122.0 L720.5,142.0 L700.5,165.0 L680.0,184.5 L666.0,194.5 L662.5,200.0 L670.0,206.5 L678.0,209.5 L690.0,209.5 L697.0,207.5 L718.0,196.5 L722.5,192.0 L728.5,179.0 L744.0,162.5 L765.0,152.5 L775.0,152.5 L780.0,154.5 L785.5,162.0 L785.5,172.0 L782.5,178.0 L775.0,187.5 L762.0,196.5 L747.0,202.5 L736.0,204.5 L733.5,209.0 L734.5,219.0 L744.0,227.5 L756.0,226.5 L776.0,215.5 L794.0,196.5 L797.5,198.0 L797.5,201.0 L790.0,210.5 L771.0,227.5 L750.0,236.5 L734.0,236.5 L726.0,232.5 L718.5,223.0 L717.5,205.0 L716.0,203.5 L696.0,214.5 L687.0,216.5 L673.0,215.5 L671.5,217.0 L672.5,237.0 L667.5,256.0 L658.5,273.0 L652.0,280.5 L642.0,286.5 Z M671.5,183.0 L697.5,158.0 L721.5,128.0 L736.5,97.0 L737.5,87.0 L735.0,82.5 L730.0,82.5 L727.0,84.5 L710.5,106.0 L689.5,142.0 L669.5,182.0 L671.5,183.0 Z M1325.0,139.5 L1319.0,139.5 L1314.5,135.0 L1313.5,129.0 L1321.0,119.5 L1328.0,118.5 L1334.5,124.0 L1334.5,130.0 L1332.5,134.0 L1325.0,139.5 Z M631.0,141.5 L624.0,141.5 L619.5,137.0 L619.5,130.0 L621.5,126.0 L629.0,121.5 L633.0,121.5 L638.5,126.0 L638.5,134.0 L631.0,141.5 Z M1059.5,196.0 L1072.0,190.5 L1084.5,180.0 L1093.5,165.0 L1093.5,162.0 L1090.0,158.5 L1085.0,159.5 L1075.0,165.5 L1065.5,175.0 L1054.5,193.0 L1056.0,196.5 L1059.5,196.0 Z M1377.5,196.0 L1380.5,192.0 L1385.5,177.0 L1385.5,167.0 L1383.5,162.0 L1380.0,159.5 L1376.0,159.5 L1371.0,162.5 L1365.5,173.0 L1365.5,185.0 L1367.5,190.0 L1372.0,194.5 L1377.5,196.0 Z M740.5,197.0 L755.0,191.5 L768.5,180.0 L774.5,170.0 L775.5,164.0 L773.0,160.5 L767.0,160.5 L753.5,170.0 L737.5,194.0 L738.0,196.5 L740.5,197.0 Z M1132.5,225.0 L1148.0,215.5 L1171.5,190.0 L1181.5,173.0 L1181.5,166.0 L1177.0,161.5 L1168.0,161.5 L1158.0,166.5 L1146.5,176.0 L1134.5,191.0 L1124.5,213.0 L1124.5,222.0 L1129.0,225.5 L1132.5,225.0 Z M1354.5,226.0 L1366.5,216.0 L1374.5,204.0 L1359.5,192.0 L1355.0,180.5 L1345.5,195.0 L1340.5,212.0 L1341.5,222.0 L1346.0,226.5 L1354.5,226.0 Z M642.5,278.0 L647.0,275.5 L655.5,265.0 L665.5,239.0 L665.5,218.0 L663.5,212.0 L659.0,208.5 L655.5,212.0 L638.5,256.0 L636.5,276.0 L639.0,278.5 L642.5,278.0 Z M27.5,259.0 L37.0,255.5 L49.5,244.0 L51.5,240.0 L50.0,238.5 L31.0,238.5 L17.0,243.5 L12.5,250.0 L12.5,255.0 L18.0,259.5 L27.5,259.0 Z M434.5,297.0 L442.0,295.5 L448.0,291.5 L459.5,279.0 L457.0,276.5 L439.0,276.5 L427.0,280.5 L422.5,287.0 L422.5,292.0 L427.0,296.5 L434.5,297.0 Z" fill="#1ACB6C" fill-rule="evenodd"/>
  </g>
</svg>