<?xml version="1.0" encoding="UTF-8" standalone="no"?>
<svg xmlns="http://www.w3.org/2000/svg" width="1300" height="354" viewBox="0 0 1300 354" version="1.1">
  <title>LifeCreation wordmark logo</title>
  <desc>Vectorized green script wordmark logo for LifeCreation on transparent background.</desc>
  <g fill="rgb(31,197,119)" fill-rule="evenodd" stroke="none">
    <path d="M 957.0 228.0 L 956.0 231.0 L 958.0 232.0 L 958.0 228.0 Z M 309.0 124.0 L 305.0 124.0 L 301.0 126.0 L 295.0 134.0 L 295.0 141.0 L 297.0 144.0 L 301.0 146.0 L 305.0 146.0 L 313.0 142.0 L 316.0 137.0 L 315.0 128.0 Z M 1087.0 123.0 L 1079.0 122.0 L 1072.0 127.0 L 1069.0 133.0 L 1070.0 140.0 L 1075.0 144.0 L 1083.0 143.0 L 1090.0 136.0 L 1091.0 129.0 Z M 427.0 72.0 L 424.0 71.0 L 413.0 72.0 L 404.0 77.0 L 394.0 86.0 L 380.0 104.0 L 362.0 133.0 L 341.0 171.0 L 327.0 200.0 L 315.0 212.0 L 294.0 230.0 L 283.0 237.0 L 275.0 240.0 L 271.0 240.0 L 267.0 235.0 L 267.0 230.0 L 270.0 219.0 L 281.0 197.0 L 299.0 167.0 L 299.0 164.0 L 297.0 162.0 L 287.0 162.0 L 280.0 165.0 L 260.0 200.0 L 251.0 221.0 L 250.0 236.0 L 248.0 237.0 L 248.0 238.0 L 250.0 237.0 L 254.0 245.0 L 260.0 249.0 L 265.0 250.0 L 272.0 249.0 L 288.0 242.0 L 311.0 224.0 L 313.0 226.0 L 311.0 224.0 L 318.0 217.0 L 319.0 218.0 L 305.0 248.0 L 298.0 271.0 L 298.0 278.0 L 297.0 279.0 L 298.0 290.0 L 301.0 296.0 L 306.0 301.0 L 312.0 303.0 L 318.0 303.0 L 327.0 299.0 L 335.0 292.0 L 342.0 282.0 L 349.0 268.0 L 352.0 259.0 L 352.0 255.0 L 353.0 254.0 L 355.0 256.0 L 353.0 254.0 L 353.0 249.0 L 354.0 248.0 L 354.0 233.0 L 352.0 227.0 L 353.0 225.0 L 360.0 227.0 L 376.0 226.0 L 385.0 223.0 L 404.0 212.0 L 405.0 213.0 L 404.0 226.0 L 409.0 239.0 L 419.0 247.0 L 425.0 249.0 L 437.0 249.0 L 452.0 245.0 L 465.0 238.0 L 479.0 227.0 L 495.0 210.0 L 495.0 205.0 L 492.0 204.0 L 476.0 221.0 L 473.0 222.0 L 466.0 229.0 L 453.0 236.0 L 444.0 239.0 L 433.0 239.0 L 425.0 233.0 L 422.0 225.0 L 422.0 220.0 L 424.0 213.0 L 436.0 212.0 L 457.0 203.0 L 466.0 197.0 L 477.0 185.0 L 480.0 178.0 L 480.0 168.0 L 474.0 160.0 L 469.0 158.0 L 454.0 159.0 L 437.0 167.0 L 421.0 182.0 L 413.0 193.0 L 410.0 201.0 L 406.0 205.0 L 381.0 218.0 L 373.0 220.0 L 357.0 219.0 L 350.0 216.0 L 342.0 208.0 L 347.0 203.0 L 371.0 185.0 L 403.0 153.0 L 403.0 151.0 L 418.0 133.0 L 425.0 122.0 L 433.0 105.0 L 436.0 92.0 L 434.0 80.0 Z M 338.0 218.0 L 341.0 220.0 L 338.0 221.0 L 338.0 222.0 L 340.0 222.0 L 341.0 220.0 L 344.0 222.0 L 347.0 233.0 L 347.0 249.0 L 345.0 257.0 L 339.0 273.0 L 331.0 286.0 L 325.0 292.0 L 321.0 294.0 L 316.0 294.0 L 314.0 292.0 L 313.0 288.0 L 316.0 270.0 L 317.0 269.0 L 319.0 271.0 L 317.0 269.0 L 322.0 252.0 L 335.0 222.0 Z M 426.0 206.0 L 427.0 204.0 L 432.0 205.0 L 427.0 207.0 Z M 467.0 166.0 L 469.0 169.0 L 469.0 174.0 L 464.0 184.0 L 454.0 194.0 L 442.0 202.0 L 432.0 205.0 L 430.0 201.0 L 428.0 200.0 L 435.0 188.0 L 444.0 177.0 L 452.0 170.0 L 461.0 165.0 Z M 423.0 81.0 L 426.0 84.0 L 427.0 87.0 L 426.0 95.0 L 420.0 112.0 L 405.0 136.0 L 390.0 155.0 L 373.0 173.0 L 371.0 171.0 L 373.0 173.0 L 361.0 185.0 L 351.0 193.0 L 350.0 191.0 L 353.0 186.0 L 355.0 187.0 L 353.0 185.0 L 356.0 178.0 L 358.0 176.0 L 368.0 155.0 L 391.0 116.0 L 408.0 91.0 L 417.0 82.0 Z M 11.0 307.0 L 15.0 317.0 L 22.0 324.0 L 35.0 329.0 L 52.0 329.0 L 69.0 324.0 L 79.0 319.0 L 92.0 310.0 L 111.0 292.0 L 115.0 292.0 L 230.0 322.0 L 234.0 322.0 L 239.0 324.0 L 248.0 325.0 L 273.0 331.0 L 284.0 332.0 L 302.0 336.0 L 322.0 338.0 L 323.0 339.0 L 330.0 339.0 L 331.0 340.0 L 354.0 341.0 L 355.0 342.0 L 375.0 342.0 L 376.0 343.0 L 407.0 343.0 L 408.0 342.0 L 428.0 342.0 L 429.0 341.0 L 451.0 340.0 L 452.0 339.0 L 489.0 335.0 L 524.0 328.0 L 529.0 328.0 L 535.0 326.0 L 546.0 325.0 L 552.0 323.0 L 570.0 321.0 L 588.0 317.0 L 615.0 314.0 L 621.0 312.0 L 635.0 311.0 L 636.0 310.0 L 670.0 307.0 L 671.0 306.0 L 694.0 304.0 L 695.0 303.0 L 706.0 303.0 L 707.0 302.0 L 718.0 302.0 L 719.0 301.0 L 760.0 300.0 L 761.0 299.0 L 824.0 299.0 L 825.0 300.0 L 849.0 300.0 L 850.0 301.0 L 883.0 302.0 L 884.0 303.0 L 895.0 303.0 L 896.0 304.0 L 903.0 304.0 L 912.0 306.0 L 923.0 306.0 L 924.0 307.0 L 931.0 307.0 L 932.0 308.0 L 939.0 308.0 L 948.0 310.0 L 957.0 310.0 L 964.0 312.0 L 987.0 314.0 L 988.0 315.0 L 1034.0 320.0 L 1035.0 321.0 L 1043.0 321.0 L 1051.0 323.0 L 1060.0 323.0 L 1069.0 325.0 L 1097.0 326.0 L 1098.0 327.0 L 1118.0 327.0 L 1119.0 328.0 L 1146.0 328.0 L 1147.0 327.0 L 1178.0 326.0 L 1179.0 325.0 L 1198.0 323.0 L 1229.0 314.0 L 1240.0 308.0 L 1242.0 308.0 L 1258.0 296.0 L 1269.0 284.0 L 1277.0 270.0 L 1273.0 269.0 L 1257.0 286.0 L 1249.0 292.0 L 1236.0 299.0 L 1215.0 306.0 L 1199.0 309.0 L 1179.0 310.0 L 1178.0 311.0 L 1127.0 311.0 L 1126.0 310.0 L 1110.0 310.0 L 1109.0 309.0 L 1078.0 307.0 L 1077.0 306.0 L 1032.0 301.0 L 1025.0 299.0 L 1011.0 298.0 L 1005.0 296.0 L 998.0 296.0 L 979.0 292.0 L 971.0 292.0 L 964.0 290.0 L 941.0 288.0 L 933.0 286.0 L 923.0 286.0 L 922.0 285.0 L 893.0 283.0 L 892.0 282.0 L 849.0 280.0 L 848.0 279.0 L 825.0 279.0 L 824.0 278.0 L 768.0 278.0 L 767.0 279.0 L 740.0 279.0 L 739.0 280.0 L 709.0 281.0 L 708.0 282.0 L 696.0 282.0 L 695.0 283.0 L 685.0 283.0 L 684.0 284.0 L 658.0 286.0 L 657.0 287.0 L 643.0 288.0 L 642.0 289.0 L 615.0 292.0 L 597.0 296.0 L 573.0 299.0 L 568.0 301.0 L 563.0 301.0 L 552.0 304.0 L 541.0 305.0 L 530.0 308.0 L 525.0 308.0 L 500.0 313.0 L 494.0 313.0 L 493.0 314.0 L 487.0 314.0 L 472.0 317.0 L 464.0 317.0 L 463.0 318.0 L 432.0 320.0 L 431.0 321.0 L 419.0 321.0 L 418.0 322.0 L 365.0 322.0 L 364.0 321.0 L 339.0 320.0 L 338.0 319.0 L 331.0 319.0 L 330.0 318.0 L 323.0 318.0 L 316.0 316.0 L 304.0 315.0 L 279.0 309.0 L 270.0 308.0 L 232.0 298.0 L 228.0 298.0 L 221.0 295.0 L 205.0 292.0 L 201.0 290.0 L 153.0 278.0 L 127.0 273.0 L 126.0 272.0 L 128.0 269.0 L 130.0 271.0 L 128.0 269.0 L 147.0 238.0 L 163.0 205.0 L 183.0 155.0 L 205.0 92.0 L 212.0 78.0 L 212.0 76.0 L 223.0 56.0 L 238.0 40.0 L 246.0 35.0 L 259.0 31.0 L 269.0 31.0 L 279.0 34.0 L 282.0 31.0 L 281.0 27.0 L 272.0 22.0 L 259.0 19.0 L 251.0 19.0 L 235.0 23.0 L 219.0 32.0 L 212.0 38.0 L 198.0 56.0 L 184.0 84.0 L 183.0 89.0 L 173.0 112.0 L 171.0 120.0 L 168.0 125.0 L 163.0 141.0 L 136.0 206.0 L 121.0 236.0 L 103.0 266.0 L 101.0 268.0 L 84.0 267.0 L 83.0 266.0 L 62.0 266.0 L 61.0 267.0 L 49.0 268.0 L 39.0 271.0 L 26.0 278.0 L 16.0 288.0 L 12.0 297.0 Z M 88.0 287.0 L 71.0 305.0 L 64.0 310.0 L 50.0 316.0 L 45.0 317.0 L 35.0 316.0 L 30.0 313.0 L 32.0 311.0 L 30.0 313.0 L 26.0 307.0 L 26.0 302.0 L 29.0 296.0 L 35.0 290.0 L 45.0 286.0 L 55.0 285.0 L 56.0 284.0 L 73.0 284.0 Z M 511.0 187.0 L 511.0 211.0 L 513.0 221.0 L 517.0 232.0 L 524.0 243.0 L 533.0 252.0 L 540.0 257.0 L 554.0 263.0 L 569.0 266.0 L 585.0 266.0 L 586.0 265.0 L 593.0 265.0 L 603.0 263.0 L 618.0 258.0 L 639.0 247.0 L 656.0 235.0 L 681.0 211.0 L 699.0 190.0 L 712.0 172.0 L 724.0 180.0 L 724.0 182.0 L 709.0 206.0 L 703.0 218.0 L 701.0 225.0 L 701.0 238.0 L 703.0 242.0 L 708.0 247.0 L 711.0 248.0 L 722.0 248.0 L 732.0 244.0 L 748.0 232.0 L 761.0 218.0 L 762.0 219.0 L 762.0 229.0 L 767.0 239.0 L 772.0 244.0 L 782.0 248.0 L 795.0 248.0 L 813.0 242.0 L 825.0 234.0 L 841.0 219.0 L 842.0 220.0 L 841.0 230.0 L 843.0 238.0 L 849.0 245.0 L 853.0 247.0 L 865.0 247.0 L 874.0 243.0 L 883.0 237.0 L 896.0 225.0 L 897.0 228.0 L 899.0 228.0 L 899.0 226.0 L 896.0 225.0 L 902.0 219.0 L 903.0 222.0 L 901.0 227.0 L 901.0 238.0 L 903.0 242.0 L 910.0 247.0 L 921.0 247.0 L 927.0 245.0 L 938.0 238.0 L 955.0 222.0 L 956.0 226.0 L 958.0 226.0 L 958.0 223.0 L 955.0 222.0 L 960.0 217.0 L 961.0 218.0 L 960.0 234.0 L 963.0 241.0 L 970.0 247.0 L 975.0 248.0 L 984.0 247.0 L 995.0 242.0 L 1005.0 235.0 L 1016.0 225.0 L 1019.0 228.0 L 1020.0 225.0 L 1017.0 224.0 L 1023.0 218.0 L 1024.0 220.0 L 1022.0 226.0 L 1022.0 235.0 L 1024.0 240.0 L 1032.0 247.0 L 1036.0 248.0 L 1044.0 247.0 L 1056.0 242.0 L 1079.0 222.0 L 1082.0 236.0 L 1090.0 245.0 L 1097.0 248.0 L 1106.0 248.0 L 1121.0 242.0 L 1129.0 236.0 L 1139.0 225.0 L 1147.0 213.0 L 1158.0 211.0 L 1175.0 202.0 L 1176.0 204.0 L 1172.0 211.0 L 1172.0 213.0 L 1170.0 215.0 L 1156.0 244.0 L 1157.0 247.0 L 1164.0 248.0 L 1165.0 247.0 L 1171.0 247.0 L 1175.0 244.0 L 1181.0 232.0 L 1193.0 214.0 L 1202.0 203.0 L 1222.0 183.0 L 1233.0 176.0 L 1238.0 176.0 L 1240.0 178.0 L 1239.0 186.0 L 1220.0 220.0 L 1216.0 232.0 L 1217.0 242.0 L 1222.0 249.0 L 1226.0 251.0 L 1237.0 251.0 L 1248.0 246.0 L 1251.0 243.0 L 1257.0 240.0 L 1278.0 219.0 L 1290.0 204.0 L 1289.0 200.0 L 1287.0 200.0 L 1277.0 212.0 L 1257.0 232.0 L 1243.0 241.0 L 1241.0 239.0 L 1237.0 239.0 L 1236.0 241.0 L 1233.0 236.0 L 1234.0 230.0 L 1239.0 219.0 L 1249.0 203.0 L 1258.0 182.0 L 1258.0 173.0 L 1254.0 166.0 L 1250.0 164.0 L 1243.0 164.0 L 1232.0 168.0 L 1223.0 174.0 L 1208.0 187.0 L 1207.0 185.0 L 1204.0 185.0 L 1203.0 183.0 L 1210.0 170.0 L 1210.0 163.0 L 1205.0 160.0 L 1200.0 160.0 L 1195.0 163.0 L 1184.0 186.0 L 1170.0 198.0 L 1157.0 204.0 L 1156.0 200.0 L 1154.0 199.0 L 1157.0 187.0 L 1157.0 174.0 L 1153.0 164.0 L 1145.0 158.0 L 1133.0 157.0 L 1123.0 162.0 L 1115.0 171.0 L 1105.0 176.0 L 1096.0 184.0 L 1088.0 195.0 L 1084.0 203.0 L 1083.0 208.0 L 1067.0 225.0 L 1052.0 236.0 L 1047.0 237.0 L 1045.0 235.0 L 1042.0 237.0 L 1039.0 232.0 L 1039.0 227.0 L 1042.0 217.0 L 1053.0 195.0 L 1071.0 166.0 L 1071.0 163.0 L 1069.0 161.0 L 1059.0 161.0 L 1054.0 163.0 L 1051.0 166.0 L 1030.0 203.0 L 1001.0 230.0 L 989.0 237.0 L 982.0 238.0 L 977.0 233.0 L 977.0 223.0 L 979.0 216.0 L 996.0 181.0 L 1016.0 146.0 L 1017.0 148.0 L 1020.0 148.0 L 1020.0 147.0 L 1017.0 147.0 L 1016.0 146.0 L 1017.0 145.0 L 1045.0 145.0 L 1049.0 141.0 L 1049.0 138.0 L 1022.0 138.0 L 1021.0 137.0 L 1043.0 100.0 L 1043.0 95.0 L 1042.0 94.0 L 1033.0 94.0 L 1028.0 96.0 L 1022.0 101.0 L 1009.0 125.0 L 1000.0 138.0 L 972.0 139.0 L 968.0 143.0 L 968.0 145.0 L 996.0 145.0 L 997.0 146.0 L 984.0 167.0 L 967.0 201.0 L 942.0 227.0 L 931.0 235.0 L 924.0 238.0 L 919.0 237.0 L 923.0 236.0 L 923.0 235.0 L 920.0 235.0 L 919.0 237.0 L 918.0 236.0 L 917.0 229.0 L 923.0 213.0 L 935.0 191.0 L 934.0 188.0 L 929.0 186.0 L 937.0 183.0 L 942.0 179.0 L 945.0 174.0 L 945.0 168.0 L 940.0 164.0 L 934.0 164.0 L 928.0 170.0 L 922.0 162.0 L 911.0 158.0 L 900.0 159.0 L 887.0 164.0 L 875.0 172.0 L 863.0 183.0 L 841.0 212.0 L 821.0 229.0 L 810.0 235.0 L 800.0 238.0 L 791.0 238.0 L 786.0 236.0 L 781.0 231.0 L 779.0 226.0 L 779.0 214.0 L 793.0 211.0 L 812.0 203.0 L 821.0 197.0 L 831.0 187.0 L 836.0 178.0 L 836.0 166.0 L 834.0 162.0 L 825.0 157.0 L 816.0 157.0 L 801.0 162.0 L 790.0 169.0 L 773.0 187.0 L 764.0 204.0 L 764.0 206.0 L 763.0 207.0 L 761.0 205.0 L 763.0 208.0 L 743.0 228.0 L 734.0 235.0 L 727.0 239.0 L 724.0 239.0 L 723.0 237.0 L 721.0 237.0 L 720.0 239.0 L 717.0 236.0 L 717.0 228.0 L 719.0 222.0 L 725.0 210.0 L 738.0 190.0 L 742.0 181.0 L 741.0 176.0 L 738.0 172.0 L 726.0 168.0 L 720.0 164.0 L 722.0 162.0 L 720.0 164.0 L 718.0 162.0 L 729.0 144.0 L 729.0 141.0 L 726.0 137.0 L 721.0 137.0 L 716.0 139.0 L 707.0 149.0 L 705.0 155.0 L 705.0 163.0 L 708.0 168.0 L 699.0 180.0 L 682.0 200.0 L 664.0 218.0 L 641.0 236.0 L 620.0 248.0 L 599.0 255.0 L 581.0 257.0 L 580.0 256.0 L 570.0 256.0 L 555.0 251.0 L 548.0 246.0 L 539.0 235.0 L 533.0 219.0 L 533.0 214.0 L 535.0 213.0 L 535.0 211.0 L 534.0 211.0 L 533.0 214.0 L 532.0 213.0 L 532.0 190.0 L 536.0 171.0 L 541.0 156.0 L 553.0 130.0 L 575.0 96.0 L 591.0 77.0 L 606.0 62.0 L 625.0 46.0 L 640.0 36.0 L 656.0 28.0 L 671.0 23.0 L 682.0 22.0 L 683.0 21.0 L 694.0 21.0 L 706.0 26.0 L 709.0 29.0 L 713.0 36.0 L 714.0 41.0 L 714.0 51.0 L 710.0 64.0 L 702.0 78.0 L 688.0 93.0 L 674.0 102.0 L 664.0 105.0 L 660.0 105.0 L 652.0 102.0 L 650.0 100.0 L 650.0 98.0 L 648.0 97.0 L 646.0 92.0 L 647.0 84.0 L 653.0 73.0 L 661.0 65.0 L 668.0 60.0 L 667.0 57.0 L 663.0 57.0 L 659.0 59.0 L 641.0 77.0 L 642.0 79.0 L 640.0 85.0 L 640.0 98.0 L 641.0 101.0 L 649.0 110.0 L 658.0 114.0 L 671.0 114.0 L 682.0 111.0 L 699.0 100.0 L 712.0 85.0 L 720.0 69.0 L 723.0 57.0 L 723.0 39.0 L 722.0 34.0 L 718.0 26.0 L 713.0 20.0 L 703.0 14.0 L 692.0 11.0 L 672.0 12.0 L 657.0 16.0 L 638.0 24.0 L 614.0 38.0 L 588.0 58.0 L 557.0 90.0 L 546.0 104.0 L 533.0 124.0 L 520.0 151.0 L 515.0 166.0 Z M 1151.0 205.0 L 1153.0 201.0 L 1154.0 203.0 L 1157.0 204.0 L 1153.0 206.0 Z M 1115.0 186.0 L 1116.0 187.0 L 1116.0 193.0 L 1120.0 201.0 L 1126.0 207.0 L 1137.0 212.0 L 1128.0 225.0 L 1118.0 235.0 L 1113.0 238.0 L 1106.0 239.0 L 1099.0 232.0 L 1098.0 220.0 L 1104.0 202.0 L 1110.0 191.0 Z M 1207.0 186.0 L 1208.0 188.0 L 1204.0 192.0 L 1202.0 190.0 L 1204.0 192.0 L 1196.0 201.0 L 1195.0 199.0 L 1203.0 184.0 L 1204.0 187.0 Z M 918.0 168.0 L 922.0 173.0 L 922.0 181.0 L 909.0 201.0 L 897.0 215.0 L 878.0 232.0 L 867.0 237.0 L 862.0 236.0 L 859.0 231.0 L 859.0 225.0 L 861.0 217.0 L 868.0 203.0 L 876.0 192.0 L 888.0 179.0 L 902.0 169.0 L 907.0 167.0 L 916.0 167.0 Z M 1142.0 165.0 L 1148.0 171.0 L 1149.0 180.0 L 1146.0 192.0 L 1142.0 202.0 L 1139.0 206.0 L 1132.0 203.0 L 1128.0 199.0 L 1125.0 191.0 L 1125.0 184.0 L 1127.0 176.0 L 1130.0 171.0 L 1135.0 166.0 Z M 826.0 168.0 L 824.0 177.0 L 821.0 182.0 L 807.0 196.0 L 792.0 204.0 L 786.0 206.0 L 782.0 205.0 L 791.0 188.0 L 803.0 174.0 L 816.0 165.0 L 823.0 165.0 Z"/>
  </g>
</svg>
