<svg xmlns="http://www.w3.org/2000/svg" width="1477" height="408" viewBox="0 0 1477 408">
  <g transform="translate(12,12)">
    <path d="M335.0,383.5 L289.0,381.5 L241.0,371.5 L188.0,353.5 L117.0,323.5 L94.0,315.5 L92.0,315.5 L69.0,340.5 L59.0,347.5 L41.0,355.5 L33.0,357.5 L13.0,356.5 L7.0,353.5 L1.5,348.0 L-0.5,343.0 L-0.5,334.0 L3.5,324.0 L10.0,316.5 L21.0,308.5 L35.0,302.5 L56.0,299.5 L79.0,300.5 L81.5,298.0 L93.5,272.0 L109.5,226.0 L123.5,178.0 L141.5,103.0 L157.5,59.0 L171.5,34.0 L186.0,17.5 L197.0,9.5 L218.0,0.5 L241.0,0.5 L251.0,4.5 L253.5,8.0 L249.0,9.5 L239.0,6.5 L231.0,6.5 L222.0,8.5 L205.0,19.5 L189.5,40.0 L181.5,56.0 L170.5,86.0 L146.5,182.0 L128.5,240.0 L114.5,275.0 L98.5,304.0 L140.0,316.5 L232.0,350.5 L293.0,367.5 L326.0,371.5 L352.0,370.5 L382.0,364.5 L404.0,355.5 L406.5,357.0 L405.0,360.5 L378.0,374.5 L335.0,383.5 Z M610.0,317.5 L588.0,317.5 L563.0,311.5 L549.0,303.5 L535.5,290.0 L526.5,273.0 L523.5,259.0 L523.5,234.0 L531.5,201.0 L550.5,160.0 L566.5,135.0 L585.5,111.0 L606.0,90.5 L628.0,72.5 L664.0,50.5 L695.0,37.5 L722.0,31.5 L739.0,31.5 L756.0,35.5 L767.0,42.5 L772.5,49.0 L777.5,60.0 L778.5,77.0 L770.5,101.0 L753.5,124.0 L728.0,144.5 L703.0,153.5 L691.0,154.5 L685.5,153.0 L684.5,150.0 L686.0,148.5 L705.0,145.5 L728.0,132.5 L748.5,112.0 L762.5,89.0 L767.5,71.0 L765.5,57.0 L761.5,50.0 L757.0,46.5 L739.0,40.5 L708.0,44.5 L680.0,55.5 L649.0,74.5 L625.0,94.5 L603.5,117.0 L577.5,153.0 L555.5,196.0 L546.5,223.0 L543.5,239.0 L543.5,263.0 L547.5,278.0 L553.5,288.0 L569.0,301.5 L590.0,307.5 L620.0,306.5 L648.0,298.5 L682.0,281.5 L718.0,256.5 L753.5,223.0 L765.5,209.0 L762.5,202.0 L765.5,189.0 L773.0,180.5 L777.0,178.5 L784.5,181.0 L785.5,188.0 L776.5,204.0 L783.0,208.5 L798.0,212.5 L803.5,218.0 L802.5,226.0 L779.5,266.0 L777.5,279.0 L780.0,281.5 L791.0,280.5 L809.0,269.5 L838.0,245.5 L866.0,213.5 L877.0,205.5 L892.0,199.5 L906.0,199.5 L911.0,201.5 L917.5,211.0 L916.5,222.0 L910.5,232.0 L891.0,248.5 L877.0,254.5 L855.5,259.0 L856.5,273.0 L863.0,280.5 L877.0,282.5 L901.0,274.5 L927.0,256.5 L963.0,222.5 L978.0,211.5 L994.0,204.5 L1008.0,203.5 L1013.0,205.5 L1018.5,211.0 L1020.5,215.0 L1019.5,220.0 L1026.0,222.5 L1029.5,226.0 L1028.5,230.0 L1017.5,246.0 L1008.5,266.0 L1007.5,279.0 L1010.0,281.5 L1014.0,281.5 L1024.0,277.5 L1036.0,269.5 L1082.5,227.0 L1112.5,176.0 L1111.0,174.5 L1084.0,175.5 L1082.5,173.0 L1083.5,171.0 L1087.0,167.5 L1119.0,165.5 L1142.5,130.0 L1152.0,120.5 L1159.0,121.5 L1160.5,127.0 L1136.5,164.0 L1138.0,165.5 L1181.0,165.5 L1181.5,169.0 L1179.0,171.5 L1133.0,173.5 L1129.5,176.0 L1085.5,253.0 L1079.5,270.0 L1079.5,279.0 L1082.0,281.5 L1096.0,279.5 L1120.0,265.5 L1162.5,228.0 L1175.5,207.0 L1181.0,203.5 L1188.0,204.5 L1191.5,210.0 L1160.5,263.0 L1157.5,277.0 L1162.0,282.5 L1172.0,281.5 L1195.0,269.5 L1232.0,239.5 L1251.0,219.5 L1259.0,214.5 L1270.0,201.5 L1279.0,197.5 L1284.0,197.5 L1291.0,200.5 L1297.5,209.0 L1298.5,224.0 L1293.5,239.0 L1295.0,241.5 L1318.0,239.5 L1338.0,231.5 L1343.5,227.0 L1354.5,208.0 L1360.0,204.5 L1365.0,204.5 L1369.5,210.0 L1367.5,216.0 L1353.5,237.0 L1352.5,239.0 L1354.0,240.5 L1382.0,218.5 L1398.0,211.5 L1409.0,211.5 L1414.5,217.0 L1414.5,225.0 L1392.5,266.0 L1389.5,276.0 L1392.0,283.5 L1399.0,282.5 L1412.0,274.5 L1433.5,255.0 L1449.0,236.5 L1452.5,237.0 L1452.5,240.0 L1444.5,251.0 L1418.0,278.5 L1405.0,288.5 L1393.0,293.5 L1384.0,293.5 L1376.5,288.0 L1373.5,281.0 L1373.5,270.0 L1380.5,251.0 L1398.5,222.0 L1397.0,220.5 L1379.0,228.5 L1355.0,248.5 L1340.5,264.0 L1324.5,287.0 L1320.0,290.5 L1311.0,288.5 L1309.5,283.0 L1330.5,248.0 L1331.5,245.0 L1330.0,243.5 L1309.0,249.5 L1290.0,248.5 L1281.5,263.0 L1265.0,281.5 L1258.0,286.5 L1243.0,292.5 L1231.0,290.5 L1225.5,286.0 L1222.5,280.0 L1222.5,265.0 L1225.5,257.0 L1224.0,254.5 L1197.0,276.5 L1182.0,285.5 L1165.0,291.5 L1154.0,290.5 L1145.5,284.0 L1142.5,277.0 L1142.5,267.0 L1147.5,254.0 L1146.0,252.5 L1118.0,276.5 L1106.0,283.5 L1090.0,290.5 L1074.0,290.5 L1066.5,284.0 L1064.5,280.0 L1064.5,268.0 L1071.5,250.0 L1070.0,247.5 L1035.0,279.5 L1019.0,288.5 L1012.0,290.5 L1004.0,290.5 L996.5,286.0 L992.5,278.0 L993.5,263.0 L992.0,261.5 L984.0,270.5 L967.0,284.5 L953.0,290.5 L943.0,289.5 L935.5,283.0 L933.5,279.0 L933.5,268.0 L936.5,261.0 L935.0,257.5 L917.0,272.5 L891.0,287.5 L877.0,291.5 L860.0,291.5 L850.0,287.5 L840.5,278.0 L837.5,268.0 L839.5,257.0 L838.0,253.5 L812.0,276.5 L798.0,285.5 L790.0,289.5 L774.0,291.5 L770.0,290.5 L763.5,285.0 L761.5,271.0 L764.5,261.0 L784.5,226.0 L785.5,221.0 L782.0,217.5 L770.0,212.5 L734.0,251.5 L706.0,275.5 L683.0,291.5 L645.0,309.5 L610.0,317.5 Z M295.0,356.5 L285.0,356.5 L275.5,349.0 L272.5,340.0 L272.5,326.0 L278.5,301.0 L295.5,260.0 L294.0,258.5 L278.0,272.5 L257.0,286.5 L244.0,291.5 L232.0,292.5 L224.0,289.5 L220.5,286.0 L216.5,276.0 L217.5,265.0 L223.5,249.0 L250.5,201.0 L257.0,196.5 L263.0,196.5 L266.5,199.0 L267.5,204.0 L238.5,255.0 L232.5,271.0 L232.5,280.0 L239.0,283.5 L251.0,280.5 L261.0,275.5 L282.0,260.5 L305.5,240.0 L342.5,166.0 L374.5,114.0 L401.0,86.5 L416.0,78.5 L429.0,78.5 L437.5,86.0 L438.5,102.0 L435.5,112.0 L424.5,132.0 L395.5,169.0 L323.5,238.0 L329.0,245.5 L338.0,248.5 L359.0,249.5 L377.0,245.5 L395.0,237.5 L406.5,222.0 L430.0,200.5 L447.0,193.5 L461.0,193.5 L468.0,197.5 L472.5,205.0 L471.5,218.0 L465.5,230.0 L454.0,241.5 L443.0,248.5 L428.0,254.5 L411.0,256.5 L407.5,259.0 L407.5,270.0 L410.5,278.0 L415.0,282.5 L423.0,285.5 L441.0,282.5 L458.0,273.5 L473.0,260.5 L496.0,235.5 L498.0,235.5 L499.5,239.0 L481.5,261.0 L464.0,277.5 L444.0,289.5 L426.0,294.5 L406.0,292.5 L400.0,289.5 L392.5,282.0 L388.5,270.0 L389.5,255.0 L392.5,249.0 L391.0,246.5 L373.0,254.5 L361.0,257.5 L335.0,257.5 L333.5,260.0 L335.5,264.0 L336.5,283.0 L330.5,310.0 L315.5,340.0 L303.0,352.5 L295.0,356.5 Z M336.5,218.0 L380.5,176.0 L413.5,136.0 L429.5,105.0 L431.5,92.0 L427.0,85.5 L417.0,87.5 L407.0,95.5 L384.5,124.0 L347.5,190.0 L334.5,216.0 L336.5,218.0 Z M281.0,166.5 L274.5,164.0 L274.5,155.0 L279.5,146.0 L285.0,140.5 L293.0,139.5 L297.5,143.0 L297.5,151.0 L290.0,161.5 L281.0,166.5 Z M1205.0,182.5 L1200.0,182.5 L1196.5,179.0 L1197.5,171.0 L1207.0,157.5 L1215.0,156.5 L1219.5,160.0 L1220.5,165.0 L1215.5,174.0 L1205.0,182.5 Z M419.5,249.0 L435.0,243.5 L454.5,229.0 L463.5,216.0 L464.5,205.0 L462.0,201.5 L453.0,200.5 L445.0,203.5 L428.5,219.0 L411.5,248.0 L413.0,249.5 L419.5,249.0 Z M1285.5,238.0 L1291.5,223.0 L1291.5,213.0 L1287.0,206.5 L1282.0,205.5 L1273.5,213.0 L1271.5,218.0 L1271.5,226.0 L1279.0,236.5 L1285.5,238.0 Z M862.5,250.0 L877.0,246.5 L897.0,234.5 L908.5,218.0 L908.5,209.0 L905.0,206.5 L898.0,206.5 L885.0,213.5 L867.5,233.0 L858.5,249.0 L862.5,250.0 Z M957.5,280.0 L967.0,275.5 L979.5,265.0 L994.5,248.0 L1009.5,227.0 L1015.5,222.0 L1011.0,213.5 L1002.0,213.5 L991.0,218.5 L977.0,229.5 L967.5,240.0 L956.5,255.0 L950.5,268.0 L950.5,279.0 L952.0,280.5 L957.5,280.0 Z M1247.5,283.0 L1255.0,279.5 L1265.5,270.0 L1281.5,247.0 L1266.5,235.0 L1263.0,227.5 L1245.5,252.0 L1239.5,266.0 L1238.5,279.0 L1242.0,283.5 L1247.5,283.0 Z M294.5,348.0 L300.0,345.5 L306.5,339.0 L314.5,327.0 L322.5,310.0 L327.5,293.0 L328.5,267.0 L325.5,256.0 L318.0,250.5 L296.5,299.0 L287.5,329.0 L287.5,345.0 L292.0,348.5 L294.5,348.0 Z M28.5,349.0 L42.0,344.5 L53.0,336.5 L62.5,327.0 L72.5,312.0 L65.0,309.5 L44.0,309.5 L30.0,313.5 L18.0,320.5 L9.5,331.0 L8.5,342.0 L10.5,346.0 L16.0,349.5 L28.5,349.0 Z" fill="#1ACB6C" fill-rule="evenodd"/>
  </g>
</svg>